999
VISION3D DXF
0
SECTION
2
HEADER
9
$ACADVER
1
AC1006
9
$INSBASE
10
0.0
20
0.0
30
0.0
9
$EXTMIN
10
-31.5
20
-31.5
9
$EXTMAX
10
31.5
20
31.5
9
$LINMIN
10
0.0
20
0.0
9
$LINMAX
10
1000.0
20
1000.0
0
ENDSEC
0
SECTION
2
TABLES
0
TABLE
2
LTYPE
70
1
0
LTYPE
2
CONTINUOUS
70
64
3
Solid line
72
65
73
0
40
0.000000
0
ENDTAB
0
TABLE
2
LAYER
70
6
0
LAYER
2
1
70
64
62
7
6
CONTINUOUS
0
ENDTAB
0
TABLE
2
STYLE
70
0
0
ENDTAB
0
ENDSEC
0
SECTION
2
BLOCKS
0
ENDSEC
0
SECTION
2
ENTITIES
0
LINE
8
1
62
1
10
24.22159212965826
20
1.9505062687612795
30
0.0
11
25.289834875473225
21
2.036529275057367
31
0.0
0
LINE
8
1
62
1
10
25.289834875473225
20
2.036529275057367
30
0.0
11
25.301377889245114
21
2.037225304158452
31
0.0
0
LINE
8
1
62
1
10
25.301377889245114
20
2.037225304158452
30
0.0
11
25.336050102932578
21
2.0383833712596138
31
0.0
0
LINE
8
1
62
1
10
25.336050102932578
20
2.0383833712596138
30
0.0
11
25.393868865808226
21
2.0386069262515796
31
0.0
0
LINE
8
1
62
1
10
25.393868865808226
20
2.0386069262515796
30
0.0
11
25.474788279218796
21
2.036499429050874
31
0.0
0
LINE
8
1
62
1
10
25.474788279218796
20
2.036499429050874
30
0.0
11
25.57869923222045
21
2.0306668953597793
31
0.0
0
LINE
8
1
62
1
10
25.57869923222045
20
2.0306668953597793
30
0.0
11
25.705429533258936
21
2.0197204397037933
31
0.0
0
LINE
8
1
62
1
10
25.705429533258936
20
2.0197204397037933
30
0.0
11
25.85474413774511
21
2.0022788122687425
31
0.0
0
LINE
8
1
62
1
10
25.85474413774511
20
2.0022788122687425
30
0.0
11
26.026345471254217
21
1.9769709260667991
31
0.0
0
LINE
8
1
62
1
10
26.026345471254217
20
1.9769709260667991
30
0.0
11
26.21987384795476
21
1.9424383709718818
31
0.0
0
LINE
8
1
62
1
10
26.21987384795476
20
1.9424383709718818
30
0.0
11
26.434907983751636
21
1.8973379111804896
31
0.0
0
LINE
8
1
62
1
10
26.434907983751636
20
1.8973379111804896
30
0.0
11
26.670965603506694
21
1.8403439626736278
31
0.0
0
LINE
8
1
62
1
10
26.670965603506694
20
1.8403439626736278
30
0.0
11
26.92750414157994
21
1.7701510472793882
31
0.0
0
LINE
8
1
62
1
10
26.92750414157994
20
1.7701510472793882
30
0.0
11
27.203921534814864
21
1.6854762199637037
31
0.0
0
LINE
8
1
62
1
10
27.203921534814864
20
1.6854762199637037
30
0.0
11
27.49955710697307
21
1.5850614660089342
31
0.0
0
LINE
8
1
62
1
10
27.49955710697307
20
1.5850614660089342
30
0.0
11
27.81369254350617
21
1.4676760647760652
31
0.0
0
LINE
8
1
62
1
10
27.81369254350617
20
1.4676760647760652
30
0.0
11
28.145552955436663
21
1.3321189167865504
31
0.0
0
LINE
8
1
62
1
10
28.145552955436663
20
1.3321189167865504
30
0.0
11
28.494308031005307
21
1.1772208309040098
31
0.0
0
LINE
8
1
62
1
10
28.494308031005307
20
1.1772208309040098
30
0.0
11
28.859073273629196
21
1.001846768444099
31
0.0
0
LINE
8
1
62
1
10
28.859073273629196
20
1.001846768444099
30
0.0
11
29.238911324603617
21
0.8048980410929139
31
0.0
0
LINE
8
1
62
1
10
29.238911324603617
20
0.8048980410929139
30
0.0
11
29.238911324603617
21
-0.8048980410929139
31
0.0
0
LINE
8
1
62
1
10
29.238911324603617
20
-0.8048980410929139
30
0.0
11
28.859073273629196
21
-1.001846768444099
31
0.0
0
LINE
8
1
62
1
10
28.859073273629196
20
-1.001846768444099
30
0.0
11
28.494308031005307
21
-1.1772208309040098
31
0.0
0
LINE
8
1
62
1
10
28.494308031005307
20
-1.1772208309040098
30
0.0
11
28.145552955436663
21
-1.3321189167865504
31
0.0
0
LINE
8
1
62
1
10
28.145552955436663
20
-1.3321189167865504
30
0.0
11
27.81369254350617
21
-1.4676760647760652
31
0.0
0
LINE
8
1
62
1
10
27.81369254350617
20
-1.4676760647760652
30
0.0
11
27.49955710697307
21
-1.5850614660089342
31
0.0
0
LINE
8
1
62
1
10
27.49955710697307
20
-1.5850614660089342
30
0.0
11
27.203921534814864
21
-1.6854762199637037
31
0.0
0
LINE
8
1
62
1
10
27.203921534814864
20
-1.6854762199637037
30
0.0
11
26.92750414157994
21
-1.7701510472793882
31
0.0
0
LINE
8
1
62
1
10
26.92750414157994
20
-1.7701510472793882
30
0.0
11
26.670965603506694
21
-1.8403439626736278
31
0.0
0
LINE
8
1
62
1
10
26.670965603506694
20
-1.8403439626736278
30
0.0
11
26.434907983751636
21
-1.8973379111804896
31
0.0
0
LINE
8
1
62
1
10
26.434907983751636
20
-1.8973379111804896
30
0.0
11
26.21987384795476
21
-1.9424383709718818
31
0.0
0
LINE
8
1
62
1
10
26.21987384795476
20
-1.9424383709718818
30
0.0
11
26.026345471254217
21
-1.9769709260667991
31
0.0
0
LINE
8
1
62
1
10
26.026345471254217
20
-1.9769709260667991
30
0.0
11
25.85474413774511
21
-2.0022788122687425
31
0.0
0
LINE
8
1
62
1
10
25.85474413774511
20
-2.0022788122687425
30
0.0
11
25.705429533258936
21
-2.0197204397037933
31
0.0
0
LINE
8
1
62
1
10
25.705429533258936
20
-2.0197204397037933
30
0.0
11
25.57869923222045
21
-2.0306668953597793
31
0.0
0
LINE
8
1
62
1
10
25.57869923222045
20
-2.0306668953597793
30
0.0
11
25.474788279218796
21
-2.036499429050874
31
0.0
0
LINE
8
1
62
1
10
25.474788279218796
20
-2.036499429050874
30
0.0
11
25.393868865808226
21
-2.0386069262515796
31
0.0
0
LINE
8
1
62
1
10
25.393868865808226
20
-2.0386069262515796
30
0.0
11
25.336050102932578
21
-2.0383833712596138
31
0.0
0
LINE
8
1
62
1
10
25.336050102932578
20
-2.0383833712596138
30
0.0
11
25.301377889245114
21
-2.037225304158452
31
0.0
0
LINE
8
1
62
1
10
25.301377889245114
20
-2.037225304158452
30
0.0
11
25.289834875473225
21
-2.036529275057367
31
0.0
0
LINE
8
1
62
1
10
25.289834875473225
20
-2.036529275057367
30
0.0
11
24.22159212965826
21
-1.9505062687612795
31
0.0
0
LINE
8
1
62
1
10
24.22159212965826
20
-1.9505062687612795
30
0.0
11
23.90108956182422
21
-4.384964966525636
31
0.0
0
LINE
8
1
62
1
10
23.90108956182422
20
-4.384964966525636
30
0.0
11
24.95519721109925
21
-4.578354690498743
31
0.0
0
LINE
8
1
62
1
10
24.95519721109925
20
-4.578354690498743
30
0.0
11
24.966527051802036
21
-4.580669929816201
31
0.0
0
LINE
8
1
62
1
10
24.966527051802036
20
-4.580669929816201
30
0.0
11
25.000317568278653
21
-4.588525152132793
31
0.0
0
LINE
8
1
62
1
10
25.000317568278653
20
-4.588525152132793
30
0.0
11
25.056224064873874
21
-4.6032738115889416
31
0.0
0
LINE
8
1
62
1
10
25.056224064873874
20
-4.6032738115889416
30
0.0
11
25.133840755722265
21
-4.6262529828731145
31
0.0
0
LINE
8
1
62
1
10
25.133840755722265
20
-4.6262529828731145
30
0.0
11
25.232701458060415
21
-4.658780911429626
31
0.0
0
LINE
8
1
62
1
10
25.232701458060415
20
-4.658780911429626
30
0.0
11
25.352280377606736
21
-4.7021545911544065
31
0.0
0
LINE
8
1
62
1
10
25.352280377606736
20
-4.7021545911544065
30
0.0
11
25.491992984964295
21
-4.757647372899406
31
0.0
0
LINE
8
1
62
1
10
25.491992984964295
20
-4.757647372899406
30
0.0
11
25.651196981886034
21
-4.8265066070677936
31
0.0
0
LINE
8
1
62
1
10
25.651196981886034
20
-4.8265066070677936
30
0.0
11
25.829193356126268
21
-4.909951323539599
31
0.0
0
LINE
8
1
62
1
10
25.829193356126268
20
-4.909951323539599
30
0.0
11
26.02522752348933
21
-5.0091699521210105
31
0.0
0
LINE
8
1
62
1
10
26.02522752348933
20
-5.0091699521210105
30
0.0
11
26.238490555573897
21
-5.1253180866601555
31
0.0
0
LINE
8
1
62
1
10
26.238490555573897
20
-5.1253180866601555
30
0.0
11
26.46812049160199
21
-5.25951629591809
31
0.0
0
LINE
8
1
62
1
10
26.46812049160199
20
-5.25951629591809
30
0.0
11
26.71320373261304
21
-5.412847984225667
31
0.0
0
LINE
8
1
62
1
10
26.71320373261304
20
-5.412847984225667
30
0.0
11
26.97277651619762
21
-5.586357304895367
31
0.0
0
LINE
8
1
62
1
10
26.97277651619762
20
-5.586357304895367
30
0.0
11
27.245826469841465
21
-5.78104712929186
31
0.0
0
LINE
8
1
62
1
10
27.245826469841465
20
-5.78104712929186
30
0.0
11
27.531294240848588
21
-5.9978770743962
31
0.0
0
LINE
8
1
62
1
10
27.531294240848588
20
-5.9978770743962
30
0.0
11
27.82807520071341
21
-6.237761591626223
31
0.0
0
LINE
8
1
62
1
10
27.82807520071341
20
-6.237761591626223
30
0.0
11
28.135021221714794
21
-6.501568119599986
31
0.0
0
LINE
8
1
62
1
10
28.135021221714794
20
-6.501568119599986
30
0.0
11
28.4509425234111
21
-6.7901153034500625
31
0.0
0
LINE
8
1
62
1
10
28.4509425234111
20
-6.7901153034500625
30
0.0
11
28.03429663860999
21
-8.345058914292313
31
0.0
0
LINE
8
1
62
1
10
28.03429663860999
20
-8.345058914292313
30
0.0
11
27.6164271738193
21
-8.436987454848786
31
0.0
0
LINE
8
1
62
1
10
27.6164271738193
20
-8.436987454848786
30
0.0
11
27.218700858054667
21
-8.511977599257541
31
0.0
0
LINE
8
1
62
1
10
27.218700858054667
20
-8.511977599257541
30
0.0
11
26.84173874883719
21
-8.571333205220895
31
0.0
0
LINE
8
1
62
1
10
26.84173874883719
20
-8.571333205220895
30
0.0
11
26.48610143463113
21
-8.61637956047888
31
0.0
0
LINE
8
1
62
1
10
26.48610143463113
20
-8.61637956047888
30
0.0
11
26.152288326075155
21
-8.648460917442652
31
0.0
0
LINE
8
1
62
1
10
26.152288326075155
20
-8.648460917442652
30
0.0
11
25.840737041025015
21
-8.6689380051437
31
0.0
0
LINE
8
1
62
1
10
25.840737041025015
20
-8.6689380051437
30
0.0
11
25.551822884113832
21
-8.679185521917695
31
0.0
0
LINE
8
1
62
1
10
25.551822884113832
20
-8.679185521917695
30
0.0
11
25.285858421415146
21
-8.6805896122634
31
0.0
0
LINE
8
1
62
1
10
25.285858421415146
20
-8.6805896122634
30
0.0
11
25.04309315067224
21
-8.67454533133419
31
0.0
0
LINE
8
1
62
1
10
25.04309315067224
20
-8.67454533133419
30
0.0
11
24.823713267435394
21
-8.662454100532814
31
0.0
0
LINE
8
1
62
1
10
24.823713267435394
20
-8.662454100532814
30
0.0
11
24.627841527325923
21
-8.64572115768887
31
0.0
0
LINE
8
1
62
1
10
24.627841527325923
20
-8.64572115768887
30
0.0
11
24.455537204523488
21
-8.625753005302965
31
0.0
0
LINE
8
1
62
1
10
24.455537204523488
20
-8.625753005302965
30
0.0
11
24.306796146450377
21
-8.603954860342022
31
0.0
0
LINE
8
1
62
1
10
24.306796146450377
20
-8.603954860342022
30
0.0
11
24.181550924503778
21
-8.58172810906613
31
0.0
0
LINE
8
1
62
1
10
24.181550924503778
20
-8.58172810906613
30
0.0
11
24.07967108056471
21
-8.560467770359478
31
0.0
0
LINE
8
1
62
1
10
24.07967108056471
20
-8.560467770359478
30
0.0
11
24.00096346889024
21
-8.541559971025292
31
0.0
0
LINE
8
1
62
1
10
24.00096346889024
20
-8.541559971025292
30
0.0
11
23.945172692874117
21
-8.526379436488472
31
0.0
0
LINE
8
1
62
1
10
23.945172692874117
20
-8.526379436488472
30
0.0
11
23.91198163604007
21
-8.516287000328704
31
0.0
0
LINE
8
1
62
1
10
23.91198163604007
20
-8.516287000328704
30
0.0
11
23.901012086511898
21
-8.512627136042072
31
0.0
0
LINE
8
1
62
1
10
23.901012086511898
20
-8.512627136042072
30
0.0
11
22.891433221929674
21
-8.153053725196129
31
0.0
0
LINE
8
1
62
1
10
22.891433221929674
20
-8.153053725196129
30
0.0
11
21.951767238769918
21
-10.421608085841063
31
0.0
0
LINE
8
1
62
1
10
21.951767238769918
20
-10.421608085841063
30
0.0
11
22.919904097202163
21
-10.881231349986226
31
0.0
0
LINE
8
1
62
1
10
22.919904097202163
20
-10.881231349986226
30
0.0
11
22.930248654915395
21
-10.886400077988856
31
0.0
0
LINE
8
1
62
1
10
22.930248654915395
20
-10.886400077988856
30
0.0
11
22.960854706324763
21
-10.902733269303697
31
0.0
0
LINE
8
1
62
1
10
22.960854706324763
20
-10.902733269303697
30
0.0
11
23.011039001286445
21
-10.931449046439335
31
0.0
0
LINE
8
1
62
1
10
23.011039001286445
20
-10.931449046439335
30
0.0
11
23.080063520358983
21
-10.973733899258836
31
0.0
0
LINE
8
1
62
1
10
23.080063520358983
20
-10.973733899258836
30
0.0
11
23.167136778544318
21
-11.03074049810458
31
0.0
0
LINE
8
1
62
1
10
23.167136778544318
20
-11.03074049810458
30
0.0
11
23.271415210844903
21
-11.103585557303306
31
0.0
0
LINE
8
1
62
1
10
23.271415210844903
20
-11.103585557303306
30
0.0
11
23.39200463776843
21
-11.19334775198849
31
0.0
0
LINE
8
1
62
1
10
23.39200463776843
20
-11.19334775198849
30
0.0
11
23.52796180880963
21
-11.301065691110011
31
0.0
0
LINE
8
1
62
1
10
23.52796180880963
20
-11.301065691110011
30
0.0
11
23.678296021838005
21
-11.427735949430065
31
0.0
0
LINE
8
1
62
1
10
23.678296021838005
20
-11.427735949430065
30
0.0
11
23.841970816223235
21
-11.57431116123021
31
0.0
0
LINE
8
1
62
1
10
23.841970816223235
20
-11.57431116123021
30
0.0
11
24.01790573743457
21
-11.741698178376662
31
0.0
0
LINE
8
1
62
1
10
24.01790573743457
20
-11.741698178376662
30
0.0
11
24.204978170758608
21
-11.93075629531039
31
0.0
0
LINE
8
1
62
1
10
24.204978170758608
20
-11.93075629531039
30
0.0
11
24.402025241690083
21
-12.142295543444295
31
0.0
0
LINE
8
1
62
1
10
24.402025241690083
20
-12.142295543444295
30
0.0
11
24.607845780464057
21
-12.377075057362996
31
0.0
0
LINE
8
1
62
1
10
24.607845780464057
20
-12.377075057362996
30
0.0
11
24.8212023481142
21
-12.635801515130638
31
0.0
0
LINE
8
1
62
1
10
24.8212023481142
20
-12.635801515130638
30
0.0
11
25.040823321361614
21
-12.91912765491937
31
0.0
0
LINE
8
1
62
1
10
25.040823321361614
20
-12.91912765491937
30
0.0
11
25.265405033561553
21
-13.227650870075557
31
0.0
0
LINE
8
1
62
1
10
25.265405033561553
20
-13.227650870075557
30
0.0
11
25.493613968861478
21
-13.56191188464266
31
0.0
0
LINE
8
1
62
1
10
25.493613968861478
20
-13.56191188464266
30
0.0
11
25.724089006653703
21
-13.922393511259013
31
0.0
0
LINE
8
1
62
1
10
25.724089006653703
20
-13.922393511259013
30
0.0
11
24.919190965560787
21
-15.316517813344603
31
0.0
0
LINE
8
1
62
1
10
24.919190965560787
20
-15.316517813344603
30
0.0
11
24.491767200417378
21
-15.297161388986535
31
0.0
0
LINE
8
1
62
1
10
24.491767200417378
20
-15.297161388986535
30
0.0
11
24.088184202657544
21
-15.266657160929752
31
0.0
0
LINE
8
1
62
1
10
24.088184202657544
20
-15.266657160929752
30
0.0
11
23.708704404575066
21
-15.226425300517295
31
0.0
0
LINE
8
1
62
1
10
23.708704404575066
20
-15.226425300517295
30
0.0
11
23.353526283338134
21
-15.177891028375535
31
0.0
0
LINE
8
1
62
1
10
23.353526283338134
20
-15.177891028375535
30
0.0
11
23.02278431445512
21
-15.12248204961008
31
0.0
0
LINE
8
1
62
1
10
23.02278431445512
20
-15.12248204961008
30
0.0
11
22.716549021726376
21
-15.061625991370569
31
0.0
0
LINE
8
1
62
1
10
22.716549021726376
20
-15.061625991370569
30
0.0
11
22.43482712347922
21
-14.99674784626955
31
0.0
0
LINE
8
1
62
1
10
22.43482712347922
20
-14.99674784626955
30
0.0
11
22.177561774760946
21
-14.92926742513003
31
0.0
0
LINE
8
1
62
1
10
22.177561774760946
20
-14.92926742513003
30
0.0
11
21.944632905042745
21
-14.860596822521424
31
0.0
0
LINE
8
1
62
1
10
21.944632905042745
20
-14.860596822521424
30
0.0
11
21.73585765086612
21
-14.792137898524691
31
0.0
0
LINE
8
1
62
1
10
21.73585765086612
20
-14.792137898524691
30
0.0
11
21.55099088274283
21
-14.725279780144206
31
0.0
0
LINE
8
1
62
1
10
21.55099088274283
20
-14.725279780144206
30
0.0
11
21.389725825499685
21
-14.661396385756621
31
0.0
0
LINE
8
1
62
1
10
21.389725825499685
20
-14.661396385756621
30
0.0
11
21.25169477114111
21
-14.60184397595563
31
0.0
0
LINE
8
1
62
1
10
21.25169477114111
20
-14.60184397595563
30
0.0
11
21.136469883184542
21
-14.547958734115872
31
0.0
0
LINE
8
1
62
1
10
21.136469883184542
20
-14.547958734115872
30
0.0
11
21.04356409130811
21
-14.50105437995996
31
0.0
0
LINE
8
1
62
1
10
21.04356409130811
20
-14.50105437995996
30
0.0
11
20.972432075034863
21
-14.462419819368892
31
0.0
0
LINE
8
1
62
1
10
20.972432075034863
20
-14.462419819368892
30
0.0
11
20.92247133506515
21
-14.433316833628883
31
0.0
0
LINE
8
1
62
1
10
20.92247133506515
20
-14.433316833628883
30
0.0
11
20.893023350756945
21
-14.414977811256259
31
0.0
0
LINE
8
1
62
1
10
20.893023350756945
20
-14.414977811256259
30
0.0
11
20.8833748221448
21
-14.408603525487
31
0.0
0
LINE
8
1
62
1
10
20.8833748221448
20
-14.408603525487
30
0.0
11
20.001260970008637
21
-13.799984043817197
31
0.0
0
LINE
8
1
62
1
10
20.001260970008637
20
-13.799984043817197
30
0.0
11
18.506468255404037
21
-15.748035836628091
31
0.0
0
LINE
8
1
62
1
10
18.506468255404037
20
-15.748035836628091
30
0.0
11
19.322657396013156
21
-16.442570075057176
31
0.0
0
LINE
8
1
62
1
10
19.322657396013156
20
-16.442570075057176
30
0.0
11
19.331311706223868
21
-16.450240051473326
31
0.0
0
LINE
8
1
62
1
10
19.331311706223868
20
-16.450240051473326
30
0.0
11
19.356647540741324
21
-16.47393813179018
31
0.0
0
LINE
8
1
62
1
10
19.356647540741324
20
-16.47393813179018
30
0.0
11
19.397689657301296
21
-16.514664093848584
31
0.0
0
LINE
8
1
62
1
10
19.397689657301296
20
-16.514664093848584
30
0.0
11
19.4534180976916
21
-16.573372985362784
31
0.0
0
LINE
8
1
62
1
10
19.4534180976916
20
-16.573372985362784
30
0.0
11
19.522770013074155
21
-16.65097334899428
31
0.0
0
LINE
8
1
62
1
10
19.522770013074155
20
-16.65097334899428
30
0.0
11
19.604641555295974
21
-16.748325517264714
31
0.0
0
LINE
8
1
62
1
10
19.604641555295974
20
-16.748325517264714
30
0.0
11
19.69788983162408
21
-16.866239979661326
31
0.0
0
LINE
8
1
62
1
10
19.69788983162408
20
-16.866239979661326
30
0.0
11
19.801334920258135
21
-17.005475824197163
31
0.0
0
LINE
8
1
62
1
10
19.801334920258135
20
-17.005475824197163
30
0.0
11
19.913761943895796
21
-17.166739255593452
31
0.0
0
LINE
8
1
62
1
10
19.913761943895796
20
-17.166739255593452
30
0.0
11
20.033923198551232
21
-17.35068219215514
31
0.0
0
LINE
8
1
62
1
10
20.033923198551232
20
-17.35068219215514
30
0.0
11
20.16054033475499
21
-17.557900943310493
31
0.0
0
LINE
8
1
62
1
10
20.16054033475499
20
-17.557900943310493
30
0.0
11
20.292306588195746
21
-17.78893496968429
31
0.0
0
LINE
8
1
62
1
10
20.292306588195746
20
-17.78893496968429
30
0.0
11
20.427889056799348
21
-18.044265727469337
31
0.0
0
LINE
8
1
62
1
10
20.427889056799348
20
-18.044265727469337
30
0.0
11
20.565931021179786
21
-18.324315598754968
31
0.0
0
LINE
8
1
62
1
10
20.565931021179786
20
-18.324315598754968
30
0.0
11
20.70505430533927
21
-18.629446909362585
31
0.0
0
LINE
8
1
62
1
10
20.70505430533927
20
-18.629446909362585
30
0.0
11
20.84386167444099
21
-18.959961035627693
31
0.0
0
LINE
8
1
62
1
10
20.84386167444099
20
-18.959961035627693
30
0.0
11
20.980939266428443
21
-19.316097601455866
31
0.0
0
LINE
8
1
62
1
10
20.980939266428443
20
-19.316097601455866
30
0.0
11
21.114859054219316
21
-19.698033766866008
31
0.0
0
LINE
8
1
62
1
10
21.114859054219316
20
-19.698033766866008
30
0.0
11
21.24418133515993
21
-20.105883609118788
31
0.0
0
LINE
8
1
62
1
10
21.24418133515993
20
-20.105883609118788
30
0.0
11
20.10588360911879
21
-21.244181335159926
31
0.0
0
LINE
8
1
62
1
10
20.10588360911879
20
-21.244181335159926
30
0.0
11
19.698033766866008
21
-21.11485905421931
31
0.0
0
LINE
8
1
62
1
10
19.698033766866008
20
-21.11485905421931
30
0.0
11
19.31609760145587
21
-20.98093926642844
31
0.0
0
LINE
8
1
62
1
10
19.31609760145587
20
-20.98093926642844
30
0.0
11
18.959961035627696
21
-20.843861674440987
31
0.0
0
LINE
8
1
62
1
10
18.959961035627696
20
-20.843861674440987
30
0.0
11
18.62944690936259
21
-20.70505430533927
31
0.0
0
LINE
8
1
62
1
10
18.62944690936259
20
-20.70505430533927
30
0.0
11
18.32431559875497
21
-20.565931021179782
31
0.0
0
LINE
8
1
62
1
10
18.32431559875497
20
-20.565931021179782
30
0.0
11
18.04426572746934
21
-20.427889056799344
31
0.0
0
LINE
8
1
62
1
10
18.04426572746934
20
-20.427889056799344
30
0.0
11
17.788934969684295
21
-20.292306588195743
31
0.0
0
LINE
8
1
62
1
10
17.788934969684295
20
-20.292306588195743
30
0.0
11
17.557900943310496
21
-20.160540334754987
31
0.0
0
LINE
8
1
62
1
10
17.557900943310496
20
-20.160540334754987
30
0.0
11
17.350682192155144
21
-20.03392319855123
31
0.0
0
LINE
8
1
62
1
10
17.350682192155144
20
-20.03392319855123
30
0.0
11
17.166739255593455
21
-19.913761943895793
31
0.0
0
LINE
8
1
62
1
10
17.166739255593455
20
-19.913761943895793
30
0.0
11
17.005475824197166
21
-19.80133492025813
31
0.0
0
LINE
8
1
62
1
10
17.005475824197166
20
-19.80133492025813
30
0.0
11
16.86623997966133
21
-19.697889831624078
31
0.0
0
LINE
8
1
62
1
10
16.86623997966133
20
-19.697889831624078
30
0.0
11
16.748325517264718
21
-19.60464155529597
31
0.0
0
LINE
8
1
62
1
10
16.748325517264718
20
-19.60464155529597
30
0.0
11
16.650973348994285
21
-19.52277001307415
31
0.0
0
LINE
8
1
62
1
10
16.650973348994285
20
-19.52277001307415
30
0.0
11
16.573372985362784
21
-19.453418097691596
31
0.0
0
LINE
8
1
62
1
10
16.573372985362784
20
-19.453418097691596
30
0.0
11
16.514664093848587
21
-19.397689657301296
31
0.0
0
LINE
8
1
62
1
10
16.514664093848587
20
-19.397689657301296
30
0.0
11
16.47393813179018
21
-19.35664754074132
31
0.0
0
LINE
8
1
62
1
10
16.47393813179018
20
-19.35664754074132
30
0.0
11
16.45024005147333
21
-19.331311706223865
31
0.0
0
LINE
8
1
62
1
10
16.45024005147333
20
-19.331311706223865
30
0.0
11
16.44257007505718
21
-19.322657396013152
31
0.0
0
LINE
8
1
62
1
10
16.44257007505718
20
-19.322657396013152
30
0.0
11
15.748035836628095
21
-18.506468255404034
31
0.0
0
LINE
8
1
62
1
10
15.748035836628095
20
-18.506468255404034
30
0.0
11
13.799984043817199
21
-20.001260970008634
31
0.0
0
LINE
8
1
62
1
10
13.799984043817199
20
-20.001260970008634
30
0.0
11
14.408603525487003
21
-20.883374822144795
31
0.0
0
LINE
8
1
62
1
10
14.408603525487003
20
-20.883374822144795
30
0.0
11
14.41497781125626
21
-20.893023350756945
31
0.0
0
LINE
8
1
62
1
10
14.41497781125626
20
-20.893023350756945
30
0.0
11
14.433316833628886
21
-20.922471335065147
31
0.0
0
LINE
8
1
62
1
10
14.433316833628886
20
-20.922471335065147
30
0.0
11
14.462419819368895
21
-20.972432075034863
31
0.0
0
LINE
8
1
62
1
10
14.462419819368895
20
-20.972432075034863
30
0.0
11
14.501054379959964
21
-21.043564091308106
31
0.0
0
LINE
8
1
62
1
10
14.501054379959964
20
-21.043564091308106
30
0.0
11
14.547958734115875
21
-21.13646988318454
31
0.0
0
LINE
8
1
62
1
10
14.547958734115875
20
-21.13646988318454
30
0.0
11
14.601843975955633
21
-21.251694771141107
31
0.0
0
LINE
8
1
62
1
10
14.601843975955633
20
-21.251694771141107
30
0.0
11
14.661396385756623
21
-21.389725825499685
31
0.0
0
LINE
8
1
62
1
10
14.661396385756623
20
-21.389725825499685
30
0.0
11
14.725279780144207
21
-21.550990882742827
31
0.0
0
LINE
8
1
62
1
10
14.725279780144207
20
-21.550990882742827
30
0.0
11
14.792137898524695
21
-21.73585765086612
31
0.0
0
LINE
8
1
62
1
10
14.792137898524695
20
-21.73585765086612
30
0.0
11
14.860596822521428
21
-21.944632905042745
31
0.0
0
LINE
8
1
62
1
10
14.860596822521428
20
-21.944632905042745
30
0.0
11
14.929267425130032
21
-22.177561774760942
31
0.0
0
LINE
8
1
62
1
10
14.929267425130032
20
-22.177561774760942
30
0.0
11
14.996747846269553
21
-22.434827123479216
31
0.0
0
LINE
8
1
62
1
10
14.996747846269553
20
-22.434827123479216
30
0.0
11
15.061625991370573
21
-22.716549021726372
31
0.0
0
LINE
8
1
62
1
10
15.061625991370573
20
-22.716549021726372
30
0.0
11
15.122482049610083
21
-23.022784314455116
31
0.0
0
LINE
8
1
62
1
10
15.122482049610083
20
-23.022784314455116
30
0.0
11
15.177891028375539
21
-23.35352628333813
31
0.0
0
LINE
8
1
62
1
10
15.177891028375539
20
-23.35352628333813
30
0.0
11
15.226425300517297
21
-23.708704404575062
31
0.0
0
LINE
8
1
62
1
10
15.226425300517297
20
-23.708704404575062
30
0.0
11
15.266657160929755
21
-24.08818420265754
31
0.0
0
LINE
8
1
62
1
10
15.266657160929755
20
-24.08818420265754
30
0.0
11
15.297161388986538
21
-24.491767200417375
31
0.0
0
LINE
8
1
62
1
10
15.297161388986538
20
-24.491767200417375
30
0.0
11
15.316517813344607
21
-24.919190965560784
31
0.0
0
LINE
8
1
62
1
10
15.316517813344607
20
-24.919190965560784
30
0.0
11
13.922393511259019
21
-25.7240890066537
31
0.0
0
LINE
8
1
62
1
10
13.922393511259019
20
-25.7240890066537
30
0.0
11
13.561911884642665
21
-25.493613968861474
31
0.0
0
LINE
8
1
62
1
10
13.561911884642665
20
-25.493613968861474
30
0.0
11
13.227650870075562
21
-25.26540503356155
31
0.0
0
LINE
8
1
62
1
10
13.227650870075562
20
-25.26540503356155
30
0.0
11
12.919127654919377
21
-25.04082332136161
31
0.0
0
LINE
8
1
62
1
10
12.919127654919377
20
-25.04082332136161
30
0.0
11
12.635801515130643
21
-24.821202348114195
31
0.0
0
LINE
8
1
62
1
10
12.635801515130643
20
-24.821202348114195
30
0.0
11
12.377075057363001
21
-24.607845780464054
31
0.0
0
LINE
8
1
62
1
10
12.377075057363001
20
-24.607845780464054
30
0.0
11
12.1422955434443
21
-24.40202524169008
31
0.0
0
LINE
8
1
62
1
10
12.1422955434443
20
-24.40202524169008
30
0.0
11
11.930756295310395
21
-24.204978170758604
31
0.0
0
LINE
8
1
62
1
10
11.930756295310395
20
-24.204978170758604
30
0.0
11
11.741698178376668
21
-24.017905737434567
31
0.0
0
LINE
8
1
62
1
10
11.741698178376668
20
-24.017905737434567
30
0.0
11
11.574311161230215
21
-23.84197081622323
31
0.0
0
LINE
8
1
62
1
10
11.574311161230215
20
-23.84197081622323
30
0.0
11
11.427735949430073
21
-23.678296021838
31
0.0
0
LINE
8
1
62
1
10
11.427735949430073
20
-23.678296021838
30
0.0
11
11.301065691110017
21
-23.52796180880963
31
0.0
0
LINE
8
1
62
1
10
11.301065691110017
20
-23.52796180880963
30
0.0
11
11.193347751988496
21
-23.39200463776843
31
0.0
0
LINE
8
1
62
1
10
11.193347751988496
20
-23.39200463776843
30
0.0
11
11.103585557303312
21
-23.2714152108449
31
0.0
0
LINE
8
1
62
1
10
11.103585557303312
20
-23.2714152108449
30
0.0
11
11.030740498104587
21
-23.167136778544315
31
0.0
0
LINE
8
1
62
1
10
11.030740498104587
20
-23.167136778544315
30
0.0
11
10.973733899258841
21
-23.08006352035898
31
0.0
0
LINE
8
1
62
1
10
10.973733899258841
20
-23.08006352035898
30
0.0
11
10.93144904643934
21
-23.01103900128644
31
0.0
0
LINE
8
1
62
1
10
10.93144904643934
20
-23.01103900128644
30
0.0
11
10.902733269303702
21
-22.96085470632476
31
0.0
0
LINE
8
1
62
1
10
10.902733269303702
20
-22.96085470632476
30
0.0
11
10.886400077988863
21
-22.930248654915392
31
0.0
0
LINE
8
1
62
1
10
10.886400077988863
20
-22.930248654915392
30
0.0
11
10.881231349986232
21
-22.919904097202163
31
0.0
0
LINE
8
1
62
1
10
10.881231349986232
20
-22.919904097202163
30
0.0
11
10.421608085841068
21
-21.951767238769914
31
0.0
0
LINE
8
1
62
1
10
10.421608085841068
20
-21.951767238769914
30
0.0
11
8.153053725196129
21
-22.891433221929674
31
0.0
0
LINE
8
1
62
1
10
8.153053725196129
20
-22.891433221929674
30
0.0
11
8.51262713604207
21
-23.901012086511898
31
0.0
0
LINE
8
1
62
1
10
8.51262713604207
20
-23.901012086511898
30
0.0
11
8.516287000328703
21
-23.91198163604007
31
0.0
0
LINE
8
1
62
1
10
8.516287000328703
20
-23.91198163604007
30
0.0
11
8.52637943648847
21
-23.945172692874117
31
0.0
0
LINE
8
1
62
1
10
8.52637943648847
20
-23.945172692874117
30
0.0
11
8.54155997102529
21
-24.00096346889024
31
0.0
0
LINE
8
1
62
1
10
8.54155997102529
20
-24.00096346889024
30
0.0
11
8.560467770359478
21
-24.07967108056471
31
0.0
0
LINE
8
1
62
1
10
8.560467770359478
20
-24.07967108056471
30
0.0
11
8.581728109066129
21
-24.181550924503778
31
0.0
0
LINE
8
1
62
1
10
8.581728109066129
20
-24.181550924503778
30
0.0
11
8.60395486034202
21
-24.306796146450377
31
0.0
0
LINE
8
1
62
1
10
8.60395486034202
20
-24.306796146450377
30
0.0
11
8.625753005302965
21
-24.455537204523488
31
0.0
0
LINE
8
1
62
1
10
8.625753005302965
20
-24.455537204523488
30
0.0
11
8.645721157688868
21
-24.627841527325923
31
0.0
0
LINE
8
1
62
1
10
8.645721157688868
20
-24.627841527325923
30
0.0
11
8.662454100532813
21
-24.823713267435394
31
0.0
0
LINE
8
1
62
1
10
8.662454100532813
20
-24.823713267435394
30
0.0
11
8.674545331334189
21
-25.04309315067224
31
0.0
0
LINE
8
1
62
1
10
8.674545331334189
20
-25.04309315067224
30
0.0
11
8.680589612263399
21
-25.285858421415146
31
0.0
0
LINE
8
1
62
1
10
8.680589612263399
20
-25.285858421415146
30
0.0
11
8.679185521917693
21
-25.551822884113832
31
0.0
0
LINE
8
1
62
1
10
8.679185521917693
20
-25.551822884113832
30
0.0
11
8.668938005143698
21
-25.840737041025015
31
0.0
0
LINE
8
1
62
1
10
8.668938005143698
20
-25.840737041025015
30
0.0
11
8.64846091744265
21
-26.152288326075155
31
0.0
0
LINE
8
1
62
1
10
8.64846091744265
20
-26.152288326075155
30
0.0
11
8.616379560478878
21
-26.48610143463113
31
0.0
0
LINE
8
1
62
1
10
8.616379560478878
20
-26.48610143463113
30
0.0
11
8.571333205220895
21
-26.84173874883719
31
0.0
0
LINE
8
1
62
1
10
8.571333205220895
20
-26.84173874883719
30
0.0
11
8.51197759925754
21
-27.218700858054667
31
0.0
0
LINE
8
1
62
1
10
8.51197759925754
20
-27.218700858054667
30
0.0
11
8.436987454848783
21
-27.6164271738193
31
0.0
0
LINE
8
1
62
1
10
8.436987454848783
20
-27.6164271738193
30
0.0
11
8.345058914292311
21
-28.03429663860999
31
0.0
0
LINE
8
1
62
1
10
8.345058914292311
20
-28.03429663860999
30
0.0
11
6.790115303450065
21
-28.4509425234111
31
0.0
0
LINE
8
1
62
1
10
6.790115303450065
20
-28.4509425234111
30
0.0
11
6.501568119599988
21
-28.135021221714794
31
0.0
0
LINE
8
1
62
1
10
6.501568119599988
20
-28.135021221714794
30
0.0
11
6.237761591626225
21
-27.82807520071341
31
0.0
0
LINE
8
1
62
1
10
6.237761591626225
20
-27.82807520071341
30
0.0
11
5.997877074396204
21
-27.531294240848588
31
0.0
0
LINE
8
1
62
1
10
5.997877074396204
20
-27.531294240848588
30
0.0
11
5.781047129291863
21
-27.245826469841465
31
0.0
0
LINE
8
1
62
1
10
5.781047129291863
20
-27.245826469841465
30
0.0
11
5.58635730489537
21
-26.97277651619762
31
0.0
0
LINE
8
1
62
1
10
5.58635730489537
20
-26.97277651619762
30
0.0
11
5.412847984225669
21
-26.71320373261304
31
0.0
0
LINE
8
1
62
1
10
5.412847984225669
20
-26.71320373261304
30
0.0
11
5.2595162959180914
21
-26.46812049160199
31
0.0
0
LINE
8
1
62
1
10
5.2595162959180914
20
-26.46812049160199
30
0.0
11
5.125318086660157
21
-26.238490555573897
31
0.0
0
LINE
8
1
62
1
10
5.125318086660157
20
-26.238490555573897
30
0.0
11
5.009169952121013
21
-26.02522752348933
31
0.0
0
LINE
8
1
62
1
10
5.009169952121013
20
-26.02522752348933
30
0.0
11
4.909951323539601
21
-25.829193356126268
31
0.0
0
LINE
8
1
62
1
10
4.909951323539601
20
-25.829193356126268
30
0.0
11
4.826506607067796
21
-25.651196981886034
31
0.0
0
LINE
8
1
62
1
10
4.826506607067796
20
-25.651196981886034
30
0.0
11
4.757647372899408
21
-25.491992984964295
31
0.0
0
LINE
8
1
62
1
10
4.757647372899408
20
-25.491992984964295
30
0.0
11
4.702154591154408
21
-25.352280377606736
31
0.0
0
LINE
8
1
62
1
10
4.702154591154408
20
-25.352280377606736
30
0.0
11
4.658780911429628
21
-25.232701458060415
31
0.0
0
LINE
8
1
62
1
10
4.658780911429628
20
-25.232701458060415
30
0.0
11
4.626252982873117
21
-25.133840755722265
31
0.0
0
LINE
8
1
62
1
10
4.626252982873117
20
-25.133840755722265
30
0.0
11
4.603273811588943
21
-25.056224064873874
31
0.0
0
LINE
8
1
62
1
10
4.603273811588943
20
-25.056224064873874
30
0.0
11
4.588525152132795
21
-25.000317568278653
31
0.0
0
LINE
8
1
62
1
10
4.588525152132795
20
-25.000317568278653
30
0.0
11
4.580669929816203
21
-24.966527051802036
31
0.0
0
LINE
8
1
62
1
10
4.580669929816203
20
-24.966527051802036
30
0.0
11
4.578354690498744
21
-24.95519721109925
31
0.0
0
LINE
8
1
62
1
10
4.578354690498744
20
-24.95519721109925
30
0.0
11
4.384964966525638
21
-23.90108956182422
31
0.0
0
LINE
8
1
62
1
10
4.384964966525638
20
-23.90108956182422
30
0.0
11
1.9505062687612795
21
-24.22159212965826
31
0.0
0
LINE
8
1
62
1
10
1.9505062687612795
20
-24.22159212965826
30
0.0
11
2.036529275057367
21
-25.289834875473225
31
0.0
0
LINE
8
1
62
1
10
2.036529275057367
20
-25.289834875473225
30
0.0
11
2.037225304158452
21
-25.301377889245114
31
0.0
0
LINE
8
1
62
1
10
2.037225304158452
20
-25.301377889245114
30
0.0
11
2.0383833712596138
21
-25.336050102932578
31
0.0
0
LINE
8
1
62
1
10
2.0383833712596138
20
-25.336050102932578
30
0.0
11
2.0386069262515796
21
-25.393868865808226
31
0.0
0
LINE
8
1
62
1
10
2.0386069262515796
20
-25.393868865808226
30
0.0
11
2.036499429050874
21
-25.474788279218796
31
0.0
0
LINE
8
1
62
1
10
2.036499429050874
20
-25.474788279218796
30
0.0
11
2.0306668953597793
21
-25.57869923222045
31
0.0
0
LINE
8
1
62
1
10
2.0306668953597793
20
-25.57869923222045
30
0.0
11
2.0197204397037933
21
-25.705429533258936
31
0.0
0
LINE
8
1
62
1
10
2.0197204397037933
20
-25.705429533258936
30
0.0
11
2.0022788122687425
21
-25.85474413774511
31
0.0
0
LINE
8
1
62
1
10
2.0022788122687425
20
-25.85474413774511
30
0.0
11
1.9769709260667991
21
-26.026345471254217
31
0.0
0
LINE
8
1
62
1
10
1.9769709260667991
20
-26.026345471254217
30
0.0
11
1.9424383709718818
21
-26.21987384795476
31
0.0
0
LINE
8
1
62
1
10
1.9424383709718818
20
-26.21987384795476
30
0.0
11
1.8973379111804896
21
-26.434907983751636
31
0.0
0
LINE
8
1
62
1
10
1.8973379111804896
20
-26.434907983751636
30
0.0
11
1.8403439626736278
21
-26.670965603506694
31
0.0
0
LINE
8
1
62
1
10
1.8403439626736278
20
-26.670965603506694
30
0.0
11
1.7701510472793882
21
-26.92750414157994
31
0.0
0
LINE
8
1
62
1
10
1.7701510472793882
20
-26.92750414157994
30
0.0
11
1.6854762199637037
21
-27.203921534814864
31
0.0
0
LINE
8
1
62
1
10
1.6854762199637037
20
-27.203921534814864
30
0.0
11
1.5850614660089342
21
-27.49955710697307
31
0.0
0
LINE
8
1
62
1
10
1.5850614660089342
20
-27.49955710697307
30
0.0
11
1.4676760647760652
21
-27.81369254350617
31
0.0
0
LINE
8
1
62
1
10
1.4676760647760652
20
-27.81369254350617
30
0.0
11
1.3321189167865504
21
-28.145552955436663
31
0.0
0
LINE
8
1
62
1
10
1.3321189167865504
20
-28.145552955436663
30
0.0
11
1.1772208309040098
21
-28.494308031005307
31
0.0
0
LINE
8
1
62
1
10
1.1772208309040098
20
-28.494308031005307
30
0.0
11
1.001846768444099
21
-28.859073273629196
31
0.0
0
LINE
8
1
62
1
10
1.001846768444099
20
-28.859073273629196
30
0.0
11
0.8048980410929139
21
-29.238911324603617
31
0.0
0
LINE
8
1
62
1
10
0.8048980410929139
20
-29.238911324603617
30
0.0
11
-0.8048980410929099
21
-29.238911324603617
31
0.0
0
LINE
8
1
62
1
10
-0.8048980410929099
20
-29.238911324603617
30
0.0
11
-1.0018467684440955
21
-28.859073273629193
31
0.0
0
LINE
8
1
62
1
10
-1.0018467684440955
20
-28.859073273629193
30
0.0
11
-1.1772208309040062
21
-28.494308031005307
31
0.0
0
LINE
8
1
62
1
10
-1.1772208309040062
20
-28.494308031005307
30
0.0
11
-1.3321189167865468
21
-28.145552955436663
31
0.0
0
LINE
8
1
62
1
10
-1.3321189167865468
20
-28.145552955436663
30
0.0
11
-1.467676064776062
21
-27.81369254350617
31
0.0
0
LINE
8
1
62
1
10
-1.467676064776062
20
-27.81369254350617
30
0.0
11
-1.5850614660089306
21
-27.49955710697307
31
0.0
0
LINE
8
1
62
1
10
-1.5850614660089306
20
-27.49955710697307
30
0.0
11
-1.6854762199637006
21
-27.203921534814864
31
0.0
0
LINE
8
1
62
1
10
-1.6854762199637006
20
-27.203921534814864
30
0.0
11
-1.7701510472793847
21
-26.92750414157994
31
0.0
0
LINE
8
1
62
1
10
-1.7701510472793847
20
-26.92750414157994
30
0.0
11
-1.8403439626736242
21
-26.670965603506694
31
0.0
0
LINE
8
1
62
1
10
-1.8403439626736242
20
-26.670965603506694
30
0.0
11
-1.897337911180486
21
-26.434907983751636
31
0.0
0
LINE
8
1
62
1
10
-1.897337911180486
20
-26.434907983751636
30
0.0
11
-1.9424383709718787
21
-26.21987384795476
31
0.0
0
LINE
8
1
62
1
10
-1.9424383709718787
20
-26.21987384795476
30
0.0
11
-1.976970926066796
21
-26.026345471254217
31
0.0
0
LINE
8
1
62
1
10
-1.976970926066796
20
-26.026345471254217
30
0.0
11
-2.0022788122687394
21
-25.85474413774511
31
0.0
0
LINE
8
1
62
1
10
-2.0022788122687394
20
-25.85474413774511
30
0.0
11
-2.01972043970379
21
-25.705429533258936
31
0.0
0
LINE
8
1
62
1
10
-2.01972043970379
20
-25.705429533258936
30
0.0
11
-2.030666895359776
21
-25.57869923222045
31
0.0
0
LINE
8
1
62
1
10
-2.030666895359776
20
-25.57869923222045
30
0.0
11
-2.036499429050871
21
-25.474788279218796
31
0.0
0
LINE
8
1
62
1
10
-2.036499429050871
20
-25.474788279218796
30
0.0
11
-2.0386069262515765
21
-25.393868865808226
31
0.0
0
LINE
8
1
62
1
10
-2.0386069262515765
20
-25.393868865808226
30
0.0
11
-2.0383833712596107
21
-25.336050102932578
31
0.0
0
LINE
8
1
62
1
10
-2.0383833712596107
20
-25.336050102932578
30
0.0
11
-2.037225304158449
21
-25.301377889245114
31
0.0
0
LINE
8
1
62
1
10
-2.037225304158449
20
-25.301377889245114
30
0.0
11
-2.036529275057364
21
-25.289834875473225
31
0.0
0
LINE
8
1
62
1
10
-2.036529275057364
20
-25.289834875473225
30
0.0
11
-1.9505062687612764
21
-24.22159212965826
31
0.0
0
LINE
8
1
62
1
10
-1.9505062687612764
20
-24.22159212965826
30
0.0
11
-4.384964966525635
21
-23.901089561824225
31
0.0
0
LINE
8
1
62
1
10
-4.384964966525635
20
-23.901089561824225
30
0.0
11
-4.578354690498741
21
-24.95519721109925
31
0.0
0
LINE
8
1
62
1
10
-4.578354690498741
20
-24.95519721109925
30
0.0
11
-4.5806699298161995
21
-24.966527051802036
31
0.0
0
LINE
8
1
62
1
10
-4.5806699298161995
20
-24.966527051802036
30
0.0
11
-4.588525152132791
21
-25.000317568278657
31
0.0
0
LINE
8
1
62
1
10
-4.588525152132791
20
-25.000317568278657
30
0.0
11
-4.60327381158894
21
-25.056224064873877
31
0.0
0
LINE
8
1
62
1
10
-4.60327381158894
20
-25.056224064873877
30
0.0
11
-4.626252982873114
21
-25.133840755722268
31
0.0
0
LINE
8
1
62
1
10
-4.626252982873114
20
-25.133840755722268
30
0.0
11
-4.658780911429624
21
-25.23270145806042
31
0.0
0
LINE
8
1
62
1
10
-4.658780911429624
20
-25.23270145806042
30
0.0
11
-4.702154591154405
21
-25.35228037760674
31
0.0
0
LINE
8
1
62
1
10
-4.702154591154405
20
-25.35228037760674
30
0.0
11
-4.757647372899404
21
-25.4919929849643
31
0.0
0
LINE
8
1
62
1
10
-4.757647372899404
20
-25.4919929849643
30
0.0
11
-4.826506607067793
21
-25.651196981886034
31
0.0
0
LINE
8
1
62
1
10
-4.826506607067793
20
-25.651196981886034
30
0.0
11
-4.909951323539597
21
-25.82919335612627
31
0.0
0
LINE
8
1
62
1
10
-4.909951323539597
20
-25.82919335612627
30
0.0
11
-5.009169952121009
21
-26.025227523489335
31
0.0
0
LINE
8
1
62
1
10
-5.009169952121009
20
-26.025227523489335
30
0.0
11
-5.125318086660154
21
-26.2384905555739
31
0.0
0
LINE
8
1
62
1
10
-5.125318086660154
20
-26.2384905555739
30
0.0
11
-5.259516295918088
21
-26.46812049160199
31
0.0
0
LINE
8
1
62
1
10
-5.259516295918088
20
-26.46812049160199
30
0.0
11
-5.412847984225666
21
-26.713203732613042
31
0.0
0
LINE
8
1
62
1
10
-5.412847984225666
20
-26.713203732613042
30
0.0
11
-5.586357304895365
21
-26.972776516197623
31
0.0
0
LINE
8
1
62
1
10
-5.586357304895365
20
-26.972776516197623
30
0.0
11
-5.781047129291858
21
-27.245826469841468
31
0.0
0
LINE
8
1
62
1
10
-5.781047129291858
20
-27.245826469841468
30
0.0
11
-5.9978770743962
21
-27.53129424084859
31
0.0
0
LINE
8
1
62
1
10
-5.9978770743962
20
-27.53129424084859
30
0.0
11
-6.237761591626221
21
-27.82807520071341
31
0.0
0
LINE
8
1
62
1
10
-6.237761591626221
20
-27.82807520071341
30
0.0
11
-6.501568119599984
21
-28.135021221714798
31
0.0
0
LINE
8
1
62
1
10
-6.501568119599984
20
-28.135021221714798
30
0.0
11
-6.790115303450062
21
-28.450942523411104
31
0.0
0
LINE
8
1
62
1
10
-6.790115303450062
20
-28.450942523411104
30
0.0
11
-8.34505891429231
21
-28.03429663860999
31
0.0
0
LINE
8
1
62
1
10
-8.34505891429231
20
-28.03429663860999
30
0.0
11
-8.43698745484878
21
-27.6164271738193
31
0.0
0
LINE
8
1
62
1
10
-8.43698745484878
20
-27.6164271738193
30
0.0
11
-8.511977599257538
21
-27.218700858054667
31
0.0
0
LINE
8
1
62
1
10
-8.511977599257538
20
-27.218700858054667
30
0.0
11
-8.571333205220892
21
-26.84173874883719
31
0.0
0
LINE
8
1
62
1
10
-8.571333205220892
20
-26.84173874883719
30
0.0
11
-8.616379560478874
21
-26.48610143463113
31
0.0
0
LINE
8
1
62
1
10
-8.616379560478874
20
-26.48610143463113
30
0.0
11
-8.648460917442648
21
-26.152288326075155
31
0.0
0
LINE
8
1
62
1
10
-8.648460917442648
20
-26.152288326075155
30
0.0
11
-8.668938005143696
21
-25.840737041025015
31
0.0
0
LINE
8
1
62
1
10
-8.668938005143696
20
-25.840737041025015
30
0.0
11
-8.679185521917692
21
-25.551822884113832
31
0.0
0
LINE
8
1
62
1
10
-8.679185521917692
20
-25.551822884113832
30
0.0
11
-8.680589612263397
21
-25.285858421415146
31
0.0
0
LINE
8
1
62
1
10
-8.680589612263397
20
-25.285858421415146
30
0.0
11
-8.674545331334185
21
-25.04309315067224
31
0.0
0
LINE
8
1
62
1
10
-8.674545331334185
20
-25.04309315067224
30
0.0
11
-8.662454100532809
21
-24.823713267435394
31
0.0
0
LINE
8
1
62
1
10
-8.662454100532809
20
-24.823713267435394
30
0.0
11
-8.645721157688865
21
-24.627841527325923
31
0.0
0
LINE
8
1
62
1
10
-8.645721157688865
20
-24.627841527325923
30
0.0
11
-8.625753005302961
21
-24.455537204523488
31
0.0
0
LINE
8
1
62
1
10
-8.625753005302961
20
-24.455537204523488
30
0.0
11
-8.603954860342018
21
-24.306796146450377
31
0.0
0
LINE
8
1
62
1
10
-8.603954860342018
20
-24.306796146450377
30
0.0
11
-8.581728109066125
21
-24.181550924503778
31
0.0
0
LINE
8
1
62
1
10
-8.581728109066125
20
-24.181550924503778
30
0.0
11
-8.560467770359475
21
-24.07967108056471
31
0.0
0
LINE
8
1
62
1
10
-8.560467770359475
20
-24.07967108056471
30
0.0
11
-8.541559971025288
21
-24.00096346889024
31
0.0
0
LINE
8
1
62
1
10
-8.541559971025288
20
-24.00096346889024
30
0.0
11
-8.526379436488469
21
-23.945172692874117
31
0.0
0
LINE
8
1
62
1
10
-8.526379436488469
20
-23.945172692874117
30
0.0
11
-8.5162870003287
21
-23.91198163604007
31
0.0
0
LINE
8
1
62
1
10
-8.5162870003287
20
-23.91198163604007
30
0.0
11
-8.512627136042068
21
-23.901012086511898
31
0.0
0
LINE
8
1
62
1
10
-8.512627136042068
20
-23.901012086511898
30
0.0
11
-8.153053725196125
21
-22.891433221929674
31
0.0
0
LINE
8
1
62
1
10
-8.153053725196125
20
-22.891433221929674
30
0.0
11
-10.421608085841065
21
-21.951767238769914
31
0.0
0
LINE
8
1
62
1
10
-10.421608085841065
20
-21.951767238769914
30
0.0
11
-10.881231349986228
21
-22.919904097202163
31
0.0
0
LINE
8
1
62
1
10
-10.881231349986228
20
-22.919904097202163
30
0.0
11
-10.88640007798886
21
-22.930248654915392
31
0.0
0
LINE
8
1
62
1
10
-10.88640007798886
20
-22.930248654915392
30
0.0
11
-10.902733269303699
21
-22.96085470632476
31
0.0
0
LINE
8
1
62
1
10
-10.902733269303699
20
-22.96085470632476
30
0.0
11
-10.931449046439338
21
-23.01103900128644
31
0.0
0
LINE
8
1
62
1
10
-10.931449046439338
20
-23.01103900128644
30
0.0
11
-10.973733899258837
21
-23.08006352035898
31
0.0
0
LINE
8
1
62
1
10
-10.973733899258837
20
-23.08006352035898
30
0.0
11
-11.030740498104583
21
-23.167136778544315
31
0.0
0
LINE
8
1
62
1
10
-11.030740498104583
20
-23.167136778544315
30
0.0
11
-11.103585557303308
21
-23.2714152108449
31
0.0
0
LINE
8
1
62
1
10
-11.103585557303308
20
-23.2714152108449
30
0.0
11
-11.193347751988492
21
-23.39200463776843
31
0.0
0
LINE
8
1
62
1
10
-11.193347751988492
20
-23.39200463776843
30
0.0
11
-11.301065691110015
21
-23.52796180880963
31
0.0
0
LINE
8
1
62
1
10
-11.301065691110015
20
-23.52796180880963
30
0.0
11
-11.427735949430069
21
-23.678296021838
31
0.0
0
LINE
8
1
62
1
10
-11.427735949430069
20
-23.678296021838
30
0.0
11
-11.574311161230211
21
-23.84197081622323
31
0.0
0
LINE
8
1
62
1
10
-11.574311161230211
20
-23.84197081622323
30
0.0
11
-11.741698178376664
21
-24.017905737434567
31
0.0
0
LINE
8
1
62
1
10
-11.741698178376664
20
-24.017905737434567
30
0.0
11
-11.930756295310394
21
-24.204978170758604
31
0.0
0
LINE
8
1
62
1
10
-11.930756295310394
20
-24.204978170758604
30
0.0
11
-12.142295543444297
21
-24.40202524169008
31
0.0
0
LINE
8
1
62
1
10
-12.142295543444297
20
-24.40202524169008
30
0.0
11
-12.377075057362998
21
-24.607845780464054
31
0.0
0
LINE
8
1
62
1
10
-12.377075057362998
20
-24.607845780464054
30
0.0
11
-12.635801515130641
21
-24.821202348114195
31
0.0
0
LINE
8
1
62
1
10
-12.635801515130641
20
-24.821202348114195
30
0.0
11
-12.919127654919373
21
-25.04082332136161
31
0.0
0
LINE
8
1
62
1
10
-12.919127654919373
20
-25.04082332136161
30
0.0
11
-13.227650870075559
21
-25.26540503356155
31
0.0
0
LINE
8
1
62
1
10
-13.227650870075559
20
-25.26540503356155
30
0.0
11
-13.561911884642663
21
-25.493613968861474
31
0.0
0
LINE
8
1
62
1
10
-13.561911884642663
20
-25.493613968861474
30
0.0
11
-13.922393511259017
21
-25.7240890066537
31
0.0
0
LINE
8
1
62
1
10
-13.922393511259017
20
-25.7240890066537
30
0.0
11
-15.316517813344591
21
-24.919190965560794
31
0.0
0
LINE
8
1
62
1
10
-15.316517813344591
20
-24.919190965560794
30
0.0
11
-15.29716138898652
21
-24.49176720041738
31
0.0
0
LINE
8
1
62
1
10
-15.29716138898652
20
-24.49176720041738
30
0.0
11
-15.266657160929741
21
-24.08818420265755
31
0.0
0
LINE
8
1
62
1
10
-15.266657160929741
20
-24.08818420265755
30
0.0
11
-15.226425300517281
21
-23.708704404575073
31
0.0
0
LINE
8
1
62
1
10
-15.226425300517281
20
-23.708704404575073
30
0.0
11
-15.177891028375525
21
-23.35352628333814
31
0.0
0
LINE
8
1
62
1
10
-15.177891028375525
20
-23.35352628333814
30
0.0
11
-15.122482049610067
21
-23.022784314455127
31
0.0
0
LINE
8
1
62
1
10
-15.122482049610067
20
-23.022784314455127
30
0.0
11
-15.061625991370557
21
-22.716549021726383
31
0.0
0
LINE
8
1
62
1
10
-15.061625991370557
20
-22.716549021726383
30
0.0
11
-14.996747846269539
21
-22.434827123479224
31
0.0
0
LINE
8
1
62
1
10
-14.996747846269539
20
-22.434827123479224
30
0.0
11
-14.929267425130018
21
-22.17756177476095
31
0.0
0
LINE
8
1
62
1
10
-14.929267425130018
20
-22.17756177476095
30
0.0
11
-14.860596822521412
21
-21.944632905042752
31
0.0
0
LINE
8
1
62
1
10
-14.860596822521412
20
-21.944632905042752
30
0.0
11
-14.792137898524679
21
-21.735857650866127
31
0.0
0
LINE
8
1
62
1
10
-14.792137898524679
20
-21.735857650866127
30
0.0
11
-14.725279780144193
21
-21.550990882742838
31
0.0
0
LINE
8
1
62
1
10
-14.725279780144193
20
-21.550990882742838
30
0.0
11
-14.661396385756609
21
-21.389725825499692
31
0.0
0
LINE
8
1
62
1
10
-14.661396385756609
20
-21.389725825499692
30
0.0
11
-14.60184397595562
21
-21.251694771141114
31
0.0
0
LINE
8
1
62
1
10
-14.60184397595562
20
-21.251694771141114
30
0.0
11
-14.547958734115861
21
-21.136469883184546
31
0.0
0
LINE
8
1
62
1
10
-14.547958734115861
20
-21.136469883184546
30
0.0
11
-14.50105437995995
21
-21.043564091308113
31
0.0
0
LINE
8
1
62
1
10
-14.50105437995995
20
-21.043564091308113
30
0.0
11
-14.46241981936888
21
-20.97243207503487
31
0.0
0
LINE
8
1
62
1
10
-14.46241981936888
20
-20.97243207503487
30
0.0
11
-14.433316833628872
21
-20.922471335065154
31
0.0
0
LINE
8
1
62
1
10
-14.433316833628872
20
-20.922471335065154
30
0.0
11
-14.414977811256247
21
-20.893023350756952
31
0.0
0
LINE
8
1
62
1
10
-14.414977811256247
20
-20.893023350756952
30
0.0
11
-14.408603525486988
21
-20.883374822144802
31
0.0
0
LINE
8
1
62
1
10
-14.408603525486988
20
-20.883374822144802
30
0.0
11
-13.799984043817187
21
-20.001260970008644
31
0.0
0
LINE
8
1
62
1
10
-13.799984043817187
20
-20.001260970008644
30
0.0
11
-15.748035836628096
21
-18.506468255404034
31
0.0
0
LINE
8
1
62
1
10
-15.748035836628096
20
-18.506468255404034
30
0.0
11
-16.44257007505718
21
-19.32265739601315
31
0.0
0
LINE
8
1
62
1
10
-16.44257007505718
20
-19.32265739601315
30
0.0
11
-16.450240051473333
21
-19.331311706223865
31
0.0
0
LINE
8
1
62
1
10
-16.450240051473333
20
-19.331311706223865
30
0.0
11
-16.473938131790185
21
-19.356647540741317
31
0.0
0
LINE
8
1
62
1
10
-16.473938131790185
20
-19.356647540741317
30
0.0
11
-16.514664093848587
21
-19.397689657301292
31
0.0
0
LINE
8
1
62
1
10
-16.514664093848587
20
-19.397689657301292
30
0.0
11
-16.573372985362788
21
-19.453418097691593
31
0.0
0
LINE
8
1
62
1
10
-16.573372985362788
20
-19.453418097691593
30
0.0
11
-16.650973348994288
21
-19.522770013074147
31
0.0
0
LINE
8
1
62
1
10
-16.650973348994288
20
-19.522770013074147
30
0.0
11
-16.74832551726472
21
-19.604641555295967
31
0.0
0
LINE
8
1
62
1
10
-16.74832551726472
20
-19.604641555295967
30
0.0
11
-16.866239979661334
21
-19.697889831624074
31
0.0
0
LINE
8
1
62
1
10
-16.866239979661334
20
-19.697889831624074
30
0.0
11
-17.00547582419717
21
-19.801334920258128
31
0.0
0
LINE
8
1
62
1
10
-17.00547582419717
20
-19.801334920258128
30
0.0
11
-17.16673925559346
21
-19.91376194389579
31
0.0
0
LINE
8
1
62
1
10
-17.16673925559346
20
-19.91376194389579
30
0.0
11
-17.350682192155148
21
-20.033923198551225
31
0.0
0
LINE
8
1
62
1
10
-17.350682192155148
20
-20.033923198551225
30
0.0
11
-17.5579009433105
21
-20.160540334754984
31
0.0
0
LINE
8
1
62
1
10
-17.5579009433105
20
-20.160540334754984
30
0.0
11
-17.7889349696843
21
-20.29230658819574
31
0.0
0
LINE
8
1
62
1
10
-17.7889349696843
20
-20.29230658819574
30
0.0
11
-18.044265727469345
21
-20.42788905679934
31
0.0
0
LINE
8
1
62
1
10
-18.044265727469345
20
-20.42788905679934
30
0.0
11
-18.324315598754975
21
-20.565931021179782
31
0.0
0
LINE
8
1
62
1
10
-18.324315598754975
20
-20.565931021179782
30
0.0
11
-18.629446909362592
21
-20.705054305339267
31
0.0
0
LINE
8
1
62
1
10
-18.629446909362592
20
-20.705054305339267
30
0.0
11
-18.9599610356277
21
-20.843861674440983
31
0.0
0
LINE
8
1
62
1
10
-18.9599610356277
20
-20.843861674440983
30
0.0
11
-19.316097601455873
21
-20.98093926642844
31
0.0
0
LINE
8
1
62
1
10
-19.316097601455873
20
-20.98093926642844
30
0.0
11
-19.69803376686601
21
-21.114859054219306
31
0.0
0
LINE
8
1
62
1
10
-19.69803376686601
20
-21.114859054219306
30
0.0
11
-20.10588360911879
21
-21.244181335159922
31
0.0
0
LINE
8
1
62
1
10
-20.10588360911879
20
-21.244181335159922
30
0.0
11
-21.244181335159915
21
-20.105883609118795
31
0.0
0
LINE
8
1
62
1
10
-21.244181335159915
20
-20.105883609118795
30
0.0
11
-21.114859054219302
21
-19.698033766866015
31
0.0
0
LINE
8
1
62
1
10
-21.114859054219302
20
-19.698033766866015
30
0.0
11
-20.980939266428436
21
-19.316097601455876
31
0.0
0
LINE
8
1
62
1
10
-20.980939266428436
20
-19.316097601455876
30
0.0
11
-20.84386167444098
21
-18.9599610356277
31
0.0
0
LINE
8
1
62
1
10
-20.84386167444098
20
-18.9599610356277
30
0.0
11
-20.705054305339264
21
-18.629446909362592
31
0.0
0
LINE
8
1
62
1
10
-20.705054305339264
20
-18.629446909362592
30
0.0
11
-20.56593102117978
21
-18.32431559875498
31
0.0
0
LINE
8
1
62
1
10
-20.56593102117978
20
-18.32431559875498
30
0.0
11
-20.42788905679934
21
-18.044265727469345
31
0.0
0
LINE
8
1
62
1
10
-20.42788905679934
20
-18.044265727469345
30
0.0
11
-20.292306588195736
21
-17.788934969684302
31
0.0
0
LINE
8
1
62
1
10
-20.292306588195736
20
-17.788934969684302
30
0.0
11
-20.16054033475498
21
-17.557900943310504
31
0.0
0
LINE
8
1
62
1
10
-20.16054033475498
20
-17.557900943310504
30
0.0
11
-20.03392319855122
21
-17.350682192155148
31
0.0
0
LINE
8
1
62
1
10
-20.03392319855122
20
-17.350682192155148
30
0.0
11
-19.913761943895786
21
-17.166739255593463
31
0.0
0
LINE
8
1
62
1
10
-19.913761943895786
20
-17.166739255593463
30
0.0
11
-19.801334920258125
21
-17.00547582419717
31
0.0
0
LINE
8
1
62
1
10
-19.801334920258125
20
-17.00547582419717
30
0.0
11
-19.69788983162407
21
-16.866239979661337
31
0.0
0
LINE
8
1
62
1
10
-19.69788983162407
20
-16.866239979661337
30
0.0
11
-19.604641555295963
21
-16.74832551726472
31
0.0
0
LINE
8
1
62
1
10
-19.604641555295963
20
-16.74832551726472
30
0.0
11
-19.522770013074144
21
-16.65097334899429
31
0.0
0
LINE
8
1
62
1
10
-19.522770013074144
20
-16.65097334899429
30
0.0
11
-19.453418097691593
21
-16.57337298536279
31
0.0
0
LINE
8
1
62
1
10
-19.453418097691593
20
-16.57337298536279
30
0.0
11
-19.39768965730129
21
-16.51466409384859
31
0.0
0
LINE
8
1
62
1
10
-19.39768965730129
20
-16.51466409384859
30
0.0
11
-19.356647540741317
21
-16.473938131790188
31
0.0
0
LINE
8
1
62
1
10
-19.356647540741317
20
-16.473938131790188
30
0.0
11
-19.33131170622386
21
-16.450240051473333
31
0.0
0
LINE
8
1
62
1
10
-19.33131170622386
20
-16.450240051473333
30
0.0
11
-19.322657396013145
21
-16.442570075057183
31
0.0
0
LINE
8
1
62
1
10
-19.322657396013145
20
-16.442570075057183
30
0.0
11
-18.50646825540403
21
-15.7480358366281
31
0.0
0
LINE
8
1
62
1
10
-18.50646825540403
20
-15.7480358366281
30
0.0
11
-20.00126097000864
21
-13.799984043817188
31
0.0
0
LINE
8
1
62
1
10
-20.00126097000864
20
-13.799984043817188
30
0.0
11
-20.883374822144802
21
-14.408603525486992
31
0.0
0
LINE
8
1
62
1
10
-20.883374822144802
20
-14.408603525486992
30
0.0
11
-20.89302335075695
21
-14.41497781125625
31
0.0
0
LINE
8
1
62
1
10
-20.89302335075695
20
-14.41497781125625
30
0.0
11
-20.922471335065154
21
-14.433316833628874
31
0.0
0
LINE
8
1
62
1
10
-20.922471335065154
20
-14.433316833628874
30
0.0
11
-20.972432075034867
21
-14.462419819368883
31
0.0
0
LINE
8
1
62
1
10
-20.972432075034867
20
-14.462419819368883
30
0.0
11
-21.043564091308113
21
-14.501054379959951
31
0.0
0
LINE
8
1
62
1
10
-21.043564091308113
20
-14.501054379959951
30
0.0
11
-21.136469883184546
21
-14.547958734115863
31
0.0
0
LINE
8
1
62
1
10
-21.136469883184546
20
-14.547958734115863
30
0.0
11
-21.251694771141114
21
-14.601843975955623
31
0.0
0
LINE
8
1
62
1
10
-21.251694771141114
20
-14.601843975955623
30
0.0
11
-21.38972582549969
21
-14.661396385756612
31
0.0
0
LINE
8
1
62
1
10
-21.38972582549969
20
-14.661396385756612
30
0.0
11
-21.550990882742834
21
-14.725279780144197
31
0.0
0
LINE
8
1
62
1
10
-21.550990882742834
20
-14.725279780144197
30
0.0
11
-21.735857650866123
21
-14.792137898524683
31
0.0
0
LINE
8
1
62
1
10
-21.735857650866123
20
-14.792137898524683
30
0.0
11
-21.94463290504275
21
-14.860596822521416
31
0.0
0
LINE
8
1
62
1
10
-21.94463290504275
20
-14.860596822521416
30
0.0
11
-22.177561774760946
21
-14.929267425130021
31
0.0
0
LINE
8
1
62
1
10
-22.177561774760946
20
-14.929267425130021
30
0.0
11
-22.434827123479224
21
-14.99674784626954
31
0.0
0
LINE
8
1
62
1
10
-22.434827123479224
20
-14.99674784626954
30
0.0
11
-22.71654902172638
21
-15.06162599137056
31
0.0
0
LINE
8
1
62
1
10
-22.71654902172638
20
-15.06162599137056
30
0.0
11
-23.022784314455123
21
-15.12248204961007
31
0.0
0
LINE
8
1
62
1
10
-23.022784314455123
20
-15.12248204961007
30
0.0
11
-23.353526283338137
21
-15.177891028375527
31
0.0
0
LINE
8
1
62
1
10
-23.353526283338137
20
-15.177891028375527
30
0.0
11
-23.70870440457507
21
-15.226425300517285
31
0.0
0
LINE
8
1
62
1
10
-23.70870440457507
20
-15.226425300517285
30
0.0
11
-24.088184202657548
21
-15.266657160929745
31
0.0
0
LINE
8
1
62
1
10
-24.088184202657548
20
-15.266657160929745
30
0.0
11
-24.491767200417378
21
-15.297161388986524
31
0.0
0
LINE
8
1
62
1
10
-24.491767200417378
20
-15.297161388986524
30
0.0
11
-24.91919096556079
21
-15.316517813344595
31
0.0
0
LINE
8
1
62
1
10
-24.91919096556079
20
-15.316517813344595
30
0.0
11
-25.7240890066537
21
-13.92239351125902
31
0.0
0
LINE
8
1
62
1
10
-25.7240890066537
20
-13.92239351125902
30
0.0
11
-25.493613968861474
21
-13.561911884642667
31
0.0
0
LINE
8
1
62
1
10
-25.493613968861474
20
-13.561911884642667
30
0.0
11
-25.26540503356155
21
-13.227650870075564
31
0.0
0
LINE
8
1
62
1
10
-25.26540503356155
20
-13.227650870075564
30
0.0
11
-25.04082332136161
21
-12.919127654919379
31
0.0
0
LINE
8
1
62
1
10
-25.04082332136161
20
-12.919127654919379
30
0.0
11
-24.821202348114195
21
-12.635801515130645
31
0.0
0
LINE
8
1
62
1
10
-24.821202348114195
20
-12.635801515130645
30
0.0
11
-24.607845780464054
21
-12.377075057363003
31
0.0
0
LINE
8
1
62
1
10
-24.607845780464054
20
-12.377075057363003
30
0.0
11
-24.40202524169008
21
-12.142295543444302
31
0.0
0
LINE
8
1
62
1
10
-24.40202524169008
20
-12.142295543444302
30
0.0
11
-24.204978170758604
21
-11.930756295310397
31
0.0
0
LINE
8
1
62
1
10
-24.204978170758604
20
-11.930756295310397
30
0.0
11
-24.017905737434567
21
-11.74169817837667
31
0.0
0
LINE
8
1
62
1
10
-24.017905737434567
20
-11.74169817837667
30
0.0
11
-23.84197081622323
21
-11.574311161230217
31
0.0
0
LINE
8
1
62
1
10
-23.84197081622323
20
-11.574311161230217
30
0.0
11
-23.678296021838
21
-11.427735949430073
31
0.0
0
LINE
8
1
62
1
10
-23.678296021838
20
-11.427735949430073
30
0.0
11
-23.52796180880963
21
-11.301065691110018
31
0.0
0
LINE
8
1
62
1
10
-23.52796180880963
20
-11.301065691110018
30
0.0
11
-23.39200463776843
21
-11.193347751988497
31
0.0
0
LINE
8
1
62
1
10
-23.39200463776843
20
-11.193347751988497
30
0.0
11
-23.2714152108449
21
-11.103585557303314
31
0.0
0
LINE
8
1
62
1
10
-23.2714152108449
20
-11.103585557303314
30
0.0
11
-23.167136778544315
21
-11.030740498104587
31
0.0
0
LINE
8
1
62
1
10
-23.167136778544315
20
-11.030740498104587
30
0.0
11
-23.08006352035898
21
-10.973733899258843
31
0.0
0
LINE
8
1
62
1
10
-23.08006352035898
20
-10.973733899258843
30
0.0
11
-23.01103900128644
21
-10.931449046439342
31
0.0
0
LINE
8
1
62
1
10
-23.01103900128644
20
-10.931449046439342
30
0.0
11
-22.96085470632476
21
-10.902733269303704
31
0.0
0
LINE
8
1
62
1
10
-22.96085470632476
20
-10.902733269303704
30
0.0
11
-22.930248654915392
21
-10.886400077988863
31
0.0
0
LINE
8
1
62
1
10
-22.930248654915392
20
-10.886400077988863
30
0.0
11
-22.919904097202163
21
-10.881231349986233
31
0.0
0
LINE
8
1
62
1
10
-22.919904097202163
20
-10.881231349986233
30
0.0
11
-21.951767238769914
21
-10.42160808584107
31
0.0
0
LINE
8
1
62
1
10
-21.951767238769914
20
-10.42160808584107
30
0.0
11
-22.891433221929674
21
-8.153053725196129
31
0.0
0
LINE
8
1
62
1
10
-22.891433221929674
20
-8.153053725196129
30
0.0
11
-23.901012086511898
21
-8.512627136042072
31
0.0
0
LINE
8
1
62
1
10
-23.901012086511898
20
-8.512627136042072
30
0.0
11
-23.91198163604007
21
-8.516287000328704
31
0.0
0
LINE
8
1
62
1
10
-23.91198163604007
20
-8.516287000328704
30
0.0
11
-23.945172692874117
21
-8.526379436488472
31
0.0
0
LINE
8
1
62
1
10
-23.945172692874117
20
-8.526379436488472
30
0.0
11
-24.00096346889024
21
-8.541559971025292
31
0.0
0
LINE
8
1
62
1
10
-24.00096346889024
20
-8.541559971025292
30
0.0
11
-24.07967108056471
21
-8.560467770359478
31
0.0
0
LINE
8
1
62
1
10
-24.07967108056471
20
-8.560467770359478
30
0.0
11
-24.181550924503778
21
-8.58172810906613
31
0.0
0
LINE
8
1
62
1
10
-24.181550924503778
20
-8.58172810906613
30
0.0
11
-24.306796146450377
21
-8.603954860342022
31
0.0
0
LINE
8
1
62
1
10
-24.306796146450377
20
-8.603954860342022
30
0.0
11
-24.455537204523488
21
-8.625753005302965
31
0.0
0
LINE
8
1
62
1
10
-24.455537204523488
20
-8.625753005302965
30
0.0
11
-24.627841527325923
21
-8.64572115768887
31
0.0
0
LINE
8
1
62
1
10
-24.627841527325923
20
-8.64572115768887
30
0.0
11
-24.823713267435394
21
-8.662454100532814
31
0.0
0
LINE
8
1
62
1
10
-24.823713267435394
20
-8.662454100532814
30
0.0
11
-25.04309315067224
21
-8.67454533133419
31
0.0
0
LINE
8
1
62
1
10
-25.04309315067224
20
-8.67454533133419
30
0.0
11
-25.285858421415146
21
-8.6805896122634
31
0.0
0
LINE
8
1
62
1
10
-25.285858421415146
20
-8.6805896122634
30
0.0
11
-25.551822884113832
21
-8.679185521917695
31
0.0
0
LINE
8
1
62
1
10
-25.551822884113832
20
-8.679185521917695
30
0.0
11
-25.840737041025015
21
-8.6689380051437
31
0.0
0
LINE
8
1
62
1
10
-25.840737041025015
20
-8.6689380051437
30
0.0
11
-26.152288326075155
21
-8.648460917442652
31
0.0
0
LINE
8
1
62
1
10
-26.152288326075155
20
-8.648460917442652
30
0.0
11
-26.48610143463113
21
-8.61637956047888
31
0.0
0
LINE
8
1
62
1
10
-26.48610143463113
20
-8.61637956047888
30
0.0
11
-26.84173874883719
21
-8.571333205220895
31
0.0
0
LINE
8
1
62
1
10
-26.84173874883719
20
-8.571333205220895
30
0.0
11
-27.218700858054667
21
-8.511977599257541
31
0.0
0
LINE
8
1
62
1
10
-27.218700858054667
20
-8.511977599257541
30
0.0
11
-27.6164271738193
21
-8.436987454848786
31
0.0
0
LINE
8
1
62
1
10
-27.6164271738193
20
-8.436987454848786
30
0.0
11
-28.03429663860999
21
-8.345058914292313
31
0.0
0
LINE
8
1
62
1
10
-28.03429663860999
20
-8.345058914292313
30
0.0
11
-28.4509425234111
21
-6.790115303450079
31
0.0
0
LINE
8
1
62
1
10
-28.4509425234111
20
-6.790115303450079
30
0.0
11
-28.135021221714794
21
-6.501568119600002
31
0.0
0
LINE
8
1
62
1
10
-28.135021221714794
20
-6.501568119600002
30
0.0
11
-27.82807520071341
21
-6.2377615916262386
31
0.0
0
LINE
8
1
62
1
10
-27.82807520071341
20
-6.2377615916262386
30
0.0
11
-27.531294240848588
21
-5.997877074396216
31
0.0
0
LINE
8
1
62
1
10
-27.531294240848588
20
-5.997877074396216
30
0.0
11
-27.245826469841465
21
-5.781047129291875
31
0.0
0
LINE
8
1
62
1
10
-27.245826469841465
20
-5.781047129291875
30
0.0
11
-26.97277651619762
21
-5.586357304895382
31
0.0
0
LINE
8
1
62
1
10
-26.97277651619762
20
-5.586357304895382
30
0.0
11
-26.71320373261304
21
-5.4128479842256825
31
0.0
0
LINE
8
1
62
1
10
-26.71320373261304
20
-5.4128479842256825
30
0.0
11
-26.46812049160199
21
-5.259516295918105
31
0.0
0
LINE
8
1
62
1
10
-26.46812049160199
20
-5.259516295918105
30
0.0
11
-26.238490555573897
21
-5.12531808666017
31
0.0
0
LINE
8
1
62
1
10
-26.238490555573897
20
-5.12531808666017
30
0.0
11
-26.02522752348933
21
-5.009169952121026
31
0.0
0
LINE
8
1
62
1
10
-26.02522752348933
20
-5.009169952121026
30
0.0
11
-25.829193356126268
21
-4.909951323539613
31
0.0
0
LINE
8
1
62
1
10
-25.829193356126268
20
-4.909951323539613
30
0.0
11
-25.651196981886034
21
-4.826506607067809
31
0.0
0
LINE
8
1
62
1
10
-25.651196981886034
20
-4.826506607067809
30
0.0
11
-25.491992984964295
21
-4.75764737289942
31
0.0
0
LINE
8
1
62
1
10
-25.491992984964295
20
-4.75764737289942
30
0.0
11
-25.352280377606736
21
-4.702154591154421
31
0.0
0
LINE
8
1
62
1
10
-25.352280377606736
20
-4.702154591154421
30
0.0
11
-25.232701458060415
21
-4.65878091142964
31
0.0
0
LINE
8
1
62
1
10
-25.232701458060415
20
-4.65878091142964
30
0.0
11
-25.133840755722265
21
-4.626252982873129
31
0.0
0
LINE
8
1
62
1
10
-25.133840755722265
20
-4.626252982873129
30
0.0
11
-25.056224064873874
21
-4.603273811588956
31
0.0
0
LINE
8
1
62
1
10
-25.056224064873874
20
-4.603273811588956
30
0.0
11
-25.000317568278653
21
-4.588525152132807
31
0.0
0
LINE
8
1
62
1
10
-25.000317568278653
20
-4.588525152132807
30
0.0
11
-24.966527051802036
21
-4.580669929816215
31
0.0
0
LINE
8
1
62
1
10
-24.966527051802036
20
-4.580669929816215
30
0.0
11
-24.95519721109925
21
-4.578354690498757
31
0.0
0
LINE
8
1
62
1
10
-24.95519721109925
20
-4.578354690498757
30
0.0
11
-23.90108956182422
21
-4.38496496652565
31
0.0
0
LINE
8
1
62
1
10
-23.90108956182422
20
-4.38496496652565
30
0.0
11
-24.22159212965826
21
-1.9505062687612758
31
0.0
0
LINE
8
1
62
1
10
-24.22159212965826
20
-1.9505062687612758
30
0.0
11
-25.289834875473225
21
-2.036529275057363
31
0.0
0
LINE
8
1
62
1
10
-25.289834875473225
20
-2.036529275057363
30
0.0
11
-25.301377889245114
21
-2.037225304158448
31
0.0
0
LINE
8
1
62
1
10
-25.301377889245114
20
-2.037225304158448
30
0.0
11
-25.336050102932578
21
-2.03838337125961
31
0.0
0
LINE
8
1
62
1
10
-25.336050102932578
20
-2.03838337125961
30
0.0
11
-25.393868865808226
21
-2.0386069262515756
31
0.0
0
LINE
8
1
62
1
10
-25.393868865808226
20
-2.0386069262515756
30
0.0
11
-25.474788279218796
21
-2.03649942905087
31
0.0
0
LINE
8
1
62
1
10
-25.474788279218796
20
-2.03649942905087
30
0.0
11
-25.57869923222045
21
-2.0306668953597753
31
0.0
0
LINE
8
1
62
1
10
-25.57869923222045
20
-2.0306668953597753
30
0.0
11
-25.705429533258936
21
-2.0197204397037893
31
0.0
0
LINE
8
1
62
1
10
-25.705429533258936
20
-2.0197204397037893
30
0.0
11
-25.85474413774511
21
-2.0022788122687385
31
0.0
0
LINE
8
1
62
1
10
-25.85474413774511
20
-2.0022788122687385
30
0.0
11
-26.026345471254217
21
-1.9769709260667956
31
0.0
0
LINE
8
1
62
1
10
-26.026345471254217
20
-1.9769709260667956
30
0.0
11
-26.21987384795476
21
-1.9424383709718778
31
0.0
0
LINE
8
1
62
1
10
-26.21987384795476
20
-1.9424383709718778
30
0.0
11
-26.434907983751636
21
-1.8973379111804856
31
0.0
0
LINE
8
1
62
1
10
-26.434907983751636
20
-1.8973379111804856
30
0.0
11
-26.670965603506694
21
-1.8403439626736238
31
0.0
0
LINE
8
1
62
1
10
-26.670965603506694
20
-1.8403439626736238
30
0.0
11
-26.92750414157994
21
-1.7701510472793838
31
0.0
0
LINE
8
1
62
1
10
-26.92750414157994
20
-1.7701510472793838
30
0.0
11
-27.203921534814864
21
-1.6854762199636997
31
0.0
0
LINE
8
1
62
1
10
-27.203921534814864
20
-1.6854762199636997
30
0.0
11
-27.49955710697307
21
-1.5850614660089297
31
0.0
0
LINE
8
1
62
1
10
-27.49955710697307
20
-1.5850614660089297
30
0.0
11
-27.81369254350617
21
-1.4676760647760612
31
0.0
0
LINE
8
1
62
1
10
-27.81369254350617
20
-1.4676760647760612
30
0.0
11
-28.145552955436663
21
-1.332118916786546
31
0.0
0
LINE
8
1
62
1
10
-28.145552955436663
20
-1.332118916786546
30
0.0
11
-28.494308031005307
21
-1.1772208309040058
31
0.0
0
LINE
8
1
62
1
10
-28.494308031005307
20
-1.1772208309040058
30
0.0
11
-28.859073273629193
21
-1.0018467684440946
31
0.0
0
LINE
8
1
62
1
10
-28.859073273629193
20
-1.0018467684440946
30
0.0
11
-29.238911324603617
21
-0.8048980410929094
31
0.0
0
LINE
8
1
62
1
10
-29.238911324603617
20
-0.8048980410929094
30
0.0
11
-29.23891132460362
21
0.8048980410929016
31
0.0
0
LINE
8
1
62
1
10
-29.23891132460362
20
0.8048980410929016
30
0.0
11
-28.859073273629196
21
1.0018467684440873
31
0.0
0
LINE
8
1
62
1
10
-28.859073273629196
20
1.0018467684440873
30
0.0
11
-28.49430803100531
21
1.1772208309039984
31
0.0
0
LINE
8
1
62
1
10
-28.49430803100531
20
1.1772208309039984
30
0.0
11
-28.145552955436667
21
1.3321189167865386
31
0.0
0
LINE
8
1
62
1
10
-28.145552955436667
20
1.3321189167865386
30
0.0
11
-27.813692543506175
21
1.4676760647760538
31
0.0
0
LINE
8
1
62
1
10
-27.813692543506175
20
1.4676760647760538
30
0.0
11
-27.499557106973075
21
1.585061466008923
31
0.0
0
LINE
8
1
62
1
10
-27.499557106973075
20
1.585061466008923
30
0.0
11
-27.203921534814867
21
1.685476219963693
31
0.0
0
LINE
8
1
62
1
10
-27.203921534814867
20
1.685476219963693
30
0.0
11
-26.92750414157994
21
1.770151047279377
31
0.0
0
LINE
8
1
62
1
10
-26.92750414157994
20
1.770151047279377
30
0.0
11
-26.670965603506694
21
1.840343962673617
31
0.0
0
LINE
8
1
62
1
10
-26.670965603506694
20
1.840343962673617
30
0.0
11
-26.43490798375164
21
1.897337911180479
31
0.0
0
LINE
8
1
62
1
10
-26.43490798375164
20
1.897337911180479
30
0.0
11
-26.21987384795476
21
1.942438370971871
31
0.0
0
LINE
8
1
62
1
10
-26.21987384795476
20
1.942438370971871
30
0.0
11
-26.02634547125422
21
1.976970926066789
31
0.0
0
LINE
8
1
62
1
10
-26.02634547125422
20
1.976970926066789
30
0.0
11
-25.854744137745115
21
2.002278812268732
31
0.0
0
LINE
8
1
62
1
10
-25.854744137745115
20
2.002278812268732
30
0.0
11
-25.70542953325894
21
2.0197204397037827
31
0.0
0
LINE
8
1
62
1
10
-25.70542953325894
20
2.0197204397037827
30
0.0
11
-25.578699232220455
21
2.030666895359769
31
0.0
0
LINE
8
1
62
1
10
-25.578699232220455
20
2.030666895359769
30
0.0
11
-25.4747882792188
21
2.036499429050864
31
0.0
0
LINE
8
1
62
1
10
-25.4747882792188
20
2.036499429050864
30
0.0
11
-25.393868865808226
21
2.0386069262515694
31
0.0
0
LINE
8
1
62
1
10
-25.393868865808226
20
2.0386069262515694
30
0.0
11
-25.33605010293258
21
2.0383833712596036
31
0.0
0
LINE
8
1
62
1
10
-25.33605010293258
20
2.0383833712596036
30
0.0
11
-25.301377889245117
21
2.037225304158442
31
0.0
0
LINE
8
1
62
1
10
-25.301377889245117
20
2.037225304158442
30
0.0
11
-25.28983487547323
21
2.0365292750573567
31
0.0
0
LINE
8
1
62
1
10
-25.28983487547323
20
2.0365292750573567
30
0.0
11
-24.221592129658262
21
1.9505062687612698
31
0.0
0
LINE
8
1
62
1
10
-24.221592129658262
20
1.9505062687612698
30
0.0
11
-23.90108956182422
21
4.3849649665256445
31
0.0
0
LINE
8
1
62
1
10
-23.90108956182422
20
4.3849649665256445
30
0.0
11
-24.95519721109925
21
4.578354690498751
31
0.0
0
LINE
8
1
62
1
10
-24.95519721109925
20
4.578354690498751
30
0.0
11
-24.966527051802036
21
4.580669929816209
31
0.0
0
LINE
8
1
62
1
10
-24.966527051802036
20
4.580669929816209
30
0.0
11
-25.000317568278653
21
4.588525152132801
31
0.0
0
LINE
8
1
62
1
10
-25.000317568278653
20
4.588525152132801
30
0.0
11
-25.056224064873874
21
4.60327381158895
31
0.0
0
LINE
8
1
62
1
10
-25.056224064873874
20
4.60327381158895
30
0.0
11
-25.133840755722265
21
4.626252982873123
31
0.0
0
LINE
8
1
62
1
10
-25.133840755722265
20
4.626252982873123
30
0.0
11
-25.232701458060415
21
4.658780911429634
31
0.0
0
LINE
8
1
62
1
10
-25.232701458060415
20
4.658780911429634
30
0.0
11
-25.352280377606736
21
4.702154591154415
31
0.0
0
LINE
8
1
62
1
10
-25.352280377606736
20
4.702154591154415
30
0.0
11
-25.491992984964295
21
4.757647372899415
31
0.0
0
LINE
8
1
62
1
10
-25.491992984964295
20
4.757647372899415
30
0.0
11
-25.651196981886034
21
4.826506607067802
31
0.0
0
LINE
8
1
62
1
10
-25.651196981886034
20
4.826506607067802
30
0.0
11
-25.829193356126268
21
4.909951323539608
31
0.0
0
LINE
8
1
62
1
10
-25.829193356126268
20
4.909951323539608
30
0.0
11
-26.02522752348933
21
5.009169952121019
31
0.0
0
LINE
8
1
62
1
10
-26.02522752348933
20
5.009169952121019
30
0.0
11
-26.238490555573897
21
5.125318086660164
31
0.0
0
LINE
8
1
62
1
10
-26.238490555573897
20
5.125318086660164
30
0.0
11
-26.46812049160199
21
5.2595162959180985
31
0.0
0
LINE
8
1
62
1
10
-26.46812049160199
20
5.2595162959180985
30
0.0
11
-26.71320373261304
21
5.412847984225676
31
0.0
0
LINE
8
1
62
1
10
-26.71320373261304
20
5.412847984225676
30
0.0
11
-26.97277651619762
21
5.586357304895376
31
0.0
0
LINE
8
1
62
1
10
-26.97277651619762
20
5.586357304895376
30
0.0
11
-27.245826469841465
21
5.781047129291869
31
0.0
0
LINE
8
1
62
1
10
-27.245826469841465
20
5.781047129291869
30
0.0
11
-27.531294240848588
21
5.997877074396211
31
0.0
0
LINE
8
1
62
1
10
-27.531294240848588
20
5.997877074396211
30
0.0
11
-27.82807520071341
21
6.237761591626232
31
0.0
0
LINE
8
1
62
1
10
-27.82807520071341
20
6.237761591626232
30
0.0
11
-28.135021221714794
21
6.5015681195999955
31
0.0
0
LINE
8
1
62
1
10
-28.135021221714794
20
6.5015681195999955
30
0.0
11
-28.4509425234111
21
6.790115303450072
31
0.0
0
LINE
8
1
62
1
10
-28.4509425234111
20
6.790115303450072
30
0.0
11
-28.034296638609987
21
8.345058914292308
31
0.0
0
LINE
8
1
62
1
10
-28.034296638609987
20
8.345058914292308
30
0.0
11
-27.6164271738193
21
8.43698745484878
31
0.0
0
LINE
8
1
62
1
10
-27.6164271738193
20
8.43698745484878
30
0.0
11
-27.218700858054667
21
8.511977599257536
31
0.0
0
LINE
8
1
62
1
10
-27.218700858054667
20
8.511977599257536
30
0.0
11
-26.84173874883719
21
8.57133320522089
31
0.0
0
LINE
8
1
62
1
10
-26.84173874883719
20
8.57133320522089
30
0.0
11
-26.48610143463113
21
8.616379560478872
31
0.0
0
LINE
8
1
62
1
10
-26.48610143463113
20
8.616379560478872
30
0.0
11
-26.152288326075155
21
8.648460917442646
31
0.0
0
LINE
8
1
62
1
10
-26.152288326075155
20
8.648460917442646
30
0.0
11
-25.840737041025015
21
8.668938005143694
31
0.0
0
LINE
8
1
62
1
10
-25.840737041025015
20
8.668938005143694
30
0.0
11
-25.551822884113832
21
8.67918552191769
31
0.0
0
LINE
8
1
62
1
10
-25.551822884113832
20
8.67918552191769
30
0.0
11
-25.285858421415146
21
8.680589612263395
31
0.0
0
LINE
8
1
62
1
10
-25.285858421415146
20
8.680589612263395
30
0.0
11
-25.04309315067224
21
8.674545331334183
31
0.0
0
LINE
8
1
62
1
10
-25.04309315067224
20
8.674545331334183
30
0.0
11
-24.823713267435394
21
8.662454100532807
31
0.0
0
LINE
8
1
62
1
10
-24.823713267435394
20
8.662454100532807
30
0.0
11
-24.627841527325923
21
8.645721157688863
31
0.0
0
LINE
8
1
62
1
10
-24.627841527325923
20
8.645721157688863
30
0.0
11
-24.455537204523488
21
8.62575300530296
31
0.0
0
LINE
8
1
62
1
10
-24.455537204523488
20
8.62575300530296
30
0.0
11
-24.306796146450377
21
8.603954860342016
31
0.0
0
LINE
8
1
62
1
10
-24.306796146450377
20
8.603954860342016
30
0.0
11
-24.181550924503778
21
8.581728109066125
31
0.0
0
LINE
8
1
62
1
10
-24.181550924503778
20
8.581728109066125
30
0.0
11
-24.07967108056471
21
8.560467770359473
31
0.0
0
LINE
8
1
62
1
10
-24.07967108056471
20
8.560467770359473
30
0.0
11
-24.00096346889024
21
8.541559971025286
31
0.0
0
LINE
8
1
62
1
10
-24.00096346889024
20
8.541559971025286
30
0.0
11
-23.945172692874117
21
8.526379436488467
31
0.0
0
LINE
8
1
62
1
10
-23.945172692874117
20
8.526379436488467
30
0.0
11
-23.91198163604007
21
8.516287000328699
31
0.0
0
LINE
8
1
62
1
10
-23.91198163604007
20
8.516287000328699
30
0.0
11
-23.901012086511898
21
8.512627136042067
31
0.0
0
LINE
8
1
62
1
10
-23.901012086511898
20
8.512627136042067
30
0.0
11
-22.891433221929674
21
8.153053725196123
31
0.0
0
LINE
8
1
62
1
10
-22.891433221929674
20
8.153053725196123
30
0.0
11
-21.951767238769918
21
10.421608085841065
31
0.0
0
LINE
8
1
62
1
10
-21.951767238769918
20
10.421608085841065
30
0.0
11
-22.919904097202163
21
10.881231349986226
31
0.0
0
LINE
8
1
62
1
10
-22.919904097202163
20
10.881231349986226
30
0.0
11
-22.930248654915395
21
10.886400077988858
31
0.0
0
LINE
8
1
62
1
10
-22.930248654915395
20
10.886400077988858
30
0.0
11
-22.960854706324763
21
10.902733269303697
31
0.0
0
LINE
8
1
62
1
10
-22.960854706324763
20
10.902733269303697
30
0.0
11
-23.011039001286445
21
10.931449046439337
31
0.0
0
LINE
8
1
62
1
10
-23.011039001286445
20
10.931449046439337
30
0.0
11
-23.080063520358983
21
10.973733899258836
31
0.0
0
LINE
8
1
62
1
10
-23.080063520358983
20
10.973733899258836
30
0.0
11
-23.167136778544318
21
11.030740498104581
31
0.0
0
LINE
8
1
62
1
10
-23.167136778544318
20
11.030740498104581
30
0.0
11
-23.271415210844903
21
11.103585557303306
31
0.0
0
LINE
8
1
62
1
10
-23.271415210844903
20
11.103585557303306
30
0.0
11
-23.39200463776843
21
11.193347751988492
31
0.0
0
LINE
8
1
62
1
10
-23.39200463776843
20
11.193347751988492
30
0.0
11
-23.52796180880963
21
11.301065691110013
31
0.0
0
LINE
8
1
62
1
10
-23.52796180880963
20
11.301065691110013
30
0.0
11
-23.678296021838005
21
11.427735949430067
31
0.0
0
LINE
8
1
62
1
10
-23.678296021838005
20
11.427735949430067
30
0.0
11
-23.841970816223235
21
11.57431116123021
31
0.0
0
LINE
8
1
62
1
10
-23.841970816223235
20
11.57431116123021
30
0.0
11
-24.01790573743457
21
11.741698178376662
31
0.0
0
LINE
8
1
62
1
10
-24.01790573743457
20
11.741698178376662
30
0.0
11
-24.204978170758608
21
11.930756295310392
31
0.0
0
LINE
8
1
62
1
10
-24.204978170758608
20
11.930756295310392
30
0.0
11
-24.402025241690083
21
12.142295543444295
31
0.0
0
LINE
8
1
62
1
10
-24.402025241690083
20
12.142295543444295
30
0.0
11
-24.607845780464057
21
12.377075057362996
31
0.0
0
LINE
8
1
62
1
10
-24.607845780464057
20
12.377075057362996
30
0.0
11
-24.8212023481142
21
12.63580151513064
31
0.0
0
LINE
8
1
62
1
10
-24.8212023481142
20
12.63580151513064
30
0.0
11
-25.040823321361614
21
12.919127654919372
31
0.0
0
LINE
8
1
62
1
10
-25.040823321361614
20
12.919127654919372
30
0.0
11
-25.265405033561553
21
13.227650870075557
31
0.0
0
LINE
8
1
62
1
10
-25.265405033561553
20
13.227650870075557
30
0.0
11
-25.493613968861478
21
13.561911884642662
31
0.0
0
LINE
8
1
62
1
10
-25.493613968861478
20
13.561911884642662
30
0.0
11
-25.724089006653703
21
13.922393511259015
31
0.0
0
LINE
8
1
62
1
10
-25.724089006653703
20
13.922393511259015
30
0.0
11
-24.919190965560798
21
15.316517813344591
31
0.0
0
LINE
8
1
62
1
10
-24.919190965560798
20
15.316517813344591
30
0.0
11
-24.491767200417385
21
15.29716138898652
31
0.0
0
LINE
8
1
62
1
10
-24.491767200417385
20
15.29716138898652
30
0.0
11
-24.088184202657555
21
15.266657160929741
31
0.0
0
LINE
8
1
62
1
10
-24.088184202657555
20
15.266657160929741
30
0.0
11
-23.708704404575077
21
15.226425300517281
31
0.0
0
LINE
8
1
62
1
10
-23.708704404575077
20
15.226425300517281
30
0.0
11
-23.353526283338145
21
15.177891028375523
31
0.0
0
LINE
8
1
62
1
10
-23.353526283338145
20
15.177891028375523
30
0.0
11
-23.02278431445513
21
15.122482049610067
31
0.0
0
LINE
8
1
62
1
10
-23.02278431445513
20
15.122482049610067
30
0.0
11
-22.716549021726387
21
15.061625991370557
31
0.0
0
LINE
8
1
62
1
10
-22.716549021726387
20
15.061625991370557
30
0.0
11
-22.434827123479227
21
14.996747846269539
31
0.0
0
LINE
8
1
62
1
10
-22.434827123479227
20
14.996747846269539
30
0.0
11
-22.177561774760953
21
14.929267425130018
31
0.0
0
LINE
8
1
62
1
10
-22.177561774760953
20
14.929267425130018
30
0.0
11
-21.944632905042752
21
14.860596822521412
31
0.0
0
LINE
8
1
62
1
10
-21.944632905042752
20
14.860596822521412
30
0.0
11
-21.73585765086613
21
14.792137898524679
31
0.0
0
LINE
8
1
62
1
10
-21.73585765086613
20
14.792137898524679
30
0.0
11
-21.550990882742838
21
14.725279780144193
31
0.0
0
LINE
8
1
62
1
10
-21.550990882742838
20
14.725279780144193
30
0.0
11
-21.389725825499696
21
14.661396385756609
31
0.0
0
LINE
8
1
62
1
10
-21.389725825499696
20
14.661396385756609
30
0.0
11
-21.251694771141118
21
14.60184397595562
31
0.0
0
LINE
8
1
62
1
10
-21.251694771141118
20
14.60184397595562
30
0.0
11
-21.13646988318455
21
14.547958734115861
31
0.0
0
LINE
8
1
62
1
10
-21.13646988318455
20
14.547958734115861
30
0.0
11
-21.043564091308117
21
14.50105437995995
31
0.0
0
LINE
8
1
62
1
10
-21.043564091308117
20
14.50105437995995
30
0.0
11
-20.972432075034874
21
14.46241981936888
31
0.0
0
LINE
8
1
62
1
10
-20.972432075034874
20
14.46241981936888
30
0.0
11
-20.922471335065158
21
14.433316833628872
31
0.0
0
LINE
8
1
62
1
10
-20.922471335065158
20
14.433316833628872
30
0.0
11
-20.893023350756955
21
14.414977811256247
31
0.0
0
LINE
8
1
62
1
10
-20.893023350756955
20
14.414977811256247
30
0.0
11
-20.883374822144805
21
14.408603525486988
31
0.0
0
LINE
8
1
62
1
10
-20.883374822144805
20
14.408603525486988
30
0.0
11
-20.001260970008644
21
13.799984043817187
31
0.0
0
LINE
8
1
62
1
10
-20.001260970008644
20
13.799984043817187
30
0.0
11
-18.50646825540404
21
15.74803583662809
31
0.0
0
LINE
8
1
62
1
10
-18.50646825540404
20
15.74803583662809
30
0.0
11
-19.32265739601316
21
16.442570075057173
31
0.0
0
LINE
8
1
62
1
10
-19.32265739601316
20
16.442570075057173
30
0.0
11
-19.33131170622387
21
16.450240051473322
31
0.0
0
LINE
8
1
62
1
10
-19.33131170622387
20
16.450240051473322
30
0.0
11
-19.356647540741328
21
16.473938131790177
31
0.0
0
LINE
8
1
62
1
10
-19.356647540741328
20
16.473938131790177
30
0.0
11
-19.3976896573013
21
16.51466409384858
31
0.0
0
LINE
8
1
62
1
10
-19.3976896573013
20
16.51466409384858
30
0.0
11
-19.453418097691603
21
16.57337298536278
31
0.0
0
LINE
8
1
62
1
10
-19.453418097691603
20
16.57337298536278
30
0.0
11
-19.522770013074158
21
16.650973348994278
31
0.0
0
LINE
8
1
62
1
10
-19.522770013074158
20
16.650973348994278
30
0.0
11
-19.604641555295977
21
16.74832551726471
31
0.0
0
LINE
8
1
62
1
10
-19.604641555295977
20
16.74832551726471
30
0.0
11
-19.69788983162408
21
16.866239979661326
31
0.0
0
LINE
8
1
62
1
10
-19.69788983162408
20
16.866239979661326
30
0.0
11
-19.801334920258135
21
17.00547582419716
31
0.0
0
LINE
8
1
62
1
10
-19.801334920258135
20
17.00547582419716
30
0.0
11
-19.9137619438958
21
17.166739255593452
31
0.0
0
LINE
8
1
62
1
10
-19.9137619438958
20
17.166739255593452
30
0.0
11
-20.033923198551232
21
17.350682192155137
31
0.0
0
LINE
8
1
62
1
10
-20.033923198551232
20
17.350682192155137
30
0.0
11
-20.16054033475499
21
17.55790094331049
31
0.0
0
LINE
8
1
62
1
10
-20.16054033475499
20
17.55790094331049
30
0.0
11
-20.29230658819575
21
17.78893496968429
31
0.0
0
LINE
8
1
62
1
10
-20.29230658819575
20
17.78893496968429
30
0.0
11
-20.42788905679935
21
18.044265727469334
31
0.0
0
LINE
8
1
62
1
10
-20.42788905679935
20
18.044265727469334
30
0.0
11
-20.56593102117979
21
18.324315598754968
31
0.0
0
LINE
8
1
62
1
10
-20.56593102117979
20
18.324315598754968
30
0.0
11
-20.705054305339274
21
18.62944690936258
31
0.0
0
LINE
8
1
62
1
10
-20.705054305339274
20
18.62944690936258
30
0.0
11
-20.843861674440994
21
18.95996103562769
31
0.0
0
LINE
8
1
62
1
10
-20.843861674440994
20
18.95996103562769
30
0.0
11
-20.980939266428447
21
19.316097601455866
31
0.0
0
LINE
8
1
62
1
10
-20.980939266428447
20
19.316097601455866
30
0.0
11
-21.11485905421932
21
19.698033766866004
31
0.0
0
LINE
8
1
62
1
10
-21.11485905421932
20
19.698033766866004
30
0.0
11
-21.244181335159933
21
20.105883609118784
31
0.0
0
LINE
8
1
62
1
10
-21.244181335159933
20
20.105883609118784
30
0.0
11
-20.1058836091188
21
21.244181335159915
31
0.0
0
LINE
8
1
62
1
10
-20.1058836091188
20
21.244181335159915
30
0.0
11
-19.69803376686602
21
21.114859054219302
31
0.0
0
LINE
8
1
62
1
10
-19.69803376686602
20
21.114859054219302
30
0.0
11
-19.31609760145588
21
20.980939266428436
31
0.0
0
LINE
8
1
62
1
10
-19.31609760145588
20
20.980939266428436
30
0.0
11
-18.959961035627703
21
20.84386167444098
31
0.0
0
LINE
8
1
62
1
10
-18.959961035627703
20
20.84386167444098
30
0.0
11
-18.629446909362596
21
20.705054305339264
31
0.0
0
LINE
8
1
62
1
10
-18.629446909362596
20
20.705054305339264
30
0.0
11
-18.324315598754982
21
20.56593102117978
31
0.0
0
LINE
8
1
62
1
10
-18.324315598754982
20
20.56593102117978
30
0.0
11
-18.044265727469348
21
20.42788905679934
31
0.0
0
LINE
8
1
62
1
10
-18.044265727469348
20
20.42788905679934
30
0.0
11
-17.788934969684306
21
20.292306588195736
31
0.0
0
LINE
8
1
62
1
10
-17.788934969684306
20
20.292306588195736
30
0.0
11
-17.557900943310507
21
20.16054033475498
31
0.0
0
LINE
8
1
62
1
10
-17.557900943310507
20
20.16054033475498
30
0.0
11
-17.35068219215515
21
20.03392319855122
31
0.0
0
LINE
8
1
62
1
10
-17.35068219215515
20
20.03392319855122
30
0.0
11
-17.166739255593466
21
19.913761943895786
31
0.0
0
LINE
8
1
62
1
10
-17.166739255593466
20
19.913761943895786
30
0.0
11
-17.005475824197173
21
19.801334920258125
31
0.0
0
LINE
8
1
62
1
10
-17.005475824197173
20
19.801334920258125
30
0.0
11
-16.86623997966134
21
19.69788983162407
31
0.0
0
LINE
8
1
62
1
10
-16.86623997966134
20
19.69788983162407
30
0.0
11
-16.748325517264725
21
19.604641555295963
31
0.0
0
LINE
8
1
62
1
10
-16.748325517264725
20
19.604641555295963
30
0.0
11
-16.65097334899429
21
19.522770013074144
31
0.0
0
LINE
8
1
62
1
10
-16.65097334899429
20
19.522770013074144
30
0.0
11
-16.573372985362795
21
19.453418097691593
31
0.0
0
LINE
8
1
62
1
10
-16.573372985362795
20
19.453418097691593
30
0.0
11
-16.514664093848594
21
19.39768965730129
31
0.0
0
LINE
8
1
62
1
10
-16.514664093848594
20
19.39768965730129
30
0.0
11
-16.47393813179019
21
19.356647540741317
31
0.0
0
LINE
8
1
62
1
10
-16.47393813179019
20
19.356647540741317
30
0.0
11
-16.450240051473337
21
19.33131170622386
31
0.0
0
LINE
8
1
62
1
10
-16.450240051473337
20
19.33131170622386
30
0.0
11
-16.442570075057187
21
19.322657396013145
31
0.0
0
LINE
8
1
62
1
10
-16.442570075057187
20
19.322657396013145
30
0.0
11
-15.748035836628102
21
18.50646825540403
31
0.0
0
LINE
8
1
62
1
10
-15.748035836628102
20
18.50646825540403
30
0.0
11
-13.799984043817219
21
20.001260970008623
31
0.0
0
LINE
8
1
62
1
10
-13.799984043817219
20
20.001260970008623
30
0.0
11
-14.408603525487022
21
20.88337482214478
31
0.0
0
LINE
8
1
62
1
10
-14.408603525487022
20
20.88337482214478
30
0.0
11
-14.41497781125628
21
20.89302335075693
31
0.0
0
LINE
8
1
62
1
10
-14.41497781125628
20
20.89302335075693
30
0.0
11
-14.433316833628906
21
20.922471335065133
31
0.0
0
LINE
8
1
62
1
10
-14.433316833628906
20
20.922471335065133
30
0.0
11
-14.462419819368915
21
20.97243207503485
31
0.0
0
LINE
8
1
62
1
10
-14.462419819368915
20
20.97243207503485
30
0.0
11
-14.501054379959983
21
21.04356409130809
31
0.0
0
LINE
8
1
62
1
10
-14.501054379959983
20
21.04356409130809
30
0.0
11
-14.547958734115895
21
21.136469883184525
31
0.0
0
LINE
8
1
62
1
10
-14.547958734115895
20
21.136469883184525
30
0.0
11
-14.601843975955653
21
21.251694771141093
31
0.0
0
LINE
8
1
62
1
10
-14.601843975955653
20
21.251694771141093
30
0.0
11
-14.661396385756644
21
21.38972582549967
31
0.0
0
LINE
8
1
62
1
10
-14.661396385756644
20
21.38972582549967
30
0.0
11
-14.725279780144229
21
21.550990882742813
31
0.0
0
LINE
8
1
62
1
10
-14.725279780144229
20
21.550990882742813
30
0.0
11
-14.792137898524715
21
21.735857650866105
31
0.0
0
LINE
8
1
62
1
10
-14.792137898524715
20
21.735857650866105
30
0.0
11
-14.860596822521448
21
21.94463290504273
31
0.0
0
LINE
8
1
62
1
10
-14.860596822521448
20
21.94463290504273
30
0.0
11
-14.929267425130053
21
22.177561774760928
31
0.0
0
LINE
8
1
62
1
10
-14.929267425130053
20
22.177561774760928
30
0.0
11
-14.996747846269574
21
22.434827123479202
31
0.0
0
LINE
8
1
62
1
10
-14.996747846269574
20
22.434827123479202
30
0.0
11
-15.061625991370592
21
22.71654902172636
31
0.0
0
LINE
8
1
62
1
10
-15.061625991370592
20
22.71654902172636
30
0.0
11
-15.122482049610104
21
23.022784314455105
31
0.0
0
LINE
8
1
62
1
10
-15.122482049610104
20
23.022784314455105
30
0.0
11
-15.17789102837556
21
23.353526283338116
31
0.0
0
LINE
8
1
62
1
10
-15.17789102837556
20
23.353526283338116
30
0.0
11
-15.226425300517322
21
23.708704404575048
31
0.0
0
LINE
8
1
62
1
10
-15.226425300517322
20
23.708704404575048
30
0.0
11
-15.26665716092978
21
24.088184202657526
31
0.0
0
LINE
8
1
62
1
10
-15.26665716092978
20
24.088184202657526
30
0.0
11
-15.29716138898656
21
24.491767200417357
31
0.0
0
LINE
8
1
62
1
10
-15.29716138898656
20
24.491767200417357
30
0.0
11
-15.316517813344632
21
24.919190965560773
31
0.0
0
LINE
8
1
62
1
10
-15.316517813344632
20
24.919190965560773
30
0.0
11
-13.922393511259012
21
25.724089006653703
31
0.0
0
LINE
8
1
62
1
10
-13.922393511259012
20
25.724089006653703
30
0.0
11
-13.561911884642658
21
25.493613968861478
31
0.0
0
LINE
8
1
62
1
10
-13.561911884642658
20
25.493613968861478
30
0.0
11
-13.227650870075555
21
25.265405033561553
31
0.0
0
LINE
8
1
62
1
10
-13.227650870075555
20
25.265405033561553
30
0.0
11
-12.919127654919368
21
25.040823321361614
31
0.0
0
LINE
8
1
62
1
10
-12.919127654919368
20
25.040823321361614
30
0.0
11
-12.635801515130636
21
24.8212023481142
31
0.0
0
LINE
8
1
62
1
10
-12.635801515130636
20
24.8212023481142
30
0.0
11
-12.377075057362994
21
24.607845780464057
31
0.0
0
LINE
8
1
62
1
10
-12.377075057362994
20
24.607845780464057
30
0.0
11
-12.142295543444293
21
24.402025241690083
31
0.0
0
LINE
8
1
62
1
10
-12.142295543444293
20
24.402025241690083
30
0.0
11
-11.930756295310388
21
24.204978170758608
31
0.0
0
LINE
8
1
62
1
10
-11.930756295310388
20
24.204978170758608
30
0.0
11
-11.74169817837666
21
24.01790573743457
31
0.0
0
LINE
8
1
62
1
10
-11.74169817837666
20
24.01790573743457
30
0.0
11
-11.574311161230208
21
23.841970816223235
31
0.0
0
LINE
8
1
62
1
10
-11.574311161230208
20
23.841970816223235
30
0.0
11
-11.427735949430064
21
23.678296021838005
31
0.0
0
LINE
8
1
62
1
10
-11.427735949430064
20
23.678296021838005
30
0.0
11
-11.30106569111001
21
23.52796180880963
31
0.0
0
LINE
8
1
62
1
10
-11.30106569111001
20
23.52796180880963
30
0.0
11
-11.193347751988489
21
23.39200463776843
31
0.0
0
LINE
8
1
62
1
10
-11.193347751988489
20
23.39200463776843
30
0.0
11
-11.103585557303305
21
23.271415210844903
31
0.0
0
LINE
8
1
62
1
10
-11.103585557303305
20
23.271415210844903
30
0.0
11
-11.03074049810458
21
23.167136778544318
31
0.0
0
LINE
8
1
62
1
10
-11.03074049810458
20
23.167136778544318
30
0.0
11
-10.973733899258834
21
23.080063520358983
31
0.0
0
LINE
8
1
62
1
10
-10.973733899258834
20
23.080063520358983
30
0.0
11
-10.931449046439333
21
23.011039001286445
31
0.0
0
LINE
8
1
62
1
10
-10.931449046439333
20
23.011039001286445
30
0.0
11
-10.902733269303695
21
22.960854706324763
31
0.0
0
LINE
8
1
62
1
10
-10.902733269303695
20
22.960854706324763
30
0.0
11
-10.886400077988856
21
22.930248654915395
31
0.0
0
LINE
8
1
62
1
10
-10.886400077988856
20
22.930248654915395
30
0.0
11
-10.881231349986225
21
22.919904097202163
31
0.0
0
LINE
8
1
62
1
10
-10.881231349986225
20
22.919904097202163
30
0.0
11
-10.421608085841061
21
21.951767238769918
31
0.0
0
LINE
8
1
62
1
10
-10.421608085841061
20
21.951767238769918
30
0.0
11
-8.15305372519614
21
22.89143322192967
31
0.0
0
LINE
8
1
62
1
10
-8.15305372519614
20
22.89143322192967
30
0.0
11
-8.512627136042083
21
23.90101208651189
31
0.0
0
LINE
8
1
62
1
10
-8.512627136042083
20
23.90101208651189
30
0.0
11
-8.516287000328717
21
23.911981636040064
31
0.0
0
LINE
8
1
62
1
10
-8.516287000328717
20
23.911981636040064
30
0.0
11
-8.526379436488483
21
23.945172692874113
31
0.0
0
LINE
8
1
62
1
10
-8.526379436488483
20
23.945172692874113
30
0.0
11
-8.541559971025302
21
24.000963468890234
31
0.0
0
LINE
8
1
62
1
10
-8.541559971025302
20
24.000963468890234
30
0.0
11
-8.560467770359491
21
24.079671080564708
31
0.0
0
LINE
8
1
62
1
10
-8.560467770359491
20
24.079671080564708
30
0.0
11
-8.581728109066141
21
24.181550924503775
31
0.0
0
LINE
8
1
62
1
10
-8.581728109066141
20
24.181550924503775
30
0.0
11
-8.603954860342034
21
24.306796146450374
31
0.0
0
LINE
8
1
62
1
10
-8.603954860342034
20
24.306796146450374
30
0.0
11
-8.625753005302977
21
24.45553720452348
31
0.0
0
LINE
8
1
62
1
10
-8.625753005302977
20
24.45553720452348
30
0.0
11
-8.64572115768888
21
24.62784152732592
31
0.0
0
LINE
8
1
62
1
10
-8.64572115768888
20
24.62784152732592
30
0.0
11
-8.662454100532825
21
24.823713267435387
31
0.0
0
LINE
8
1
62
1
10
-8.662454100532825
20
24.823713267435387
30
0.0
11
-8.674545331334201
21
25.043093150672238
31
0.0
0
LINE
8
1
62
1
10
-8.674545331334201
20
25.043093150672238
30
0.0
11
-8.680589612263413
21
25.28585842141514
31
0.0
0
LINE
8
1
62
1
10
-8.680589612263413
20
25.28585842141514
30
0.0
11
-8.679185521917708
21
25.55182288411383
31
0.0
0
LINE
8
1
62
1
10
-8.679185521917708
20
25.55182288411383
30
0.0
11
-8.668938005143712
21
25.840737041025008
31
0.0
0
LINE
8
1
62
1
10
-8.668938005143712
20
25.840737041025008
30
0.0
11
-8.648460917442664
21
26.15228832607515
31
0.0
0
LINE
8
1
62
1
10
-8.648460917442664
20
26.15228832607515
30
0.0
11
-8.616379560478892
21
26.486101434631127
31
0.0
0
LINE
8
1
62
1
10
-8.616379560478892
20
26.486101434631127
30
0.0
11
-8.571333205220908
21
26.841738748837187
31
0.0
0
LINE
8
1
62
1
10
-8.571333205220908
20
26.841738748837187
30
0.0
11
-8.511977599257555
21
27.21870085805466
31
0.0
0
LINE
8
1
62
1
10
-8.511977599257555
20
27.21870085805466
30
0.0
11
-8.436987454848799
21
27.616427173819293
31
0.0
0
LINE
8
1
62
1
10
-8.436987454848799
20
27.616427173819293
30
0.0
11
-8.345058914292327
21
28.034296638609984
31
0.0
0
LINE
8
1
62
1
10
-8.345058914292327
20
28.034296638609984
30
0.0
11
-6.790115303450043
21
28.450942523411108
31
0.0
0
LINE
8
1
62
1
10
-6.790115303450043
20
28.450942523411108
30
0.0
11
-6.501568119599966
21
28.1350212217148
31
0.0
0
LINE
8
1
62
1
10
-6.501568119599966
20
28.1350212217148
30
0.0
11
-6.237761591626203
21
27.828075200713414
31
0.0
0
LINE
8
1
62
1
10
-6.237761591626203
20
27.828075200713414
30
0.0
11
-5.997877074396182
21
27.531294240848595
31
0.0
0
LINE
8
1
62
1
10
-5.997877074396182
20
27.531294240848595
30
0.0
11
-5.78104712929184
21
27.245826469841468
31
0.0
0
LINE
8
1
62
1
10
-5.78104712929184
20
27.245826469841468
30
0.0
11
-5.5863573048953485
21
26.97277651619763
31
0.0
0
LINE
8
1
62
1
10
-5.5863573048953485
20
26.97277651619763
30
0.0
11
-5.412847984225648
21
26.713203732613046
31
0.0
0
LINE
8
1
62
1
10
-5.412847984225648
20
26.713203732613046
30
0.0
11
-5.259516295918072
21
26.468120491601997
31
0.0
0
LINE
8
1
62
1
10
-5.259516295918072
20
26.468120491601997
30
0.0
11
-5.125318086660137
21
26.2384905555739
31
0.0
0
LINE
8
1
62
1
10
-5.125318086660137
20
26.2384905555739
30
0.0
11
-5.009169952120992
21
26.025227523489338
31
0.0
0
LINE
8
1
62
1
10
-5.009169952120992
20
26.025227523489338
30
0.0
11
-4.90995132353958
21
25.829193356126275
31
0.0
0
LINE
8
1
62
1
10
-4.90995132353958
20
25.829193356126275
30
0.0
11
-4.826506607067776
21
25.651196981886038
31
0.0
0
LINE
8
1
62
1
10
-4.826506607067776
20
25.651196981886038
30
0.0
11
-4.757647372899388
21
25.491992984964302
31
0.0
0
LINE
8
1
62
1
10
-4.757647372899388
20
25.491992984964302
30
0.0
11
-4.702154591154389
21
25.352280377606743
31
0.0
0
LINE
8
1
62
1
10
-4.702154591154389
20
25.352280377606743
30
0.0
11
-4.658780911429608
21
25.232701458060422
31
0.0
0
LINE
8
1
62
1
10
-4.658780911429608
20
25.232701458060422
30
0.0
11
-4.626252982873097
21
25.13384075572227
31
0.0
0
LINE
8
1
62
1
10
-4.626252982873097
20
25.13384075572227
30
0.0
11
-4.603273811588924
21
25.05622406487388
31
0.0
0
LINE
8
1
62
1
10
-4.603273811588924
20
25.05622406487388
30
0.0
11
-4.5885251521327755
21
25.00031756827866
31
0.0
0
LINE
8
1
62
1
10
-4.5885251521327755
20
25.00031756827866
30
0.0
11
-4.5806699298161835
21
24.96652705180204
31
0.0
0
LINE
8
1
62
1
10
-4.5806699298161835
20
24.96652705180204
30
0.0
11
-4.578354690498725
21
24.955197211099254
31
0.0
0
LINE
8
1
62
1
10
-4.578354690498725
20
24.955197211099254
30
0.0
11
-4.384964966525619
21
23.90108956182423
31
0.0
0
LINE
8
1
62
1
10
-4.384964966525619
20
23.90108956182423
30
0.0
11
-1.9505062687612986
21
24.22159212965826
31
0.0
0
LINE
8
1
62
1
10
-1.9505062687612986
20
24.22159212965826
30
0.0
11
-2.036529275057387
21
25.289834875473225
31
0.0
0
LINE
8
1
62
1
10
-2.036529275057387
20
25.289834875473225
30
0.0
11
-2.037225304158472
21
25.301377889245114
31
0.0
0
LINE
8
1
62
1
10
-2.037225304158472
20
25.301377889245114
30
0.0
11
-2.038383371259634
21
25.336050102932578
31
0.0
0
LINE
8
1
62
1
10
-2.038383371259634
20
25.336050102932578
30
0.0
11
-2.0386069262515996
21
25.393868865808226
31
0.0
0
LINE
8
1
62
1
10
-2.0386069262515996
20
25.393868865808226
30
0.0
11
-2.036499429050894
21
25.474788279218796
31
0.0
0
LINE
8
1
62
1
10
-2.036499429050894
20
25.474788279218796
30
0.0
11
-2.0306668953597997
21
25.57869923222045
31
0.0
0
LINE
8
1
62
1
10
-2.0306668953597997
20
25.57869923222045
30
0.0
11
-2.0197204397038133
21
25.705429533258936
31
0.0
0
LINE
8
1
62
1
10
-2.0197204397038133
20
25.705429533258936
30
0.0
11
-2.002278812268763
21
25.85474413774511
31
0.0
0
LINE
8
1
62
1
10
-2.002278812268763
20
25.85474413774511
30
0.0
11
-1.97697092606682
21
26.026345471254217
31
0.0
0
LINE
8
1
62
1
10
-1.97697092606682
20
26.026345471254217
30
0.0
11
-1.9424383709719026
21
26.21987384795476
31
0.0
0
LINE
8
1
62
1
10
-1.9424383709719026
20
26.21987384795476
30
0.0
11
-1.8973379111805104
21
26.434907983751636
31
0.0
0
LINE
8
1
62
1
10
-1.8973379111805104
20
26.434907983751636
30
0.0
11
-1.840343962673649
21
26.670965603506694
31
0.0
0
LINE
8
1
62
1
10
-1.840343962673649
20
26.670965603506694
30
0.0
11
-1.7701510472794095
21
26.92750414157994
31
0.0
0
LINE
8
1
62
1
10
-1.7701510472794095
20
26.92750414157994
30
0.0
11
-1.6854762199637254
21
27.203921534814864
31
0.0
0
LINE
8
1
62
1
10
-1.6854762199637254
20
27.203921534814864
30
0.0
11
-1.585061466008956
21
27.499557106973075
31
0.0
0
LINE
8
1
62
1
10
-1.585061466008956
20
27.499557106973075
30
0.0
11
-1.4676760647760874
21
27.813692543506175
31
0.0
0
LINE
8
1
62
1
10
-1.4676760647760874
20
27.813692543506175
30
0.0
11
-1.3321189167865726
21
28.145552955436667
31
0.0
0
LINE
8
1
62
1
10
-1.3321189167865726
20
28.145552955436667
30
0.0
11
-1.1772208309040324
21
28.49430803100531
31
0.0
0
LINE
8
1
62
1
10
-1.1772208309040324
20
28.49430803100531
30
0.0
11
-1.0018467684441217
21
28.859073273629196
31
0.0
0
LINE
8
1
62
1
10
-1.0018467684441217
20
28.859073273629196
30
0.0
11
-0.8048980410929369
21
29.23891132460362
31
0.0
0
LINE
8
1
62
1
10
-0.8048980410929369
20
29.23891132460362
30
0.0
11
0.8048980410929263
21
29.238911324603617
31
0.0
0
LINE
8
1
62
1
10
0.8048980410929263
20
29.238911324603617
30
0.0
11
1.0018467684441115
21
28.859073273629196
31
0.0
0
LINE
8
1
62
1
10
1.0018467684441115
20
28.859073273629196
30
0.0
11
1.1772208309040222
21
28.49430803100531
31
0.0
0
LINE
8
1
62
1
10
1.1772208309040222
20
28.49430803100531
30
0.0
11
1.3321189167865624
21
28.145552955436663
31
0.0
0
LINE
8
1
62
1
10
1.3321189167865624
20
28.145552955436663
30
0.0
11
1.4676760647760771
21
27.813692543506175
31
0.0
0
LINE
8
1
62
1
10
1.4676760647760771
20
27.813692543506175
30
0.0
11
1.5850614660089462
21
27.49955710697307
31
0.0
0
LINE
8
1
62
1
10
1.5850614660089462
20
27.49955710697307
30
0.0
11
1.6854762199637157
21
27.203921534814864
31
0.0
0
LINE
8
1
62
1
10
1.6854762199637157
20
27.203921534814864
30
0.0
11
1.7701510472793998
21
26.92750414157994
31
0.0
0
LINE
8
1
62
1
10
1.7701510472793998
20
26.92750414157994
30
0.0
11
1.8403439626736393
21
26.670965603506694
31
0.0
0
LINE
8
1
62
1
10
1.8403439626736393
20
26.670965603506694
30
0.0
11
1.8973379111805007
21
26.434907983751636
31
0.0
0
LINE
8
1
62
1
10
1.8973379111805007
20
26.434907983751636
30
0.0
11
1.9424383709718933
21
26.21987384795476
31
0.0
0
LINE
8
1
62
1
10
1.9424383709718933
20
26.21987384795476
30
0.0
11
1.9769709260668107
21
26.026345471254217
31
0.0
0
LINE
8
1
62
1
10
1.9769709260668107
20
26.026345471254217
30
0.0
11
2.0022788122687536
21
25.85474413774511
31
0.0
0
LINE
8
1
62
1
10
2.0022788122687536
20
25.85474413774511
30
0.0
11
2.019720439703804
21
25.705429533258936
31
0.0
0
LINE
8
1
62
1
10
2.019720439703804
20
25.705429533258936
30
0.0
11
2.0306668953597904
21
25.57869923222045
31
0.0
0
LINE
8
1
62
1
10
2.0306668953597904
20
25.57869923222045
30
0.0
11
2.036499429050885
21
25.474788279218796
31
0.0
0
LINE
8
1
62
1
10
2.036499429050885
20
25.474788279218796
30
0.0
11
2.0386069262515907
21
25.393868865808226
31
0.0
0
LINE
8
1
62
1
10
2.0386069262515907
20
25.393868865808226
30
0.0
11
2.038383371259625
21
25.336050102932578
31
0.0
0
LINE
8
1
62
1
10
2.038383371259625
20
25.336050102932578
30
0.0
11
2.0372253041584627
21
25.301377889245114
31
0.0
0
LINE
8
1
62
1
10
2.0372253041584627
20
25.301377889245114
30
0.0
11
2.0365292750573776
21
25.289834875473225
31
0.0
0
LINE
8
1
62
1
10
2.0365292750573776
20
25.289834875473225
30
0.0
11
1.95050626876129
21
24.22159212965826
31
0.0
0
LINE
8
1
62
1
10
1.95050626876129
20
24.22159212965826
30
0.0
11
4.384964966525611
21
23.90108956182423
31
0.0
0
LINE
8
1
62
1
10
4.384964966525611
20
23.90108956182423
30
0.0
11
4.578354690498716
21
24.955197211099254
31
0.0
0
LINE
8
1
62
1
10
4.578354690498716
20
24.955197211099254
30
0.0
11
4.580669929816174
21
24.96652705180204
31
0.0
0
LINE
8
1
62
1
10
4.580669929816174
20
24.96652705180204
30
0.0
11
4.588525152132767
21
25.00031756827866
31
0.0
0
LINE
8
1
62
1
10
4.588525152132767
20
25.00031756827866
30
0.0
11
4.603273811588915
21
25.05622406487388
31
0.0
0
LINE
8
1
62
1
10
4.603273811588915
20
25.05622406487388
30
0.0
11
4.626252982873088
21
25.13384075572227
31
0.0
0
LINE
8
1
62
1
10
4.626252982873088
20
25.13384075572227
30
0.0
11
4.658780911429599
21
25.232701458060422
31
0.0
0
LINE
8
1
62
1
10
4.658780911429599
20
25.232701458060422
30
0.0
11
4.702154591154379
21
25.352280377606743
31
0.0
0
LINE
8
1
62
1
10
4.702154591154379
20
25.352280377606743
30
0.0
11
4.7576473728993784
21
25.491992984964302
31
0.0
0
LINE
8
1
62
1
10
4.7576473728993784
20
25.491992984964302
30
0.0
11
4.826506607067766
21
25.651196981886038
31
0.0
0
LINE
8
1
62
1
10
4.826506607067766
20
25.651196981886038
30
0.0
11
4.9099513235395715
21
25.829193356126275
31
0.0
0
LINE
8
1
62
1
10
4.9099513235395715
20
25.829193356126275
30
0.0
11
5.009169952120983
21
26.025227523489338
31
0.0
0
LINE
8
1
62
1
10
5.009169952120983
20
26.025227523489338
30
0.0
11
5.125318086660127
21
26.238490555573904
31
0.0
0
LINE
8
1
62
1
10
5.125318086660127
20
26.238490555573904
30
0.0
11
5.259516295918061
21
26.468120491601997
31
0.0
0
LINE
8
1
62
1
10
5.259516295918061
20
26.468120491601997
30
0.0
11
5.412847984225638
21
26.713203732613046
31
0.0
0
LINE
8
1
62
1
10
5.412847984225638
20
26.713203732613046
30
0.0
11
5.586357304895338
21
26.97277651619763
31
0.0
0
LINE
8
1
62
1
10
5.586357304895338
20
26.97277651619763
30
0.0
11
5.781047129291831
21
27.24582646984147
31
0.0
0
LINE
8
1
62
1
10
5.781047129291831
20
27.24582646984147
30
0.0
11
5.997877074396172
21
27.531294240848595
31
0.0
0
LINE
8
1
62
1
10
5.997877074396172
20
27.531294240848595
30
0.0
11
6.237761591626192
21
27.828075200713418
31
0.0
0
LINE
8
1
62
1
10
6.237761591626192
20
27.828075200713418
30
0.0
11
6.5015681195999555
21
28.1350212217148
31
0.0
0
LINE
8
1
62
1
10
6.5015681195999555
20
28.1350212217148
30
0.0
11
6.790115303450032
21
28.45094252341111
31
0.0
0
LINE
8
1
62
1
10
6.790115303450032
20
28.45094252341111
30
0.0
11
8.345058914292316
21
28.034296638609987
31
0.0
0
LINE
8
1
62
1
10
8.345058914292316
20
28.034296638609987
30
0.0
11
8.43698745484879
21
27.616427173819297
31
0.0
0
LINE
8
1
62
1
10
8.43698745484879
20
27.616427173819297
30
0.0
11
8.511977599257545
21
27.218700858054664
31
0.0
0
LINE
8
1
62
1
10
8.511977599257545
20
27.218700858054664
30
0.0
11
8.571333205220899
21
26.841738748837187
31
0.0
0
LINE
8
1
62
1
10
8.571333205220899
20
26.841738748837187
30
0.0
11
8.616379560478883
21
26.48610143463113
31
0.0
0
LINE
8
1
62
1
10
8.616379560478883
20
26.48610143463113
30
0.0
11
8.648460917442655
21
26.15228832607515
31
0.0
0
LINE
8
1
62
1
10
8.648460917442655
20
26.15228832607515
30
0.0
11
8.668938005143703
21
25.84073704102501
31
0.0
0
LINE
8
1
62
1
10
8.668938005143703
20
25.84073704102501
30
0.0
11
8.679185521917699
21
25.551822884113832
31
0.0
0
LINE
8
1
62
1
10
8.679185521917699
20
25.551822884113832
30
0.0
11
8.680589612263404
21
25.285858421415142
31
0.0
0
LINE
8
1
62
1
10
8.680589612263404
20
25.285858421415142
30
0.0
11
8.674545331334192
21
25.043093150672238
31
0.0
0
LINE
8
1
62
1
10
8.674545331334192
20
25.043093150672238
30
0.0
11
8.662454100532816
21
24.82371326743539
31
0.0
0
LINE
8
1
62
1
10
8.662454100532816
20
24.82371326743539
30
0.0
11
8.645721157688872
21
24.627841527325923
31
0.0
0
LINE
8
1
62
1
10
8.645721157688872
20
24.627841527325923
30
0.0
11
8.625753005302968
21
24.455537204523484
31
0.0
0
LINE
8
1
62
1
10
8.625753005302968
20
24.455537204523484
30
0.0
11
8.603954860342025
21
24.306796146450377
31
0.0
0
LINE
8
1
62
1
10
8.603954860342025
20
24.306796146450377
30
0.0
11
8.581728109066132
21
24.181550924503778
31
0.0
0
LINE
8
1
62
1
10
8.581728109066132
20
24.181550924503778
30
0.0
11
8.560467770359482
21
24.07967108056471
31
0.0
0
LINE
8
1
62
1
10
8.560467770359482
20
24.07967108056471
30
0.0
11
8.541559971025295
21
24.000963468890237
31
0.0
0
LINE
8
1
62
1
10
8.541559971025295
20
24.000963468890237
30
0.0
11
8.526379436488476
21
23.945172692874113
31
0.0
0
LINE
8
1
62
1
10
8.526379436488476
20
23.945172692874113
30
0.0
11
8.516287000328708
21
23.911981636040068
31
0.0
0
LINE
8
1
62
1
10
8.516287000328708
20
23.911981636040068
30
0.0
11
8.512627136042076
21
23.901012086511894
31
0.0
0
LINE
8
1
62
1
10
8.512627136042076
20
23.901012086511894
30
0.0
11
8.153053725196132
21
22.89143322192967
31
0.0
0
LINE
8
1
62
1
10
8.153053725196132
20
22.89143322192967
30
0.0
11
10.421608085841054
21
21.95176723876992
31
0.0
0
LINE
8
1
62
1
10
10.421608085841054
20
21.95176723876992
30
0.0
11
10.881231349986216
21
22.91990409720217
31
0.0
0
LINE
8
1
62
1
10
10.881231349986216
20
22.91990409720217
30
0.0
11
10.886400077988847
21
22.930248654915403
31
0.0
0
LINE
8
1
62
1
10
10.886400077988847
20
22.930248654915403
30
0.0
11
10.902733269303686
21
22.96085470632477
31
0.0
0
LINE
8
1
62
1
10
10.902733269303686
20
22.96085470632477
30
0.0
11
10.931449046439326
21
23.011039001286452
31
0.0
0
LINE
8
1
62
1
10
10.931449046439326
20
23.011039001286452
30
0.0
11
10.973733899258825
21
23.08006352035899
31
0.0
0
LINE
8
1
62
1
10
10.973733899258825
20
23.08006352035899
30
0.0
11
11.03074049810457
21
23.167136778544325
31
0.0
0
LINE
8
1
62
1
10
11.03074049810457
20
23.167136778544325
30
0.0
11
11.103585557303296
21
23.271415210844907
31
0.0
0
LINE
8
1
62
1
10
11.103585557303296
20
23.271415210844907
30
0.0
11
11.19334775198848
21
23.392004637768437
31
0.0
0
LINE
8
1
62
1
10
11.19334775198848
20
23.392004637768437
30
0.0
11
11.30106569111
21
23.527961808809636
31
0.0
0
LINE
8
1
62
1
10
11.30106569111
20
23.527961808809636
30
0.0
11
11.427735949430057
21
23.678296021838012
31
0.0
0
LINE
8
1
62
1
10
11.427735949430057
20
23.678296021838012
30
0.0
11
11.574311161230199
21
23.84197081622324
31
0.0
0
LINE
8
1
62
1
10
11.574311161230199
20
23.84197081622324
30
0.0
11
11.741698178376652
21
24.017905737434578
31
0.0
0
LINE
8
1
62
1
10
11.741698178376652
20
24.017905737434578
30
0.0
11
11.93075629531038
21
24.204978170758615
31
0.0
0
LINE
8
1
62
1
10
11.93075629531038
20
24.204978170758615
30
0.0
11
12.142295543444284
21
24.40202524169009
31
0.0
0
LINE
8
1
62
1
10
12.142295543444284
20
24.40202524169009
30
0.0
11
12.377075057362985
21
24.60784578046406
31
0.0
0
LINE
8
1
62
1
10
12.377075057362985
20
24.60784578046406
30
0.0
11
12.635801515130627
21
24.821202348114205
31
0.0
0
LINE
8
1
62
1
10
12.635801515130627
20
24.821202348114205
30
0.0
11
12.91912765491936
21
25.040823321361625
31
0.0
0
LINE
8
1
62
1
10
12.91912765491936
20
25.040823321361625
30
0.0
11
13.227650870075545
21
25.26540503356156
31
0.0
0
LINE
8
1
62
1
10
13.227650870075545
20
25.26540503356156
30
0.0
11
13.56191188464265
21
25.49361396886148
31
0.0
0
LINE
8
1
62
1
10
13.56191188464265
20
25.49361396886148
30
0.0
11
13.922393511259001
21
25.72408900665371
31
0.0
0
LINE
8
1
62
1
10
13.922393511259001
20
25.72408900665371
30
0.0
11
15.316517813344621
21
24.919190965560777
31
0.0
0
LINE
8
1
62
1
10
15.316517813344621
20
24.919190965560777
30
0.0
11
15.297161388986549
21
24.491767200417364
31
0.0
0
LINE
8
1
62
1
10
15.297161388986549
20
24.491767200417364
30
0.0
11
15.26665716092977
21
24.08818420265753
31
0.0
0
LINE
8
1
62
1
10
15.26665716092977
20
24.08818420265753
30
0.0
11
15.226425300517311
21
23.708704404575055
31
0.0
0
LINE
8
1
62
1
10
15.226425300517311
20
23.708704404575055
30
0.0
11
15.177891028375551
21
23.353526283338123
31
0.0
0
LINE
8
1
62
1
10
15.177891028375551
20
23.353526283338123
30
0.0
11
15.122482049610095
21
23.02278431445511
31
0.0
0
LINE
8
1
62
1
10
15.122482049610095
20
23.02278431445511
30
0.0
11
15.061625991370583
21
22.71654902172637
31
0.0
0
LINE
8
1
62
1
10
15.061625991370583
20
22.71654902172637
30
0.0
11
14.996747846269566
21
22.434827123479206
31
0.0
0
LINE
8
1
62
1
10
14.996747846269566
20
22.434827123479206
30
0.0
11
14.929267425130044
21
22.17756177476093
31
0.0
0
LINE
8
1
62
1
10
14.929267425130044
20
22.17756177476093
30
0.0
11
14.860596822521439
21
21.944632905042738
31
0.0
0
LINE
8
1
62
1
10
14.860596822521439
20
21.944632905042738
30
0.0
11
14.792137898524706
21
21.73585765086611
31
0.0
0
LINE
8
1
62
1
10
14.792137898524706
20
21.73585765086611
30
0.0
11
14.72527978014422
21
21.55099088274282
31
0.0
0
LINE
8
1
62
1
10
14.72527978014422
20
21.55099088274282
30
0.0
11
14.661396385756635
21
21.389725825499674
31
0.0
0
LINE
8
1
62
1
10
14.661396385756635
20
21.389725825499674
30
0.0
11
14.601843975955646
21
21.2516947711411
31
0.0
0
LINE
8
1
62
1
10
14.601843975955646
20
21.2516947711411
30
0.0
11
14.547958734115886
21
21.13646988318453
31
0.0
0
LINE
8
1
62
1
10
14.547958734115886
20
21.13646988318453
30
0.0
11
14.501054379959974
21
21.0435640913081
31
0.0
0
LINE
8
1
62
1
10
14.501054379959974
20
21.0435640913081
30
0.0
11
14.462419819368906
21
20.972432075034853
31
0.0
0
LINE
8
1
62
1
10
14.462419819368906
20
20.972432075034853
30
0.0
11
14.433316833628897
21
20.92247133506514
31
0.0
0
LINE
8
1
62
1
10
14.433316833628897
20
20.92247133506514
30
0.0
11
14.414977811256273
21
20.893023350756934
31
0.0
0
LINE
8
1
62
1
10
14.414977811256273
20
20.893023350756934
30
0.0
11
14.408603525487015
21
20.883374822144788
31
0.0
0
LINE
8
1
62
1
10
14.408603525487015
20
20.883374822144788
30
0.0
11
13.79998404381721
21
20.001260970008627
31
0.0
0
LINE
8
1
62
1
10
13.79998404381721
20
20.001260970008627
30
0.0
11
15.748035836628079
21
18.506468255404048
31
0.0
0
LINE
8
1
62
1
10
15.748035836628079
20
18.506468255404048
30
0.0
11
16.442570075057162
21
19.322657396013167
31
0.0
0
LINE
8
1
62
1
10
16.442570075057162
20
19.322657396013167
30
0.0
11
16.450240051473312
21
19.33131170622388
31
0.0
0
LINE
8
1
62
1
10
16.450240051473312
20
19.33131170622388
30
0.0
11
16.473938131790167
21
19.356647540741335
31
0.0
0
LINE
8
1
62
1
10
16.473938131790167
20
19.356647540741335
30
0.0
11
16.51466409384857
21
19.39768965730131
31
0.0
0
LINE
8
1
62
1
10
16.51466409384857
20
19.39768965730131
30
0.0
11
16.57337298536277
21
19.45341809769161
31
0.0
0
LINE
8
1
62
1
10
16.57337298536277
20
19.45341809769161
30
0.0
11
16.650973348994267
21
19.522770013074165
31
0.0
0
LINE
8
1
62
1
10
16.650973348994267
20
19.522770013074165
30
0.0
11
16.7483255172647
21
19.604641555295984
31
0.0
0
LINE
8
1
62
1
10
16.7483255172647
20
19.604641555295984
30
0.0
11
16.866239979661312
21
19.697889831624092
31
0.0
0
LINE
8
1
62
1
10
16.866239979661312
20
19.697889831624092
30
0.0
11
17.00547582419715
21
19.801334920258146
31
0.0
0
LINE
8
1
62
1
10
17.00547582419715
20
19.801334920258146
30
0.0
11
17.166739255593438
21
19.913761943895807
31
0.0
0
LINE
8
1
62
1
10
17.166739255593438
20
19.913761943895807
30
0.0
11
17.350682192155126
21
20.033923198551243
31
0.0
0
LINE
8
1
62
1
10
17.350682192155126
20
20.033923198551243
30
0.0
11
17.55790094331048
21
20.160540334755
31
0.0
0
LINE
8
1
62
1
10
17.55790094331048
20
20.160540334755
30
0.0
11
17.788934969684277
21
20.292306588195757
31
0.0
0
LINE
8
1
62
1
10
17.788934969684277
20
20.292306588195757
30
0.0
11
18.044265727469323
21
20.427889056799362
31
0.0
0
LINE
8
1
62
1
10
18.044265727469323
20
20.427889056799362
30
0.0
11
18.324315598754954
21
20.5659310211798
31
0.0
0
LINE
8
1
62
1
10
18.324315598754954
20
20.5659310211798
30
0.0
11
18.629446909362567
21
20.705054305339285
31
0.0
0
LINE
8
1
62
1
10
18.629446909362567
20
20.705054305339285
30
0.0
11
18.959961035627675
21
20.843861674441
31
0.0
0
LINE
8
1
62
1
10
18.959961035627675
20
20.843861674441
30
0.0
11
19.31609760145585
21
20.980939266428457
31
0.0
0
LINE
8
1
62
1
10
19.31609760145585
20
20.980939266428457
30
0.0
11
19.69803376686599
21
21.11485905421933
31
0.0
0
LINE
8
1
62
1
10
19.69803376686599
20
21.11485905421933
30
0.0
11
20.10588360911877
21
21.24418133515994
31
0.0
0
LINE
8
1
62
1
10
20.10588360911877
20
21.24418133515994
30
0.0
11
21.244181335159933
21
20.10588360911878
31
0.0
0
LINE
8
1
62
1
10
21.244181335159933
20
20.10588360911878
30
0.0
11
21.114859054219323
21
19.698033766866
31
0.0
0
LINE
8
1
62
1
10
21.114859054219323
20
19.698033766866
30
0.0
11
20.98093926642845
21
19.316097601455862
31
0.0
0
LINE
8
1
62
1
10
20.98093926642845
20
19.316097601455862
30
0.0
11
20.843861674440998
21
18.959961035627686
31
0.0
0
LINE
8
1
62
1
10
20.843861674440998
20
18.959961035627686
30
0.0
11
20.705054305339278
21
18.629446909362578
31
0.0
0
LINE
8
1
62
1
10
20.705054305339278
20
18.629446909362578
30
0.0
11
20.565931021179793
21
18.324315598754964
31
0.0
0
LINE
8
1
62
1
10
20.565931021179793
20
18.324315598754964
30
0.0
11
20.427889056799355
21
18.04426572746933
31
0.0
0
LINE
8
1
62
1
10
20.427889056799355
20
18.04426572746933
30
0.0
11
20.292306588195753
21
17.788934969684288
31
0.0
0
LINE
8
1
62
1
10
20.292306588195753
20
17.788934969684288
30
0.0
11
20.160540334754995
21
17.55790094331049
31
0.0
0
LINE
8
1
62
1
10
20.160540334754995
20
17.55790094331049
30
0.0
11
20.033923198551236
21
17.350682192155134
31
0.0
0
LINE
8
1
62
1
10
20.033923198551236
20
17.350682192155134
30
0.0
11
19.9137619438958
21
17.16673925559345
31
0.0
0
LINE
8
1
62
1
10
19.9137619438958
20
17.16673925559345
30
0.0
11
19.80133492025814
21
17.005475824197156
31
0.0
0
LINE
8
1
62
1
10
19.80133492025814
20
17.005475824197156
30
0.0
11
19.697889831624085
21
16.866239979661323
31
0.0
0
LINE
8
1
62
1
10
19.697889831624085
20
16.866239979661323
30
0.0
11
19.604641555295977
21
16.748325517264707
31
0.0
0
LINE
8
1
62
1
10
19.604641555295977
20
16.748325517264707
30
0.0
11
19.522770013074158
21
16.650973348994278
31
0.0
0
LINE
8
1
62
1
10
19.522770013074158
20
16.650973348994278
30
0.0
11
19.453418097691607
21
16.573372985362777
31
0.0
0
LINE
8
1
62
1
10
19.453418097691607
20
16.573372985362777
30
0.0
11
19.397689657301303
21
16.514664093848577
31
0.0
0
LINE
8
1
62
1
10
19.397689657301303
20
16.514664093848577
30
0.0
11
19.35664754074133
21
16.473938131790174
31
0.0
0
LINE
8
1
62
1
10
19.35664754074133
20
16.473938131790174
30
0.0
11
19.331311706223875
21
16.45024005147332
31
0.0
0
LINE
8
1
62
1
10
19.331311706223875
20
16.45024005147332
30
0.0
11
19.32265739601316
21
16.44257007505717
31
0.0
0
LINE
8
1
62
1
10
19.32265739601316
20
16.44257007505717
30
0.0
11
18.506468255404044
21
15.748035836628086
31
0.0
0
LINE
8
1
62
1
10
18.506468255404044
20
15.748035836628086
30
0.0
11
20.001260970008623
21
13.799984043817219
31
0.0
0
LINE
8
1
62
1
10
20.001260970008623
20
13.799984043817219
30
0.0
11
20.88337482214478
21
14.408603525487022
31
0.0
0
LINE
8
1
62
1
10
20.88337482214478
20
14.408603525487022
30
0.0
11
20.89302335075693
21
14.41497781125628
31
0.0
0
LINE
8
1
62
1
10
20.89302335075693
20
14.41497781125628
30
0.0
11
20.922471335065133
21
14.433316833628906
31
0.0
0
LINE
8
1
62
1
10
20.922471335065133
20
14.433316833628906
30
0.0
11
20.97243207503485
21
14.462419819368915
31
0.0
0
LINE
8
1
62
1
10
20.97243207503485
20
14.462419819368915
30
0.0
11
21.04356409130809
21
14.501054379959983
31
0.0
0
LINE
8
1
62
1
10
21.04356409130809
20
14.501054379959983
30
0.0
11
21.136469883184525
21
14.547958734115895
31
0.0
0
LINE
8
1
62
1
10
21.136469883184525
20
14.547958734115895
30
0.0
11
21.251694771141093
21
14.601843975955653
31
0.0
0
LINE
8
1
62
1
10
21.251694771141093
20
14.601843975955653
30
0.0
11
21.38972582549967
21
14.661396385756644
31
0.0
0
LINE
8
1
62
1
10
21.38972582549967
20
14.661396385756644
30
0.0
11
21.550990882742813
21
14.725279780144229
31
0.0
0
LINE
8
1
62
1
10
21.550990882742813
20
14.725279780144229
30
0.0
11
21.735857650866105
21
14.792137898524715
31
0.0
0
LINE
8
1
62
1
10
21.735857650866105
20
14.792137898524715
30
0.0
11
21.94463290504273
21
14.860596822521448
31
0.0
0
LINE
8
1
62
1
10
21.94463290504273
20
14.860596822521448
30
0.0
11
22.177561774760928
21
14.929267425130053
31
0.0
0
LINE
8
1
62
1
10
22.177561774760928
20
14.929267425130053
30
0.0
11
22.434827123479202
21
14.996747846269574
31
0.0
0
LINE
8
1
62
1
10
22.434827123479202
20
14.996747846269574
30
0.0
11
22.71654902172636
21
15.061625991370592
31
0.0
0
LINE
8
1
62
1
10
22.71654902172636
20
15.061625991370592
30
0.0
11
23.022784314455105
21
15.122482049610104
31
0.0
0
LINE
8
1
62
1
10
23.022784314455105
20
15.122482049610104
30
0.0
11
23.353526283338116
21
15.17789102837556
31
0.0
0
LINE
8
1
62
1
10
23.353526283338116
20
15.17789102837556
30
0.0
11
23.708704404575048
21
15.226425300517322
31
0.0
0
LINE
8
1
62
1
10
23.708704404575048
20
15.226425300517322
30
0.0
11
24.088184202657526
21
15.26665716092978
31
0.0
0
LINE
8
1
62
1
10
24.088184202657526
20
15.26665716092978
30
0.0
11
24.491767200417357
21
15.29716138898656
31
0.0
0
LINE
8
1
62
1
10
24.491767200417357
20
15.29716138898656
30
0.0
11
24.919190965560773
21
15.316517813344632
31
0.0
0
LINE
8
1
62
1
10
24.919190965560773
20
15.316517813344632
30
0.0
11
25.724089006653703
21
13.922393511259013
31
0.0
0
LINE
8
1
62
1
10
25.724089006653703
20
13.922393511259013
30
0.0
11
25.493613968861478
21
13.56191188464266
31
0.0
0
LINE
8
1
62
1
10
25.493613968861478
20
13.56191188464266
30
0.0
11
25.265405033561553
21
13.227650870075557
31
0.0
0
LINE
8
1
62
1
10
25.265405033561553
20
13.227650870075557
30
0.0
11
25.040823321361614
21
12.91912765491937
31
0.0
0
LINE
8
1
62
1
10
25.040823321361614
20
12.91912765491937
30
0.0
11
24.8212023481142
21
12.635801515130638
31
0.0
0
LINE
8
1
62
1
10
24.8212023481142
20
12.635801515130638
30
0.0
11
24.607845780464057
21
12.377075057362996
31
0.0
0
LINE
8
1
62
1
10
24.607845780464057
20
12.377075057362996
30
0.0
11
24.402025241690083
21
12.142295543444295
31
0.0
0
LINE
8
1
62
1
10
24.402025241690083
20
12.142295543444295
30
0.0
11
24.204978170758608
21
11.93075629531039
31
0.0
0
LINE
8
1
62
1
10
24.204978170758608
20
11.93075629531039
30
0.0
11
24.01790573743457
21
11.741698178376662
31
0.0
0
LINE
8
1
62
1
10
24.01790573743457
20
11.741698178376662
30
0.0
11
23.841970816223235
21
11.57431116123021
31
0.0
0
LINE
8
1
62
1
10
23.841970816223235
20
11.57431116123021
30
0.0
11
23.678296021838005
21
11.427735949430065
31
0.0
0
LINE
8
1
62
1
10
23.678296021838005
20
11.427735949430065
30
0.0
11
23.52796180880963
21
11.301065691110011
31
0.0
0
LINE
8
1
62
1
10
23.52796180880963
20
11.301065691110011
30
0.0
11
23.39200463776843
21
11.19334775198849
31
0.0
0
LINE
8
1
62
1
10
23.39200463776843
20
11.19334775198849
30
0.0
11
23.271415210844903
21
11.103585557303306
31
0.0
0
LINE
8
1
62
1
10
23.271415210844903
20
11.103585557303306
30
0.0
11
23.167136778544318
21
11.03074049810458
31
0.0
0
LINE
8
1
62
1
10
23.167136778544318
20
11.03074049810458
30
0.0
11
23.080063520358983
21
10.973733899258836
31
0.0
0
LINE
8
1
62
1
10
23.080063520358983
20
10.973733899258836
30
0.0
11
23.011039001286445
21
10.931449046439335
31
0.0
0
LINE
8
1
62
1
10
23.011039001286445
20
10.931449046439335
30
0.0
11
22.960854706324763
21
10.902733269303697
31
0.0
0
LINE
8
1
62
1
10
22.960854706324763
20
10.902733269303697
30
0.0
11
22.930248654915395
21
10.886400077988856
31
0.0
0
LINE
8
1
62
1
10
22.930248654915395
20
10.886400077988856
30
0.0
11
22.919904097202163
21
10.881231349986226
31
0.0
0
LINE
8
1
62
1
10
22.919904097202163
20
10.881231349986226
30
0.0
11
21.951767238769918
21
10.421608085841063
31
0.0
0
LINE
8
1
62
1
10
21.951767238769918
20
10.421608085841063
30
0.0
11
22.89143322192966
21
8.153053725196163
31
0.0
0
LINE
8
1
62
1
10
22.89143322192966
20
8.153053725196163
30
0.0
11
23.901012086511884
21
8.512627136042106
31
0.0
0
LINE
8
1
62
1
10
23.901012086511884
20
8.512627136042106
30
0.0
11
23.911981636040057
21
8.516287000328738
31
0.0
0
LINE
8
1
62
1
10
23.911981636040057
20
8.516287000328738
30
0.0
11
23.945172692874102
21
8.526379436488506
31
0.0
0
LINE
8
1
62
1
10
23.945172692874102
20
8.526379436488506
30
0.0
11
24.000963468890227
21
8.541559971025325
31
0.0
0
LINE
8
1
62
1
10
24.000963468890227
20
8.541559971025325
30
0.0
11
24.079671080564697
21
8.560467770359512
31
0.0
0
LINE
8
1
62
1
10
24.079671080564697
20
8.560467770359512
30
0.0
11
24.181550924503764
21
8.581728109066164
31
0.0
0
LINE
8
1
62
1
10
24.181550924503764
20
8.581728109066164
30
0.0
11
24.306796146450363
21
8.603954860342055
31
0.0
0
LINE
8
1
62
1
10
24.306796146450363
20
8.603954860342055
30
0.0
11
24.455537204523473
21
8.625753005303
31
0.0
0
LINE
8
1
62
1
10
24.455537204523473
20
8.625753005303
30
0.0
11
24.62784152732591
21
8.645721157688904
31
0.0
0
LINE
8
1
62
1
10
24.62784152732591
20
8.645721157688904
30
0.0
11
24.82371326743538
21
8.662454100532848
31
0.0
0
LINE
8
1
62
1
10
24.82371326743538
20
8.662454100532848
30
0.0
11
25.043093150672227
21
8.674545331334224
31
0.0
0
LINE
8
1
62
1
10
25.043093150672227
20
8.674545331334224
30
0.0
11
25.285858421415128
21
8.680589612263436
31
0.0
0
LINE
8
1
62
1
10
25.285858421415128
20
8.680589612263436
30
0.0
11
25.55182288411382
21
8.67918552191773
31
0.0
0
LINE
8
1
62
1
10
25.55182288411382
20
8.67918552191773
30
0.0
11
25.840737041025
21
8.668938005143737
31
0.0
0
LINE
8
1
62
1
10
25.840737041025
20
8.668938005143737
30
0.0
11
26.15228832607514
21
8.648460917442689
31
0.0
0
LINE
8
1
62
1
10
26.15228832607514
20
8.648460917442689
30
0.0
11
26.48610143463112
21
8.616379560478917
31
0.0
0
LINE
8
1
62
1
10
26.48610143463112
20
8.616379560478917
30
0.0
11
26.841738748837177
21
8.571333205220935
31
0.0
0
LINE
8
1
62
1
10
26.841738748837177
20
8.571333205220935
30
0.0
11
27.218700858054653
21
8.51197759925758
31
0.0
0
LINE
8
1
62
1
10
27.218700858054653
20
8.51197759925758
30
0.0
11
27.616427173819286
21
8.436987454848824
31
0.0
0
LINE
8
1
62
1
10
27.616427173819286
20
8.436987454848824
30
0.0
11
28.034296638609973
21
8.345058914292354
31
0.0
0
LINE
8
1
62
1
10
28.034296638609973
20
8.345058914292354
30
0.0
11
28.4509425234111
21
6.7901153034500705
31
0.0
0
LINE
8
1
62
1
10
28.4509425234111
20
6.7901153034500705
30
0.0
11
28.135021221714794
21
6.501568119599993
31
0.0
0
LINE
8
1
62
1
10
28.135021221714794
20
6.501568119599993
30
0.0
11
27.82807520071341
21
6.23776159162623
31
0.0
0
LINE
8
1
62
1
10
27.82807520071341
20
6.23776159162623
30
0.0
11
27.531294240848588
21
5.997877074396207
31
0.0
0
LINE
8
1
62
1
10
27.531294240848588
20
5.997877074396207
30
0.0
11
27.245826469841465
21
5.781047129291867
31
0.0
0
LINE
8
1
62
1
10
27.245826469841465
20
5.781047129291867
30
0.0
11
26.97277651619762
21
5.586357304895374
31
0.0
0
LINE
8
1
62
1
10
26.97277651619762
20
5.586357304895374
30
0.0
11
26.71320373261304
21
5.412847984225674
31
0.0
0
LINE
8
1
62
1
10
26.71320373261304
20
5.412847984225674
30
0.0
11
26.46812049160199
21
5.259516295918096
31
0.0
0
LINE
8
1
62
1
10
26.46812049160199
20
5.259516295918096
30
0.0
11
26.238490555573897
21
5.125318086660162
31
0.0
0
LINE
8
1
62
1
10
26.238490555573897
20
5.125318086660162
30
0.0
11
26.02522752348933
21
5.009169952121018
31
0.0
0
LINE
8
1
62
1
10
26.02522752348933
20
5.009169952121018
30
0.0
11
25.829193356126268
21
4.909951323539605
31
0.0
0
LINE
8
1
62
1
10
25.829193356126268
20
4.909951323539605
30
0.0
11
25.651196981886034
21
4.826506607067801
31
0.0
0
LINE
8
1
62
1
10
25.651196981886034
20
4.826506607067801
30
0.0
11
25.491992984964295
21
4.757647372899412
31
0.0
0
LINE
8
1
62
1
10
25.491992984964295
20
4.757647372899412
30
0.0
11
25.352280377606736
21
4.702154591154413
31
0.0
0
LINE
8
1
62
1
10
25.352280377606736
20
4.702154591154413
30
0.0
11
25.232701458060415
21
4.658780911429632
31
0.0
0
LINE
8
1
62
1
10
25.232701458060415
20
4.658780911429632
30
0.0
11
25.133840755722265
21
4.626252982873121
31
0.0
0
LINE
8
1
62
1
10
25.133840755722265
20
4.626252982873121
30
0.0
11
25.056224064873874
21
4.603273811588948
31
0.0
0
LINE
8
1
62
1
10
25.056224064873874
20
4.603273811588948
30
0.0
11
25.000317568278653
21
4.588525152132799
31
0.0
0
LINE
8
1
62
1
10
25.000317568278653
20
4.588525152132799
30
0.0
11
24.966527051802036
21
4.5806699298162075
31
0.0
0
LINE
8
1
62
1
10
24.966527051802036
20
4.5806699298162075
30
0.0
11
24.95519721109925
21
4.578354690498749
31
0.0
0
LINE
8
1
62
1
10
24.95519721109925
20
4.578354690498749
30
0.0
11
23.90108956182422
21
4.384964966525642
31
0.0
0
LINE
8
1
62
1
10
23.90108956182422
20
4.384964966525642
30
0.0
11
24.22159212965826
21
1.9505062687612795
31
0.0
0
ENDSEC
0
EOF
