999
VISION3D DXF
0
SECTION
2
HEADER
9
$ACADVER
1
AC1006
9
$INSBASE
10
0.0
20
0.0
30
0.0
9
$EXTMIN
10
-18
20
-18
9
$EXTMAX
10
18
20
18
9
$LINMIN
10
0.0
20
0.0
9
$LINMAX
10
1000.0
20
1000.0
0
ENDSEC
0
SECTION
2
TABLES
0
TABLE
2
LTYPE
70
1
0
LTYPE
2
CONTINUOUS
70
64
3
Solid line
72
65
73
0
40
0.000000
0
ENDTAB
0
TABLE
2
LAYER
70
6
0
LAYER
2
1
70
64
62
7
6
CONTINUOUS
0
ENDTAB
0
TABLE
2
STYLE
70
0
0
ENDTAB
0
ENDSEC
0
SECTION
2
BLOCKS
0
ENDSEC
0
SECTION
2
ENTITIES
0
LINE
8
1
62
1
10
10.685405612473524
20
1.5691102245920587
30
0.0
11
12.551246005182126
21
1.8431016240610962
31
0.0
0
LINE
8
1
62
1
10
12.551246005182126
20
1.8431016240610962
30
0.0
11
12.560690300136821
21
1.8442402752738387
31
0.0
0
LINE
8
1
62
1
10
12.560690300136821
20
1.8442402752738387
30
0.0
11
12.589123440675415
21
1.8466790174146772
31
0.0
0
LINE
8
1
62
1
10
12.589123440675415
20
1.8466790174146772
30
0.0
11
12.636631841757227
21
1.848946657476235
31
0.0
0
LINE
8
1
62
1
10
12.636631841757227
20
1.848946657476235
30
0.0
11
12.703216396860858
21
1.8495683627716974
31
0.0
0
LINE
8
1
62
1
10
12.703216396860858
20
1.8495683627716974
30
0.0
11
12.788792368466527
21
1.8470700791743309
31
0.0
0
LINE
8
1
62
1
10
12.788792368466527
20
1.8470700791743309
30
0.0
11
12.89318949246529
21
1.8399829507233576
31
0.0
0
LINE
8
1
62
1
10
12.89318949246529
20
1.8399829507233576
30
0.0
11
13.016152296372468
21
1.826847730655707
31
0.0
0
LINE
8
1
62
1
10
13.016152296372468
20
1.826847730655707
30
0.0
11
13.157340630773865
21
1.8062191739372198
31
0.0
0
LINE
8
1
62
1
10
13.157340630773865
20
1.8062191739372198
30
0.0
11
13.316330412985321
21
1.776670401400749
31
0.0
0
LINE
8
1
62
1
10
13.316330412985321
20
1.776670401400749
30
0.0
11
13.49261458146014
21
1.7367972256522681
31
0.0
0
LINE
8
1
62
1
10
13.49261458146014
20
1.7367972256522681
30
0.0
11
13.685604259035655
21
1.6852224289794595
31
0.0
0
LINE
8
1
62
1
10
13.685604259035655
20
1.6852224289794595
30
0.0
11
13.894630122670288
21
1.6205999835901959
31
0.0
0
LINE
8
1
62
1
10
13.894630122670288
20
1.6205999835901959
30
0.0
11
14.118943976887431
21
1.5416192046206292
31
0.0
0
LINE
8
1
62
1
10
14.118943976887431
20
1.5416192046206292
30
0.0
11
14.357720527712011
21
1.4470088264840877
31
0.0
0
LINE
8
1
62
1
10
14.357720527712011
20
1.4470088264840877
30
0.0
11
14.610059353462104
21
1.3355409932824693
31
0.0
0
LINE
8
1
62
1
10
14.610059353462104
20
1.3355409932824693
30
0.0
11
14.87498706834054
21
1.206035154170835
31
0.0
0
LINE
8
1
62
1
10
14.87498706834054
20
1.206035154170835
30
0.0
11
15.151459674362405
21
1.0573618547534378
31
0.0
0
LINE
8
1
62
1
10
15.151459674362405
20
1.0573618547534378
30
0.0
11
15.438365096753467
21
0.8884464157948162
31
0.0
0
LINE
8
1
62
1
10
15.438365096753467
20
0.8884464157948162
30
0.0
11
15.734525897563039
21
0.6982724907526321
31
0.0
0
LINE
8
1
62
1
10
15.734525897563039
20
0.6982724907526321
30
0.0
11
15.734525897563039
21
-0.6982724907526321
31
0.0
0
LINE
8
1
62
1
10
15.734525897563039
20
-0.6982724907526321
30
0.0
11
15.438365096753467
21
-0.8884464157948162
31
0.0
0
LINE
8
1
62
1
10
15.438365096753467
20
-0.8884464157948162
30
0.0
11
15.151459674362405
21
-1.0573618547534378
31
0.0
0
LINE
8
1
62
1
10
15.151459674362405
20
-1.0573618547534378
30
0.0
11
14.87498706834054
21
-1.206035154170835
31
0.0
0
LINE
8
1
62
1
10
14.87498706834054
20
-1.206035154170835
30
0.0
11
14.610059353462104
21
-1.3355409932824693
31
0.0
0
LINE
8
1
62
1
10
14.610059353462104
20
-1.3355409932824693
30
0.0
11
14.357720527712011
21
-1.4470088264840877
31
0.0
0
LINE
8
1
62
1
10
14.357720527712011
20
-1.4470088264840877
30
0.0
11
14.118943976887431
21
-1.5416192046206292
31
0.0
0
LINE
8
1
62
1
10
14.118943976887431
20
-1.5416192046206292
30
0.0
11
13.894630122670288
21
-1.6205999835901959
31
0.0
0
LINE
8
1
62
1
10
13.894630122670288
20
-1.6205999835901959
30
0.0
11
13.685604259035655
21
-1.6852224289794595
31
0.0
0
LINE
8
1
62
1
10
13.685604259035655
20
-1.6852224289794595
30
0.0
11
13.49261458146014
21
-1.7367972256522681
31
0.0
0
LINE
8
1
62
1
10
13.49261458146014
20
-1.7367972256522681
30
0.0
11
13.316330412985321
21
-1.776670401400749
31
0.0
0
LINE
8
1
62
1
10
13.316330412985321
20
-1.776670401400749
30
0.0
11
13.157340630773865
21
-1.8062191739372198
31
0.0
0
LINE
8
1
62
1
10
13.157340630773865
20
-1.8062191739372198
30
0.0
11
13.016152296372468
21
-1.826847730655707
31
0.0
0
LINE
8
1
62
1
10
13.016152296372468
20
-1.826847730655707
30
0.0
11
12.89318949246529
21
-1.8399829507233576
31
0.0
0
LINE
8
1
62
1
10
12.89318949246529
20
-1.8399829507233576
30
0.0
11
12.788792368466527
21
-1.8470700791743309
31
0.0
0
LINE
8
1
62
1
10
12.788792368466527
20
-1.8470700791743309
30
0.0
11
12.703216396860858
21
-1.8495683627716974
31
0.0
0
LINE
8
1
62
1
10
12.703216396860858
20
-1.8495683627716974
30
0.0
11
12.636631841757227
21
-1.848946657476235
31
0.0
0
LINE
8
1
62
1
10
12.636631841757227
20
-1.848946657476235
30
0.0
11
12.589123440675415
21
-1.8466790174146772
31
0.0
0
LINE
8
1
62
1
10
12.589123440675415
20
-1.8466790174146772
30
0.0
11
12.560690300136821
21
-1.8442402752738387
31
0.0
0
LINE
8
1
62
1
10
12.560690300136821
20
-1.8442402752738387
30
0.0
11
12.551246005182126
21
-1.8431016240610962
31
0.0
0
LINE
8
1
62
1
10
12.551246005182126
20
-1.8431016240610962
30
0.0
11
10.685405612473524
21
-1.5691102245920587
31
0.0
0
LINE
8
1
62
1
10
10.685405612473524
20
-1.5691102245920587
30
0.0
11
10.038387822438919
21
-3.9838134904021323
31
0.0
0
LINE
8
1
62
1
10
10.038387822438919
20
-3.9838134904021323
30
0.0
11
11.791248701666222
21
-4.679450174397797
31
0.0
0
LINE
8
1
62
1
10
11.791248701666222
20
-4.679450174397797
30
0.0
11
11.799997026624192
21
-4.68318622099886
31
0.0
0
LINE
8
1
62
1
10
11.799997026624192
20
-4.68318622099886
30
0.0
11
11.825840219710406
21
-4.695290778620911
31
0.0
0
LINE
8
1
62
1
10
11.825840219710406
20
-4.695290778620911
30
0.0
11
11.868117521971215
21
-4.717081145261869
31
0.0
0
LINE
8
1
62
1
10
11.868117521971215
20
-4.717081145261869
30
0.0
11
11.926092290838376
21
-4.749835010234146
31
0.0
0
LINE
8
1
62
1
10
11.926092290838376
20
-4.749835010234146
30
0.0
11
11.998954114403737
21
-4.794786573098158
31
0.0
0
LINE
8
1
62
1
10
11.998954114403737
20
-4.794786573098158
30
0.0
11
12.085821111643211
21
-4.853122768375965
31
0.0
0
LINE
8
1
62
1
10
12.085821111643211
20
-4.853122768375965
30
0.0
11
12.185742413513568
21
-4.925979604592439
31
0.0
0
LINE
8
1
62
1
10
12.185742413513568
20
-4.925979604592439
30
0.0
11
12.297700819463946
21
-5.014438625954756
31
0.0
0
LINE
8
1
62
1
10
12.297700819463946
20
-5.014438625954756
30
0.0
11
12.420615623532989
21
-5.119523504727715
31
0.0
0
LINE
8
1
62
1
10
12.420615623532989
20
-5.119523504727715
30
0.0
11
12.553345603842956
21
-5.242196772092871
31
0.0
0
LINE
8
1
62
1
10
12.553345603842956
20
-5.242196772092871
30
0.0
11
12.694692168955115
21
-5.383356694994298
31
0.0
0
LINE
8
1
62
1
10
12.694692168955115
20
-5.383356694994298
30
0.0
11
12.843402654216058
21
-5.543834306173389
31
0.0
0
LINE
8
1
62
1
10
12.843402654216058
20
-5.543834306173389
30
0.0
11
12.99817376090412
21
-5.7243905942802895
31
0.0
0
LINE
8
1
62
1
10
12.99817376090412
20
-5.7243905942802895
30
0.0
11
13.157655130677961
21
-5.925713860620476
31
0.0
0
LINE
8
1
62
1
10
13.157655130677961
20
-5.925713860620476
30
0.0
11
13.32045304753787
21
-6.1484172487529305
31
0.0
0
LINE
8
1
62
1
10
13.32045304753787
20
-6.1484172487529305
30
0.0
11
13.485134259233337
21
-6.393036452801244
31
0.0
0
LINE
8
1
62
1
10
13.485134259233337
20
-6.393036452801244
30
0.0
11
13.650229909790061
21
-6.660027609972094
31
0.0
0
LINE
8
1
62
1
10
13.650229909790061
20
-6.660027609972094
30
0.0
11
13.814239574584914
21
-6.9497653823971905
31
0.0
0
LINE
8
1
62
1
10
13.814239574584914
20
-6.9497653823971905
30
0.0
11
13.975635389170053
21
-7.262541233025905
31
0.0
0
LINE
8
1
62
1
10
13.975635389170053
20
-7.262541233025905
30
0.0
11
13.27736289841742
21
-8.471984664537132
31
0.0
0
LINE
8
1
62
1
10
13.27736289841742
20
-8.471984664537132
30
0.0
11
12.925793158790098
21
-8.488599714356276
31
0.0
0
LINE
8
1
62
1
10
12.925793158790098
20
-8.488599714356276
30
0.0
11
12.592868055036625
21
-8.491432064390311
31
0.0
0
LINE
8
1
62
1
10
12.592868055036625
20
-8.491432064390311
30
0.0
11
12.279099105062503
21
-8.481950615539294
31
0.0
0
LINE
8
1
62
1
10
12.279099105062503
20
-8.481950615539294
30
0.0
11
11.984912054255398
21
-8.46164210470917
31
0.0
0
LINE
8
1
62
1
10
11.984912054255398
20
-8.46164210470917
30
0.0
11
11.710646304193874
21
-8.432006667091533
31
0.0
0
LINE
8
1
62
1
10
11.710646304193874
20
-8.432006667091533
30
0.0
11
11.456554556283491
21
-8.39455338260714
31
0.0
0
LINE
8
1
62
1
10
11.456554556283491
20
-8.39455338260714
30
0.0
11
11.222802670625862
21
-8.350795816496897
31
0.0
0
LINE
8
1
62
1
10
11.222802670625862
20
-8.350795816496897
30
0.0
11
11.009469739975657
21
-8.302247564041355
31
0.0
0
LINE
8
1
62
1
10
11.009469739975657
20
-8.302247564041355
30
0.0
11
10.816548378190689
21
-8.250417809367267
31
0.0
0
LINE
8
1
62
1
10
10.816548378190689
20
-8.250417809367267
30
0.0
11
10.64394522213224
21
-8.196806908257605
31
0.0
0
LINE
8
1
62
1
10
10.64394522213224
20
-8.196806908257605
30
0.0
11
10.491481645526727
21
-8.142902004819108
31
0.0
0
LINE
8
1
62
1
10
10.491481645526727
20
-8.142902004819108
30
0.0
11
10.358894682857862
21
-8.090172691780028
31
0.0
0
LINE
8
1
62
1
10
10.358894682857862
20
-8.090172691780028
30
0.0
11
10.245838160919854
21
-8.040066724089321
31
0.0
0
LINE
8
1
62
1
10
10.245838160919854
20
-8.040066724089321
30
0.0
11
10.151884035229408
21
-7.994005795368367
31
0.0
0
LINE
8
1
62
1
10
10.151884035229408
20
-7.994005795368367
30
0.0
11
10.076523928066678
21
-7.9533813866267105
31
0.0
0
LINE
8
1
62
1
10
10.076523928066678
20
-7.9533813866267105
30
0.0
11
10.019170864494981
21
-7.9195506964953575
31
0.0
0
LINE
8
1
62
1
10
10.019170864494981
20
-7.9195506964953575
30
0.0
11
9.97916120229573
21
-7.893832662054503
31
0.0
0
LINE
8
1
62
1
10
9.97916120229573
20
-7.893832662054503
30
0.0
11
9.955756751350354
21
-7.877504079137961
31
0.0
0
LINE
8
1
62
1
10
9.955756751350354
20
-7.877504079137961
30
0.0
11
9.948147077605125
21
-7.871795830784327
31
0.0
0
LINE
8
1
62
1
10
9.948147077605125
20
-7.871795830784327
30
0.0
11
8.469277597846862
21
-6.70159212207139
31
0.0
0
LINE
8
1
62
1
10
8.469277597846862
20
-6.70159212207139
30
0.0
11
6.701592122071391
21
-8.46927759784686
31
0.0
0
LINE
8
1
62
1
10
6.701592122071391
20
-8.46927759784686
30
0.0
11
7.871795830784329
21
-9.948147077605123
31
0.0
0
LINE
8
1
62
1
10
7.871795830784329
20
-9.948147077605123
30
0.0
11
7.877504079137962
21
-9.955756751350354
31
0.0
0
LINE
8
1
62
1
10
7.877504079137962
20
-9.955756751350354
30
0.0
11
7.893832662054504
21
-9.979161202295728
31
0.0
0
LINE
8
1
62
1
10
7.893832662054504
20
-9.979161202295728
30
0.0
11
7.919550696495358
21
-10.01917086449498
31
0.0
0
LINE
8
1
62
1
10
7.919550696495358
20
-10.01917086449498
30
0.0
11
7.953381386626712
21
-10.076523928066678
31
0.0
0
LINE
8
1
62
1
10
7.953381386626712
20
-10.076523928066678
30
0.0
11
7.994005795368369
21
-10.151884035229406
31
0.0
0
LINE
8
1
62
1
10
7.994005795368369
20
-10.151884035229406
30
0.0
11
8.040066724089323
21
-10.245838160919853
31
0.0
0
LINE
8
1
62
1
10
8.040066724089323
20
-10.245838160919853
30
0.0
11
8.09017269178003
21
-10.35889468285786
31
0.0
0
LINE
8
1
62
1
10
8.09017269178003
20
-10.35889468285786
30
0.0
11
8.14290200481911
21
-10.491481645526726
31
0.0
0
LINE
8
1
62
1
10
8.14290200481911
20
-10.491481645526726
30
0.0
11
8.196806908257605
21
-10.643945222132238
31
0.0
0
LINE
8
1
62
1
10
8.196806908257605
20
-10.643945222132238
30
0.0
11
8.250417809367269
21
-10.816548378190689
31
0.0
0
LINE
8
1
62
1
10
8.250417809367269
20
-10.816548378190689
30
0.0
11
8.302247564041357
21
-11.009469739975655
31
0.0
0
LINE
8
1
62
1
10
8.302247564041357
20
-11.009469739975655
30
0.0
11
8.350795816496898
21
-11.222802670625862
31
0.0
0
LINE
8
1
62
1
10
8.350795816496898
20
-11.222802670625862
30
0.0
11
8.394553382607143
21
-11.45655455628349
31
0.0
0
LINE
8
1
62
1
10
8.394553382607143
20
-11.45655455628349
30
0.0
11
8.432006667091535
21
-11.710646304193872
31
0.0
0
LINE
8
1
62
1
10
8.432006667091535
20
-11.710646304193872
30
0.0
11
8.461642104709172
21
-11.984912054255398
31
0.0
0
LINE
8
1
62
1
10
8.461642104709172
20
-11.984912054255398
30
0.0
11
8.481950615539295
21
-12.279099105062501
31
0.0
0
LINE
8
1
62
1
10
8.481950615539295
20
-12.279099105062501
30
0.0
11
8.491432064390313
21
-12.592868055036623
31
0.0
0
LINE
8
1
62
1
10
8.491432064390313
20
-12.592868055036623
30
0.0
11
8.488599714356278
21
-12.925793158790098
31
0.0
0
LINE
8
1
62
1
10
8.488599714356278
20
-12.925793158790098
30
0.0
11
8.471984664537134
21
-13.277362898417419
31
0.0
0
LINE
8
1
62
1
10
8.471984664537134
20
-13.277362898417419
30
0.0
11
7.262541233025905
21
-13.975635389170053
31
0.0
0
LINE
8
1
62
1
10
7.262541233025905
20
-13.975635389170053
30
0.0
11
6.9497653823971905
21
-13.814239574584914
31
0.0
0
LINE
8
1
62
1
10
6.9497653823971905
20
-13.814239574584914
30
0.0
11
6.6600276099720945
21
-13.650229909790061
31
0.0
0
LINE
8
1
62
1
10
6.6600276099720945
20
-13.650229909790061
30
0.0
11
6.393036452801244
21
-13.485134259233337
31
0.0
0
LINE
8
1
62
1
10
6.393036452801244
20
-13.485134259233337
30
0.0
11
6.148417248752931
21
-13.32045304753787
31
0.0
0
LINE
8
1
62
1
10
6.148417248752931
20
-13.32045304753787
30
0.0
11
5.925713860620477
21
-13.157655130677961
31
0.0
0
LINE
8
1
62
1
10
5.925713860620477
20
-13.157655130677961
30
0.0
11
5.7243905942802895
21
-12.99817376090412
31
0.0
0
LINE
8
1
62
1
10
5.7243905942802895
20
-12.99817376090412
30
0.0
11
5.543834306173389
21
-12.843402654216057
31
0.0
0
LINE
8
1
62
1
10
5.543834306173389
20
-12.843402654216057
30
0.0
11
5.383356694994298
21
-12.694692168955115
31
0.0
0
LINE
8
1
62
1
10
5.383356694994298
20
-12.694692168955115
30
0.0
11
5.242196772092872
21
-12.553345603842956
31
0.0
0
LINE
8
1
62
1
10
5.242196772092872
20
-12.553345603842956
30
0.0
11
5.119523504727716
21
-12.420615623532989
31
0.0
0
LINE
8
1
62
1
10
5.119523504727716
20
-12.420615623532989
30
0.0
11
5.014438625954757
21
-12.297700819463946
31
0.0
0
LINE
8
1
62
1
10
5.014438625954757
20
-12.297700819463946
30
0.0
11
4.92597960459244
21
-12.185742413513568
31
0.0
0
LINE
8
1
62
1
10
4.92597960459244
20
-12.185742413513568
30
0.0
11
4.8531227683759655
21
-12.085821111643211
31
0.0
0
LINE
8
1
62
1
10
4.8531227683759655
20
-12.085821111643211
30
0.0
11
4.7947865730981585
21
-11.998954114403737
31
0.0
0
LINE
8
1
62
1
10
4.7947865730981585
20
-11.998954114403737
30
0.0
11
4.749835010234147
21
-11.926092290838376
31
0.0
0
LINE
8
1
62
1
10
4.749835010234147
20
-11.926092290838376
30
0.0
11
4.717081145261869
21
-11.868117521971215
31
0.0
0
LINE
8
1
62
1
10
4.717081145261869
20
-11.868117521971215
30
0.0
11
4.695290778620911
21
-11.825840219710406
31
0.0
0
LINE
8
1
62
1
10
4.695290778620911
20
-11.825840219710406
30
0.0
11
4.683186220998861
21
-11.799997026624192
31
0.0
0
LINE
8
1
62
1
10
4.683186220998861
20
-11.799997026624192
30
0.0
11
4.679450174397798
21
-11.791248701666222
31
0.0
0
LINE
8
1
62
1
10
4.679450174397798
20
-11.791248701666222
30
0.0
11
3.983813490402133
21
-10.038387822438919
31
0.0
0
LINE
8
1
62
1
10
3.983813490402133
20
-10.038387822438919
30
0.0
11
1.5691102245920603
21
-10.685405612473524
31
0.0
0
LINE
8
1
62
1
10
1.5691102245920603
20
-10.685405612473524
30
0.0
11
1.843101624061098
21
-12.551246005182126
31
0.0
0
LINE
8
1
62
1
10
1.843101624061098
20
-12.551246005182126
30
0.0
11
1.8442402752738405
21
-12.560690300136821
31
0.0
0
LINE
8
1
62
1
10
1.8442402752738405
20
-12.560690300136821
30
0.0
11
1.846679017414679
21
-12.589123440675415
31
0.0
0
LINE
8
1
62
1
10
1.846679017414679
20
-12.589123440675415
30
0.0
11
1.8489466574762368
21
-12.636631841757227
31
0.0
0
LINE
8
1
62
1
10
1.8489466574762368
20
-12.636631841757227
30
0.0
11
1.8495683627716992
21
-12.703216396860858
31
0.0
0
LINE
8
1
62
1
10
1.8495683627716992
20
-12.703216396860858
30
0.0
11
1.8470700791743326
21
-12.788792368466527
31
0.0
0
LINE
8
1
62
1
10
1.8470700791743326
20
-12.788792368466527
30
0.0
11
1.8399829507233596
21
-12.89318949246529
31
0.0
0
LINE
8
1
62
1
10
1.8399829507233596
20
-12.89318949246529
30
0.0
11
1.8268477306557087
21
-13.016152296372468
31
0.0
0
LINE
8
1
62
1
10
1.8268477306557087
20
-13.016152296372468
30
0.0
11
1.8062191739372218
21
-13.157340630773865
31
0.0
0
LINE
8
1
62
1
10
1.8062191739372218
20
-13.157340630773865
30
0.0
11
1.7766704014007508
21
-13.316330412985321
31
0.0
0
LINE
8
1
62
1
10
1.7766704014007508
20
-13.316330412985321
30
0.0
11
1.73679722565227
21
-13.49261458146014
31
0.0
0
LINE
8
1
62
1
10
1.73679722565227
20
-13.49261458146014
30
0.0
11
1.6852224289794613
21
-13.685604259035655
31
0.0
0
LINE
8
1
62
1
10
1.6852224289794613
20
-13.685604259035655
30
0.0
11
1.620599983590198
21
-13.894630122670288
31
0.0
0
LINE
8
1
62
1
10
1.620599983590198
20
-13.894630122670288
30
0.0
11
1.541619204620631
21
-14.118943976887431
31
0.0
0
LINE
8
1
62
1
10
1.541619204620631
20
-14.118943976887431
30
0.0
11
1.44700882648409
21
-14.357720527712011
31
0.0
0
LINE
8
1
62
1
10
1.44700882648409
20
-14.357720527712011
30
0.0
11
1.3355409932824716
21
-14.610059353462104
31
0.0
0
LINE
8
1
62
1
10
1.3355409932824716
20
-14.610059353462104
30
0.0
11
1.2060351541708372
21
-14.874987068340541
31
0.0
0
LINE
8
1
62
1
10
1.2060351541708372
20
-14.874987068340541
30
0.0
11
1.05736185475344
21
-15.151459674362407
31
0.0
0
LINE
8
1
62
1
10
1.05736185475344
20
-15.151459674362407
30
0.0
11
0.8884464157948184
21
-15.438365096753467
31
0.0
0
LINE
8
1
62
1
10
0.8884464157948184
20
-15.438365096753467
30
0.0
11
0.6982724907526343
21
-15.734525897563039
31
0.0
0
LINE
8
1
62
1
10
0.6982724907526343
20
-15.734525897563039
30
0.0
11
-0.6982724907526325
21
-15.734525897563039
31
0.0
0
LINE
8
1
62
1
10
-0.6982724907526325
20
-15.734525897563039
30
0.0
11
-0.8884464157948166
21
-15.438365096753467
31
0.0
0
LINE
8
1
62
1
10
-0.8884464157948166
20
-15.438365096753467
30
0.0
11
-1.0573618547534382
21
-15.151459674362405
31
0.0
0
LINE
8
1
62
1
10
-1.0573618547534382
20
-15.151459674362405
30
0.0
11
-1.2060351541708354
21
-14.87498706834054
31
0.0
0
LINE
8
1
62
1
10
-1.2060351541708354
20
-14.87498706834054
30
0.0
11
-1.3355409932824698
21
-14.610059353462104
31
0.0
0
LINE
8
1
62
1
10
-1.3355409932824698
20
-14.610059353462104
30
0.0
11
-1.4470088264840881
21
-14.357720527712011
31
0.0
0
LINE
8
1
62
1
10
-1.4470088264840881
20
-14.357720527712011
30
0.0
11
-1.5416192046206292
21
-14.118943976887431
31
0.0
0
LINE
8
1
62
1
10
-1.5416192046206292
20
-14.118943976887431
30
0.0
11
-1.6205999835901963
21
-13.894630122670288
31
0.0
0
LINE
8
1
62
1
10
-1.6205999835901963
20
-13.894630122670288
30
0.0
11
-1.68522242897946
21
-13.685604259035655
31
0.0
0
LINE
8
1
62
1
10
-1.68522242897946
20
-13.685604259035655
30
0.0
11
-1.7367972256522686
21
-13.49261458146014
31
0.0
0
LINE
8
1
62
1
10
-1.7367972256522686
20
-13.49261458146014
30
0.0
11
-1.7766704014007493
21
-13.316330412985321
31
0.0
0
LINE
8
1
62
1
10
-1.7766704014007493
20
-13.316330412985321
30
0.0
11
-1.8062191739372202
21
-13.157340630773865
31
0.0
0
LINE
8
1
62
1
10
-1.8062191739372202
20
-13.157340630773865
30
0.0
11
-1.8268477306557074
21
-13.016152296372468
31
0.0
0
LINE
8
1
62
1
10
-1.8268477306557074
20
-13.016152296372468
30
0.0
11
-1.839982950723358
21
-12.89318949246529
31
0.0
0
LINE
8
1
62
1
10
-1.839982950723358
20
-12.89318949246529
30
0.0
11
-1.847070079174331
21
-12.788792368466527
31
0.0
0
LINE
8
1
62
1
10
-1.847070079174331
20
-12.788792368466527
30
0.0
11
-1.849568362771698
21
-12.703216396860858
31
0.0
0
LINE
8
1
62
1
10
-1.849568362771698
20
-12.703216396860858
30
0.0
11
-1.8489466574762354
21
-12.636631841757227
31
0.0
0
LINE
8
1
62
1
10
-1.8489466574762354
20
-12.636631841757227
30
0.0
11
-1.8466790174146774
21
-12.589123440675415
31
0.0
0
LINE
8
1
62
1
10
-1.8466790174146774
20
-12.589123440675415
30
0.0
11
-1.8442402752738392
21
-12.560690300136821
31
0.0
0
LINE
8
1
62
1
10
-1.8442402752738392
20
-12.560690300136821
30
0.0
11
-1.8431016240610967
21
-12.551246005182126
31
0.0
0
LINE
8
1
62
1
10
-1.8431016240610967
20
-12.551246005182126
30
0.0
11
-1.569110224592059
21
-10.685405612473524
31
0.0
0
LINE
8
1
62
1
10
-1.569110224592059
20
-10.685405612473524
30
0.0
11
-3.983813490402132
21
-10.038387822438919
31
0.0
0
LINE
8
1
62
1
10
-3.983813490402132
20
-10.038387822438919
30
0.0
11
-4.679450174397796
21
-11.791248701666222
31
0.0
0
LINE
8
1
62
1
10
-4.679450174397796
20
-11.791248701666222
30
0.0
11
-4.683186220998859
21
-11.799997026624192
31
0.0
0
LINE
8
1
62
1
10
-4.683186220998859
20
-11.799997026624192
30
0.0
11
-4.69529077862091
21
-11.825840219710406
31
0.0
0
LINE
8
1
62
1
10
-4.69529077862091
20
-11.825840219710406
30
0.0
11
-4.717081145261868
21
-11.868117521971215
31
0.0
0
LINE
8
1
62
1
10
-4.717081145261868
20
-11.868117521971215
30
0.0
11
-4.749835010234145
21
-11.926092290838376
31
0.0
0
LINE
8
1
62
1
10
-4.749835010234145
20
-11.926092290838376
30
0.0
11
-4.794786573098157
21
-11.998954114403737
31
0.0
0
LINE
8
1
62
1
10
-4.794786573098157
20
-11.998954114403737
30
0.0
11
-4.853122768375964
21
-12.085821111643211
31
0.0
0
LINE
8
1
62
1
10
-4.853122768375964
20
-12.085821111643211
30
0.0
11
-4.925979604592438
21
-12.185742413513568
31
0.0
0
LINE
8
1
62
1
10
-4.925979604592438
20
-12.185742413513568
30
0.0
11
-5.014438625954755
21
-12.297700819463946
31
0.0
0
LINE
8
1
62
1
10
-5.014438625954755
20
-12.297700819463946
30
0.0
11
-5.119523504727715
21
-12.420615623532989
31
0.0
0
LINE
8
1
62
1
10
-5.119523504727715
20
-12.420615623532989
30
0.0
11
-5.242196772092871
21
-12.553345603842956
31
0.0
0
LINE
8
1
62
1
10
-5.242196772092871
20
-12.553345603842956
30
0.0
11
-5.383356694994297
21
-12.694692168955115
31
0.0
0
LINE
8
1
62
1
10
-5.383356694994297
20
-12.694692168955115
30
0.0
11
-5.543834306173388
21
-12.843402654216058
31
0.0
0
LINE
8
1
62
1
10
-5.543834306173388
20
-12.843402654216058
30
0.0
11
-5.724390594280289
21
-12.99817376090412
31
0.0
0
LINE
8
1
62
1
10
-5.724390594280289
20
-12.99817376090412
30
0.0
11
-5.925713860620475
21
-13.157655130677961
31
0.0
0
LINE
8
1
62
1
10
-5.925713860620475
20
-13.157655130677961
30
0.0
11
-6.14841724875293
21
-13.32045304753787
31
0.0
0
LINE
8
1
62
1
10
-6.14841724875293
20
-13.32045304753787
30
0.0
11
-6.393036452801244
21
-13.485134259233337
31
0.0
0
LINE
8
1
62
1
10
-6.393036452801244
20
-13.485134259233337
30
0.0
11
-6.660027609972093
21
-13.650229909790061
31
0.0
0
LINE
8
1
62
1
10
-6.660027609972093
20
-13.650229909790061
30
0.0
11
-6.949765382397189
21
-13.814239574584914
31
0.0
0
LINE
8
1
62
1
10
-6.949765382397189
20
-13.814239574584914
30
0.0
11
-7.262541233025904
21
-13.975635389170053
31
0.0
0
LINE
8
1
62
1
10
-7.262541233025904
20
-13.975635389170053
30
0.0
11
-8.471984664537125
21
-13.277362898417426
31
0.0
0
LINE
8
1
62
1
10
-8.471984664537125
20
-13.277362898417426
30
0.0
11
-8.488599714356269
21
-12.925793158790102
31
0.0
0
LINE
8
1
62
1
10
-8.488599714356269
20
-12.925793158790102
30
0.0
11
-8.491432064390304
21
-12.592868055036629
31
0.0
0
LINE
8
1
62
1
10
-8.491432064390304
20
-12.592868055036629
30
0.0
11
-8.481950615539287
21
-12.279099105062507
31
0.0
0
LINE
8
1
62
1
10
-8.481950615539287
20
-12.279099105062507
30
0.0
11
-8.461642104709165
21
-11.984912054255403
31
0.0
0
LINE
8
1
62
1
10
-8.461642104709165
20
-11.984912054255403
30
0.0
11
-8.432006667091528
21
-11.71064630419388
31
0.0
0
LINE
8
1
62
1
10
-8.432006667091528
20
-11.71064630419388
30
0.0
11
-8.394553382607134
21
-11.456554556283496
31
0.0
0
LINE
8
1
62
1
10
-8.394553382607134
20
-11.456554556283496
30
0.0
11
-8.35079581649689
21
-11.222802670625867
31
0.0
0
LINE
8
1
62
1
10
-8.35079581649689
20
-11.222802670625867
30
0.0
11
-8.30224756404135
21
-11.009469739975659
31
0.0
0
LINE
8
1
62
1
10
-8.30224756404135
20
-11.009469739975659
30
0.0
11
-8.250417809367262
21
-10.816548378190694
31
0.0
0
LINE
8
1
62
1
10
-8.250417809367262
20
-10.816548378190694
30
0.0
11
-8.196806908257598
21
-10.643945222132244
31
0.0
0
LINE
8
1
62
1
10
-8.196806908257598
20
-10.643945222132244
30
0.0
11
-8.142902004819103
21
-10.491481645526731
31
0.0
0
LINE
8
1
62
1
10
-8.142902004819103
20
-10.491481645526731
30
0.0
11
-8.090172691780023
21
-10.358894682857866
31
0.0
0
LINE
8
1
62
1
10
-8.090172691780023
20
-10.358894682857866
30
0.0
11
-8.040066724089316
21
-10.24583816091986
31
0.0
0
LINE
8
1
62
1
10
-8.040066724089316
20
-10.24583816091986
30
0.0
11
-7.994005795368362
21
-10.151884035229411
31
0.0
0
LINE
8
1
62
1
10
-7.994005795368362
20
-10.151884035229411
30
0.0
11
-7.953381386626705
21
-10.076523928066683
31
0.0
0
LINE
8
1
62
1
10
-7.953381386626705
20
-10.076523928066683
30
0.0
11
-7.919550696495351
21
-10.019170864494985
31
0.0
0
LINE
8
1
62
1
10
-7.919550696495351
20
-10.019170864494985
30
0.0
11
-7.893832662054497
21
-9.979161202295733
31
0.0
0
LINE
8
1
62
1
10
-7.893832662054497
20
-9.979161202295733
30
0.0
11
-7.877504079137955
21
-9.955756751350359
31
0.0
0
LINE
8
1
62
1
10
-7.877504079137955
20
-9.955756751350359
30
0.0
11
-7.871795830784322
21
-9.94814707760513
31
0.0
0
LINE
8
1
62
1
10
-7.871795830784322
20
-9.94814707760513
30
0.0
11
-6.701592122071386
21
-8.469277597846865
31
0.0
0
LINE
8
1
62
1
10
-6.701592122071386
20
-8.469277597846865
30
0.0
11
-8.469277597846864
21
-6.701592122071387
31
0.0
0
LINE
8
1
62
1
10
-8.469277597846864
20
-6.701592122071387
30
0.0
11
-9.948147077605128
21
-7.8717958307843245
31
0.0
0
LINE
8
1
62
1
10
-9.948147077605128
20
-7.8717958307843245
30
0.0
11
-9.955756751350357
21
-7.877504079137958
31
0.0
0
LINE
8
1
62
1
10
-9.955756751350357
20
-7.877504079137958
30
0.0
11
-9.979161202295732
21
-7.893832662054501
31
0.0
0
LINE
8
1
62
1
10
-9.979161202295732
20
-7.893832662054501
30
0.0
11
-10.019170864494983
21
-7.919550696495354
31
0.0
0
LINE
8
1
62
1
10
-10.019170864494983
20
-7.919550696495354
30
0.0
11
-10.076523928066681
21
-7.953381386626708
31
0.0
0
LINE
8
1
62
1
10
-10.076523928066681
20
-7.953381386626708
30
0.0
11
-10.151884035229411
21
-7.994005795368365
31
0.0
0
LINE
8
1
62
1
10
-10.151884035229411
20
-7.994005795368365
30
0.0
11
-10.245838160919858
21
-8.04006672408932
31
0.0
0
LINE
8
1
62
1
10
-10.245838160919858
20
-8.04006672408932
30
0.0
11
-10.358894682857864
21
-8.090172691780024
31
0.0
0
LINE
8
1
62
1
10
-10.358894682857864
20
-8.090172691780024
30
0.0
11
-10.49148164552673
21
-8.142902004819105
31
0.0
0
LINE
8
1
62
1
10
-10.49148164552673
20
-8.142902004819105
30
0.0
11
-10.643945222132242
21
-8.196806908257601
31
0.0
0
LINE
8
1
62
1
10
-10.643945222132242
20
-8.196806908257601
30
0.0
11
-10.816548378190692
21
-8.250417809367265
31
0.0
0
LINE
8
1
62
1
10
-10.816548378190692
20
-8.250417809367265
30
0.0
11
-11.009469739975659
21
-8.302247564041352
31
0.0
0
LINE
8
1
62
1
10
-11.009469739975659
20
-8.302247564041352
30
0.0
11
-11.222802670625866
21
-8.350795816496893
31
0.0
0
LINE
8
1
62
1
10
-11.222802670625866
20
-8.350795816496893
30
0.0
11
-11.456554556283495
21
-8.394553382607137
31
0.0
0
LINE
8
1
62
1
10
-11.456554556283495
20
-8.394553382607137
30
0.0
11
-11.710646304193878
21
-8.43200666709153
31
0.0
0
LINE
8
1
62
1
10
-11.710646304193878
20
-8.43200666709153
30
0.0
11
-11.984912054255402
21
-8.461642104709169
31
0.0
0
LINE
8
1
62
1
10
-11.984912054255402
20
-8.461642104709169
30
0.0
11
-12.279099105062507
21
-8.48195061553929
31
0.0
0
LINE
8
1
62
1
10
-12.279099105062507
20
-8.48195061553929
30
0.0
11
-12.592868055036627
21
-8.491432064390308
31
0.0
0
LINE
8
1
62
1
10
-12.592868055036627
20
-8.491432064390308
30
0.0
11
-12.9257931587901
21
-8.488599714356273
31
0.0
0
LINE
8
1
62
1
10
-12.9257931587901
20
-8.488599714356273
30
0.0
11
-13.277362898417424
21
-8.471984664537128
31
0.0
0
LINE
8
1
62
1
10
-13.277362898417424
20
-8.471984664537128
30
0.0
11
-13.975635389170051
21
-7.262541233025909
31
0.0
0
LINE
8
1
62
1
10
-13.975635389170051
20
-7.262541233025909
30
0.0
11
-13.81423957458491
21
-6.949765382397195
31
0.0
0
LINE
8
1
62
1
10
-13.81423957458491
20
-6.949765382397195
30
0.0
11
-13.65022990979006
21
-6.660027609972098
31
0.0
0
LINE
8
1
62
1
10
-13.65022990979006
20
-6.660027609972098
30
0.0
11
-13.485134259233336
21
-6.393036452801248
31
0.0
0
LINE
8
1
62
1
10
-13.485134259233336
20
-6.393036452801248
30
0.0
11
-13.320453047537866
21
-6.148417248752935
31
0.0
0
LINE
8
1
62
1
10
-13.320453047537866
20
-6.148417248752935
30
0.0
11
-13.157655130677961
21
-5.9257138606204816
31
0.0
0
LINE
8
1
62
1
10
-13.157655130677961
20
-5.9257138606204816
30
0.0
11
-12.998173760904118
21
-5.724390594280294
31
0.0
0
LINE
8
1
62
1
10
-12.998173760904118
20
-5.724390594280294
30
0.0
11
-12.843402654216055
21
-5.543834306173394
31
0.0
0
LINE
8
1
62
1
10
-12.843402654216055
20
-5.543834306173394
30
0.0
11
-12.694692168955113
21
-5.383356694994302
31
0.0
0
LINE
8
1
62
1
10
-12.694692168955113
20
-5.383356694994302
30
0.0
11
-12.553345603842956
21
-5.242196772092877
31
0.0
0
LINE
8
1
62
1
10
-12.553345603842956
20
-5.242196772092877
30
0.0
11
-12.420615623532987
21
-5.119523504727719
31
0.0
0
LINE
8
1
62
1
10
-12.420615623532987
20
-5.119523504727719
30
0.0
11
-12.297700819463946
21
-5.01443862595476
31
0.0
0
LINE
8
1
62
1
10
-12.297700819463946
20
-5.01443862595476
30
0.0
11
-12.185742413513566
21
-4.9259796045924436
31
0.0
0
LINE
8
1
62
1
10
-12.185742413513566
20
-4.9259796045924436
30
0.0
11
-12.08582111164321
21
-4.853122768375969
31
0.0
0
LINE
8
1
62
1
10
-12.08582111164321
20
-4.853122768375969
30
0.0
11
-11.998954114403736
21
-4.794786573098162
31
0.0
0
LINE
8
1
62
1
10
-11.998954114403736
20
-4.794786573098162
30
0.0
11
-11.926092290838374
21
-4.7498350102341504
31
0.0
0
LINE
8
1
62
1
10
-11.926092290838374
20
-4.7498350102341504
30
0.0
11
-11.868117521971213
21
-4.717081145261872
31
0.0
0
LINE
8
1
62
1
10
-11.868117521971213
20
-4.717081145261872
30
0.0
11
-11.825840219710406
21
-4.695290778620914
31
0.0
0
LINE
8
1
62
1
10
-11.825840219710406
20
-4.695290778620914
30
0.0
11
-11.799997026624192
21
-4.683186220998864
31
0.0
0
LINE
8
1
62
1
10
-11.799997026624192
20
-4.683186220998864
30
0.0
11
-11.79124870166622
21
-4.6794501743978
31
0.0
0
LINE
8
1
62
1
10
-11.79124870166622
20
-4.6794501743978
30
0.0
11
-10.038387822438919
21
-3.983813490402136
31
0.0
0
LINE
8
1
62
1
10
-10.038387822438919
20
-3.983813490402136
30
0.0
11
-10.685405612473524
21
-1.569110224592056
31
0.0
0
LINE
8
1
62
1
10
-10.685405612473524
20
-1.569110224592056
30
0.0
11
-12.551246005182126
21
-1.8431016240610931
31
0.0
0
LINE
8
1
62
1
10
-12.551246005182126
20
-1.8431016240610931
30
0.0
11
-12.560690300136821
21
-1.8442402752738356
31
0.0
0
LINE
8
1
62
1
10
-12.560690300136821
20
-1.8442402752738356
30
0.0
11
-12.589123440675415
21
-1.8466790174146739
31
0.0
0
LINE
8
1
62
1
10
-12.589123440675415
20
-1.8466790174146739
30
0.0
11
-12.636631841757227
21
-1.8489466574762319
31
0.0
0
LINE
8
1
62
1
10
-12.636631841757227
20
-1.8489466574762319
30
0.0
11
-12.703216396860858
21
-1.8495683627716943
31
0.0
0
LINE
8
1
62
1
10
-12.703216396860858
20
-1.8495683627716943
30
0.0
11
-12.788792368466527
21
-1.8470700791743275
31
0.0
0
LINE
8
1
62
1
10
-12.788792368466527
20
-1.8470700791743275
30
0.0
11
-12.89318949246529
21
-1.8399829507233545
31
0.0
0
LINE
8
1
62
1
10
-12.89318949246529
20
-1.8399829507233545
30
0.0
11
-13.016152296372468
21
-1.8268477306557036
31
0.0
0
LINE
8
1
62
1
10
-13.016152296372468
20
-1.8268477306557036
30
0.0
11
-13.157340630773865
21
-1.8062191739372166
31
0.0
0
LINE
8
1
62
1
10
-13.157340630773865
20
-1.8062191739372166
30
0.0
11
-13.316330412985321
21
-1.7766704014007457
31
0.0
0
LINE
8
1
62
1
10
-13.316330412985321
20
-1.7766704014007457
30
0.0
11
-13.49261458146014
21
-1.7367972256522648
31
0.0
0
LINE
8
1
62
1
10
-13.49261458146014
20
-1.7367972256522648
30
0.0
11
-13.685604259035655
21
-1.685222428979456
31
0.0
0
LINE
8
1
62
1
10
-13.685604259035655
20
-1.685222428979456
30
0.0
11
-13.894630122670288
21
-1.6205999835901923
31
0.0
0
LINE
8
1
62
1
10
-13.894630122670288
20
-1.6205999835901923
30
0.0
11
-14.118943976887431
21
-1.5416192046206256
31
0.0
0
LINE
8
1
62
1
10
-14.118943976887431
20
-1.5416192046206256
30
0.0
11
-14.357720527712011
21
-1.4470088264840841
31
0.0
0
LINE
8
1
62
1
10
-14.357720527712011
20
-1.4470088264840841
30
0.0
11
-14.610059353462104
21
-1.3355409932824658
31
0.0
0
LINE
8
1
62
1
10
-14.610059353462104
20
-1.3355409932824658
30
0.0
11
-14.87498706834054
21
-1.2060351541708314
31
0.0
0
LINE
8
1
62
1
10
-14.87498706834054
20
-1.2060351541708314
30
0.0
11
-15.151459674362405
21
-1.0573618547534342
31
0.0
0
LINE
8
1
62
1
10
-15.151459674362405
20
-1.0573618547534342
30
0.0
11
-15.438365096753467
21
-0.8884464157948122
31
0.0
0
LINE
8
1
62
1
10
-15.438365096753467
20
-0.8884464157948122
30
0.0
11
-15.734525897563039
21
-0.6982724907526281
31
0.0
0
LINE
8
1
62
1
10
-15.734525897563039
20
-0.6982724907526281
30
0.0
11
-15.734525897563039
21
0.6982724907526245
31
0.0
0
LINE
8
1
62
1
10
-15.734525897563039
20
0.6982724907526245
30
0.0
11
-15.438365096753467
21
0.8884464157948087
31
0.0
0
LINE
8
1
62
1
10
-15.438365096753467
20
0.8884464157948087
30
0.0
11
-15.151459674362405
21
1.0573618547534307
31
0.0
0
LINE
8
1
62
1
10
-15.151459674362405
20
1.0573618547534307
30
0.0
11
-14.87498706834054
21
1.2060351541708278
31
0.0
0
LINE
8
1
62
1
10
-14.87498706834054
20
1.2060351541708278
30
0.0
11
-14.610059353462104
21
1.3355409932824627
31
0.0
0
LINE
8
1
62
1
10
-14.610059353462104
20
1.3355409932824627
30
0.0
11
-14.357720527712011
21
1.447008826484081
31
0.0
0
LINE
8
1
62
1
10
-14.357720527712011
20
1.447008826484081
30
0.0
11
-14.118943976887431
21
1.541619204620622
31
0.0
0
LINE
8
1
62
1
10
-14.118943976887431
20
1.541619204620622
30
0.0
11
-13.894630122670288
21
1.6205999835901892
31
0.0
0
LINE
8
1
62
1
10
-13.894630122670288
20
1.6205999835901892
30
0.0
11
-13.685604259035653
21
1.6852224289794528
31
0.0
0
LINE
8
1
62
1
10
-13.685604259035653
20
1.6852224289794528
30
0.0
11
-13.49261458146014
21
1.7367972256522617
31
0.0
0
LINE
8
1
62
1
10
-13.49261458146014
20
1.7367972256522617
30
0.0
11
-13.316330412985321
21
1.7766704014007426
31
0.0
0
LINE
8
1
62
1
10
-13.316330412985321
20
1.7766704014007426
30
0.0
11
-13.157340630773865
21
1.8062191739372135
31
0.0
0
LINE
8
1
62
1
10
-13.157340630773865
20
1.8062191739372135
30
0.0
11
-13.016152296372468
21
1.8268477306557007
31
0.0
0
LINE
8
1
62
1
10
-13.016152296372468
20
1.8268477306557007
30
0.0
11
-12.89318949246529
21
1.8399829507233516
31
0.0
0
LINE
8
1
62
1
10
-12.89318949246529
20
1.8399829507233516
30
0.0
11
-12.788792368466527
21
1.8470700791743246
31
0.0
0
LINE
8
1
62
1
10
-12.788792368466527
20
1.8470700791743246
30
0.0
11
-12.703216396860858
21
1.8495683627716915
31
0.0
0
LINE
8
1
62
1
10
-12.703216396860858
20
1.8495683627716915
30
0.0
11
-12.636631841757227
21
1.848946657476229
31
0.0
0
LINE
8
1
62
1
10
-12.636631841757227
20
1.848946657476229
30
0.0
11
-12.589123440675415
21
1.8466790174146712
31
0.0
0
LINE
8
1
62
1
10
-12.589123440675415
20
1.8466790174146712
30
0.0
11
-12.560690300136821
21
1.8442402752738327
31
0.0
0
LINE
8
1
62
1
10
-12.560690300136821
20
1.8442402752738327
30
0.0
11
-12.551246005182126
21
1.8431016240610902
31
0.0
0
LINE
8
1
62
1
10
-12.551246005182126
20
1.8431016240610902
30
0.0
11
-10.685405612473524
21
1.5691102245920536
31
0.0
0
LINE
8
1
62
1
10
-10.685405612473524
20
1.5691102245920536
30
0.0
11
-10.038387822438919
21
3.9838134904021336
31
0.0
0
LINE
8
1
62
1
10
-10.038387822438919
20
3.9838134904021336
30
0.0
11
-11.791248701666222
21
4.679450174397798
31
0.0
0
LINE
8
1
62
1
10
-11.791248701666222
20
4.679450174397798
30
0.0
11
-11.799997026624192
21
4.683186220998861
31
0.0
0
LINE
8
1
62
1
10
-11.799997026624192
20
4.683186220998861
30
0.0
11
-11.825840219710406
21
4.695290778620912
31
0.0
0
LINE
8
1
62
1
10
-11.825840219710406
20
4.695290778620912
30
0.0
11
-11.868117521971215
21
4.7170811452618695
31
0.0
0
LINE
8
1
62
1
10
-11.868117521971215
20
4.7170811452618695
30
0.0
11
-11.926092290838376
21
4.749835010234147
31
0.0
0
LINE
8
1
62
1
10
-11.926092290838376
20
4.749835010234147
30
0.0
11
-11.998954114403737
21
4.794786573098159
31
0.0
0
LINE
8
1
62
1
10
-11.998954114403737
20
4.794786573098159
30
0.0
11
-12.085821111643211
21
4.853122768375966
31
0.0
0
LINE
8
1
62
1
10
-12.085821111643211
20
4.853122768375966
30
0.0
11
-12.185742413513568
21
4.925979604592441
31
0.0
0
LINE
8
1
62
1
10
-12.185742413513568
20
4.925979604592441
30
0.0
11
-12.297700819463946
21
5.0144386259547575
31
0.0
0
LINE
8
1
62
1
10
-12.297700819463946
20
5.0144386259547575
30
0.0
11
-12.420615623532989
21
5.119523504727717
31
0.0
0
LINE
8
1
62
1
10
-12.420615623532989
20
5.119523504727717
30
0.0
11
-12.553345603842956
21
5.242196772092873
31
0.0
0
LINE
8
1
62
1
10
-12.553345603842956
20
5.242196772092873
30
0.0
11
-12.694692168955115
21
5.383356694994299
31
0.0
0
LINE
8
1
62
1
10
-12.694692168955115
20
5.383356694994299
30
0.0
11
-12.843402654216057
21
5.54383430617339
31
0.0
0
LINE
8
1
62
1
10
-12.843402654216057
20
5.54383430617339
30
0.0
11
-12.99817376090412
21
5.72439059428029
31
0.0
0
LINE
8
1
62
1
10
-12.99817376090412
20
5.72439059428029
30
0.0
11
-13.157655130677961
21
5.925713860620478
31
0.0
0
LINE
8
1
62
1
10
-13.157655130677961
20
5.925713860620478
30
0.0
11
-13.32045304753787
21
6.148417248752931
31
0.0
0
LINE
8
1
62
1
10
-13.32045304753787
20
6.148417248752931
30
0.0
11
-13.485134259233337
21
6.393036452801246
31
0.0
0
LINE
8
1
62
1
10
-13.485134259233337
20
6.393036452801246
30
0.0
11
-13.650229909790061
21
6.660027609972095
31
0.0
0
LINE
8
1
62
1
10
-13.650229909790061
20
6.660027609972095
30
0.0
11
-13.814239574584914
21
6.949765382397192
31
0.0
0
LINE
8
1
62
1
10
-13.814239574584914
20
6.949765382397192
30
0.0
11
-13.975635389170053
21
7.262541233025906
31
0.0
0
LINE
8
1
62
1
10
-13.975635389170053
20
7.262541233025906
30
0.0
11
-13.277362898417426
21
8.471984664537125
31
0.0
0
LINE
8
1
62
1
10
-13.277362898417426
20
8.471984664537125
30
0.0
11
-12.925793158790102
21
8.488599714356269
31
0.0
0
LINE
8
1
62
1
10
-12.925793158790102
20
8.488599714356269
30
0.0
11
-12.592868055036629
21
8.491432064390304
31
0.0
0
LINE
8
1
62
1
10
-12.592868055036629
20
8.491432064390304
30
0.0
11
-12.279099105062507
21
8.481950615539287
31
0.0
0
LINE
8
1
62
1
10
-12.279099105062507
20
8.481950615539287
30
0.0
11
-11.984912054255403
21
8.461642104709165
31
0.0
0
LINE
8
1
62
1
10
-11.984912054255403
20
8.461642104709165
30
0.0
11
-11.71064630419388
21
8.432006667091528
31
0.0
0
LINE
8
1
62
1
10
-11.71064630419388
20
8.432006667091528
30
0.0
11
-11.456554556283496
21
8.394553382607134
31
0.0
0
LINE
8
1
62
1
10
-11.456554556283496
20
8.394553382607134
30
0.0
11
-11.222802670625867
21
8.35079581649689
31
0.0
0
LINE
8
1
62
1
10
-11.222802670625867
20
8.35079581649689
30
0.0
11
-11.009469739975659
21
8.30224756404135
31
0.0
0
LINE
8
1
62
1
10
-11.009469739975659
20
8.30224756404135
30
0.0
11
-10.816548378190694
21
8.250417809367262
31
0.0
0
LINE
8
1
62
1
10
-10.816548378190694
20
8.250417809367262
30
0.0
11
-10.643945222132244
21
8.196806908257598
31
0.0
0
LINE
8
1
62
1
10
-10.643945222132244
20
8.196806908257598
30
0.0
11
-10.491481645526731
21
8.142902004819103
31
0.0
0
LINE
8
1
62
1
10
-10.491481645526731
20
8.142902004819103
30
0.0
11
-10.358894682857866
21
8.090172691780023
31
0.0
0
LINE
8
1
62
1
10
-10.358894682857866
20
8.090172691780023
30
0.0
11
-10.24583816091986
21
8.040066724089316
31
0.0
0
LINE
8
1
62
1
10
-10.24583816091986
20
8.040066724089316
30
0.0
11
-10.151884035229411
21
7.994005795368362
31
0.0
0
LINE
8
1
62
1
10
-10.151884035229411
20
7.994005795368362
30
0.0
11
-10.076523928066683
21
7.953381386626705
31
0.0
0
LINE
8
1
62
1
10
-10.076523928066683
20
7.953381386626705
30
0.0
11
-10.019170864494985
21
7.919550696495351
31
0.0
0
LINE
8
1
62
1
10
-10.019170864494985
20
7.919550696495351
30
0.0
11
-9.979161202295733
21
7.893832662054497
31
0.0
0
LINE
8
1
62
1
10
-9.979161202295733
20
7.893832662054497
30
0.0
11
-9.955756751350359
21
7.877504079137955
31
0.0
0
LINE
8
1
62
1
10
-9.955756751350359
20
7.877504079137955
30
0.0
11
-9.94814707760513
21
7.871795830784322
31
0.0
0
LINE
8
1
62
1
10
-9.94814707760513
20
7.871795830784322
30
0.0
11
-8.469277597846865
21
6.701592122071386
31
0.0
0
LINE
8
1
62
1
10
-8.469277597846865
20
6.701592122071386
30
0.0
11
-6.7015921220713945
21
8.469277597846856
31
0.0
0
LINE
8
1
62
1
10
-6.7015921220713945
20
8.469277597846856
30
0.0
11
-7.871795830784333
21
9.94814707760512
31
0.0
0
LINE
8
1
62
1
10
-7.871795830784333
20
9.94814707760512
30
0.0
11
-7.8775040791379665
21
9.955756751350348
31
0.0
0
LINE
8
1
62
1
10
-7.8775040791379665
20
9.955756751350348
30
0.0
11
-7.893832662054509
21
9.979161202295725
31
0.0
0
LINE
8
1
62
1
10
-7.893832662054509
20
9.979161202295725
30
0.0
11
-7.919550696495363
21
10.019170864494974
31
0.0
0
LINE
8
1
62
1
10
-7.919550696495363
20
10.019170864494974
30
0.0
11
-7.953381386626717
21
10.076523928066672
31
0.0
0
LINE
8
1
62
1
10
-7.953381386626717
20
10.076523928066672
30
0.0
11
-7.994005795368374
21
10.151884035229402
31
0.0
0
LINE
8
1
62
1
10
-7.994005795368374
20
10.151884035229402
30
0.0
11
-8.040066724089327
21
10.245838160919849
31
0.0
0
LINE
8
1
62
1
10
-8.040066724089327
20
10.245838160919849
30
0.0
11
-8.090172691780033
21
10.358894682857855
31
0.0
0
LINE
8
1
62
1
10
-8.090172691780033
20
10.358894682857855
30
0.0
11
-8.142902004819113
21
10.49148164552672
31
0.0
0
LINE
8
1
62
1
10
-8.142902004819113
20
10.49148164552672
30
0.0
11
-8.19680690825761
21
10.643945222132233
31
0.0
0
LINE
8
1
62
1
10
-8.19680690825761
20
10.643945222132233
30
0.0
11
-8.250417809367274
21
10.816548378190683
31
0.0
0
LINE
8
1
62
1
10
-8.250417809367274
20
10.816548378190683
30
0.0
11
-8.30224756404136
21
11.00946973997565
31
0.0
0
LINE
8
1
62
1
10
-8.30224756404136
20
11.00946973997565
30
0.0
11
-8.350795816496902
21
11.222802670625857
31
0.0
0
LINE
8
1
62
1
10
-8.350795816496902
20
11.222802670625857
30
0.0
11
-8.394553382607146
21
11.456554556283486
31
0.0
0
LINE
8
1
62
1
10
-8.394553382607146
20
11.456554556283486
30
0.0
11
-8.43200666709154
21
11.710646304193867
31
0.0
0
LINE
8
1
62
1
10
-8.43200666709154
20
11.710646304193867
30
0.0
11
-8.46164210470918
21
11.984912054255393
31
0.0
0
LINE
8
1
62
1
10
-8.46164210470918
20
11.984912054255393
30
0.0
11
-8.4819506155393
21
12.279099105062496
31
0.0
0
LINE
8
1
62
1
10
-8.4819506155393
20
12.279099105062496
30
0.0
11
-8.491432064390319
21
12.592868055036618
31
0.0
0
LINE
8
1
62
1
10
-8.491432064390319
20
12.592868055036618
30
0.0
11
-8.488599714356283
21
12.925793158790093
31
0.0
0
LINE
8
1
62
1
10
-8.488599714356283
20
12.925793158790093
30
0.0
11
-8.471984664537139
21
13.277362898417415
31
0.0
0
LINE
8
1
62
1
10
-8.471984664537139
20
13.277362898417415
30
0.0
11
-7.26254123302591
21
13.97563538917005
31
0.0
0
LINE
8
1
62
1
10
-7.26254123302591
20
13.97563538917005
30
0.0
11
-6.949765382397196
21
13.81423957458491
31
0.0
0
LINE
8
1
62
1
10
-6.949765382397196
20
13.81423957458491
30
0.0
11
-6.660027609972099
21
13.650229909790058
31
0.0
0
LINE
8
1
62
1
10
-6.660027609972099
20
13.650229909790058
30
0.0
11
-6.393036452801249
21
13.485134259233334
31
0.0
0
LINE
8
1
62
1
10
-6.393036452801249
20
13.485134259233334
30
0.0
11
-6.148417248752936
21
13.320453047537864
31
0.0
0
LINE
8
1
62
1
10
-6.148417248752936
20
13.320453047537864
30
0.0
11
-5.9257138606204816
21
13.15765513067796
31
0.0
0
LINE
8
1
62
1
10
-5.9257138606204816
20
13.15765513067796
30
0.0
11
-5.724390594280295
21
12.998173760904116
31
0.0
0
LINE
8
1
62
1
10
-5.724390594280295
20
12.998173760904116
30
0.0
11
-5.543834306173395
21
12.843402654216053
31
0.0
0
LINE
8
1
62
1
10
-5.543834306173395
20
12.843402654216053
30
0.0
11
-5.383356694994303
21
12.694692168955113
31
0.0
0
LINE
8
1
62
1
10
-5.383356694994303
20
12.694692168955113
30
0.0
11
-5.242196772092877
21
12.553345603842955
31
0.0
0
LINE
8
1
62
1
10
-5.242196772092877
20
12.553345603842955
30
0.0
11
-5.11952350472772
21
12.420615623532985
31
0.0
0
LINE
8
1
62
1
10
-5.11952350472772
20
12.420615623532985
30
0.0
11
-5.014438625954761
21
12.297700819463945
31
0.0
0
LINE
8
1
62
1
10
-5.014438625954761
20
12.297700819463945
30
0.0
11
-4.925979604592444
21
12.185742413513566
31
0.0
0
LINE
8
1
62
1
10
-4.925979604592444
20
12.185742413513566
30
0.0
11
-4.85312276837597
21
12.085821111643208
31
0.0
0
LINE
8
1
62
1
10
-4.85312276837597
20
12.085821111643208
30
0.0
11
-4.794786573098163
21
11.998954114403734
31
0.0
0
LINE
8
1
62
1
10
-4.794786573098163
20
11.998954114403734
30
0.0
11
-4.7498350102341504
21
11.926092290838373
31
0.0
0
LINE
8
1
62
1
10
-4.7498350102341504
20
11.926092290838373
30
0.0
11
-4.717081145261873
21
11.868117521971211
31
0.0
0
LINE
8
1
62
1
10
-4.717081145261873
20
11.868117521971211
30
0.0
11
-4.695290778620915
21
11.825840219710404
31
0.0
0
LINE
8
1
62
1
10
-4.695290778620915
20
11.825840219710404
30
0.0
11
-4.683186220998865
21
11.79999702662419
31
0.0
0
LINE
8
1
62
1
10
-4.683186220998865
20
11.79999702662419
30
0.0
11
-4.679450174397801
21
11.791248701666218
31
0.0
0
LINE
8
1
62
1
10
-4.679450174397801
20
11.791248701666218
30
0.0
11
-3.9838134904021367
21
10.038387822438917
31
0.0
0
LINE
8
1
62
1
10
-3.9838134904021367
20
10.038387822438917
30
0.0
11
-1.5691102245920618
21
10.685405612473522
31
0.0
0
LINE
8
1
62
1
10
-1.5691102245920618
20
10.685405612473522
30
0.0
11
-1.8431016240610998
21
12.551246005182124
31
0.0
0
LINE
8
1
62
1
10
-1.8431016240610998
20
12.551246005182124
30
0.0
11
-1.8442402752738423
21
12.560690300136821
31
0.0
0
LINE
8
1
62
1
10
-1.8442402752738423
20
12.560690300136821
30
0.0
11
-1.8466790174146808
21
12.589123440675413
31
0.0
0
LINE
8
1
62
1
10
-1.8466790174146808
20
12.589123440675413
30
0.0
11
-1.8489466574762385
21
12.636631841757225
31
0.0
0
LINE
8
1
62
1
10
-1.8489466574762385
20
12.636631841757225
30
0.0
11
-1.849568362771701
21
12.703216396860856
31
0.0
0
LINE
8
1
62
1
10
-1.849568362771701
20
12.703216396860856
30
0.0
11
-1.8470700791743344
21
12.788792368466526
31
0.0
0
LINE
8
1
62
1
10
-1.8470700791743344
20
12.788792368466526
30
0.0
11
-1.8399829507233614
21
12.893189492465288
31
0.0
0
LINE
8
1
62
1
10
-1.8399829507233614
20
12.893189492465288
30
0.0
11
-1.8268477306557105
21
13.016152296372466
31
0.0
0
LINE
8
1
62
1
10
-1.8268477306557105
20
13.016152296372466
30
0.0
11
-1.8062191739372235
21
13.157340630773863
31
0.0
0
LINE
8
1
62
1
10
-1.8062191739372235
20
13.157340630773863
30
0.0
11
-1.7766704014007528
21
13.31633041298532
31
0.0
0
LINE
8
1
62
1
10
-1.7766704014007528
20
13.31633041298532
30
0.0
11
-1.736797225652272
21
13.492614581460138
31
0.0
0
LINE
8
1
62
1
10
-1.736797225652272
20
13.492614581460138
30
0.0
11
-1.685222428979463
21
13.685604259035653
31
0.0
0
LINE
8
1
62
1
10
-1.685222428979463
20
13.685604259035653
30
0.0
11
-1.6205999835901999
21
13.894630122670286
31
0.0
0
LINE
8
1
62
1
10
-1.6205999835901999
20
13.894630122670286
30
0.0
11
-1.5416192046206327
21
14.11894397688743
31
0.0
0
LINE
8
1
62
1
10
-1.5416192046206327
20
14.11894397688743
30
0.0
11
-1.4470088264840917
21
14.35772052771201
31
0.0
0
LINE
8
1
62
1
10
-1.4470088264840917
20
14.35772052771201
30
0.0
11
-1.335540993282474
21
14.610059353462102
31
0.0
0
LINE
8
1
62
1
10
-1.335540993282474
20
14.610059353462102
30
0.0
11
-1.2060351541708392
21
14.87498706834054
31
0.0
0
LINE
8
1
62
1
10
-1.2060351541708392
20
14.87498706834054
30
0.0
11
-1.0573618547534425
21
15.151459674362405
31
0.0
0
LINE
8
1
62
1
10
-1.0573618547534425
20
15.151459674362405
30
0.0
11
-0.8884464157948204
21
15.438365096753465
31
0.0
0
LINE
8
1
62
1
10
-0.8884464157948204
20
15.438365096753465
30
0.0
11
-0.6982724907526368
21
15.734525897563037
31
0.0
0
LINE
8
1
62
1
10
-0.6982724907526368
20
15.734525897563037
30
0.0
11
0.6982724907526303
21
15.734525897563039
31
0.0
0
LINE
8
1
62
1
10
0.6982724907526303
20
15.734525897563039
30
0.0
11
0.8884464157948144
21
15.438365096753467
31
0.0
0
LINE
8
1
62
1
10
0.8884464157948144
20
15.438365096753467
30
0.0
11
1.057361854753436
21
15.151459674362405
31
0.0
0
LINE
8
1
62
1
10
1.057361854753436
20
15.151459674362405
30
0.0
11
1.2060351541708332
21
14.87498706834054
31
0.0
0
LINE
8
1
62
1
10
1.2060351541708332
20
14.87498706834054
30
0.0
11
1.335540993282468
21
14.610059353462104
31
0.0
0
LINE
8
1
62
1
10
1.335540993282468
20
14.610059353462104
30
0.0
11
1.4470088264840864
21
14.357720527712011
31
0.0
0
LINE
8
1
62
1
10
1.4470088264840864
20
14.357720527712011
30
0.0
11
1.5416192046206274
21
14.118943976887431
31
0.0
0
LINE
8
1
62
1
10
1.5416192046206274
20
14.118943976887431
30
0.0
11
1.6205999835901945
21
13.894630122670288
31
0.0
0
LINE
8
1
62
1
10
1.6205999835901945
20
13.894630122670288
30
0.0
11
1.6852224289794577
21
13.685604259035655
31
0.0
0
LINE
8
1
62
1
10
1.6852224289794577
20
13.685604259035655
30
0.0
11
1.7367972256522666
21
13.49261458146014
31
0.0
0
LINE
8
1
62
1
10
1.7367972256522666
20
13.49261458146014
30
0.0
11
1.7766704014007475
21
13.316330412985321
31
0.0
0
LINE
8
1
62
1
10
1.7766704014007475
20
13.316330412985321
30
0.0
11
1.8062191739372184
21
13.157340630773865
31
0.0
0
LINE
8
1
62
1
10
1.8062191739372184
20
13.157340630773865
30
0.0
11
1.8268477306557054
21
13.016152296372468
31
0.0
0
LINE
8
1
62
1
10
1.8268477306557054
20
13.016152296372468
30
0.0
11
1.8399829507233563
21
12.89318949246529
31
0.0
0
LINE
8
1
62
1
10
1.8399829507233563
20
12.89318949246529
30
0.0
11
1.8470700791743293
21
12.788792368466527
31
0.0
0
LINE
8
1
62
1
10
1.8470700791743293
20
12.788792368466527
30
0.0
11
1.8495683627716961
21
12.703216396860858
31
0.0
0
LINE
8
1
62
1
10
1.8495683627716961
20
12.703216396860858
30
0.0
11
1.8489466574762337
21
12.636631841757227
31
0.0
0
LINE
8
1
62
1
10
1.8489466574762337
20
12.636631841757227
30
0.0
11
1.8466790174146757
21
12.589123440675415
31
0.0
0
LINE
8
1
62
1
10
1.8466790174146757
20
12.589123440675415
30
0.0
11
1.8442402752738374
21
12.560690300136821
31
0.0
0
LINE
8
1
62
1
10
1.8442402752738374
20
12.560690300136821
30
0.0
11
1.843101624061095
21
12.551246005182126
31
0.0
0
LINE
8
1
62
1
10
1.843101624061095
20
12.551246005182126
30
0.0
11
1.5691102245920576
21
10.685405612473524
31
0.0
0
LINE
8
1
62
1
10
1.5691102245920576
20
10.685405612473524
30
0.0
11
3.983813490402133
21
10.038387822438919
31
0.0
0
LINE
8
1
62
1
10
3.983813490402133
20
10.038387822438919
30
0.0
11
4.679450174397798
21
11.791248701666222
31
0.0
0
LINE
8
1
62
1
10
4.679450174397798
20
11.791248701666222
30
0.0
11
4.683186220998861
21
11.799997026624192
31
0.0
0
LINE
8
1
62
1
10
4.683186220998861
20
11.799997026624192
30
0.0
11
4.695290778620911
21
11.825840219710406
31
0.0
0
LINE
8
1
62
1
10
4.695290778620911
20
11.825840219710406
30
0.0
11
4.717081145261869
21
11.868117521971215
31
0.0
0
LINE
8
1
62
1
10
4.717081145261869
20
11.868117521971215
30
0.0
11
4.749835010234147
21
11.926092290838376
31
0.0
0
LINE
8
1
62
1
10
4.749835010234147
20
11.926092290838376
30
0.0
11
4.7947865730981585
21
11.998954114403737
31
0.0
0
LINE
8
1
62
1
10
4.7947865730981585
20
11.998954114403737
30
0.0
11
4.8531227683759655
21
12.085821111643211
31
0.0
0
LINE
8
1
62
1
10
4.8531227683759655
20
12.085821111643211
30
0.0
11
4.92597960459244
21
12.185742413513568
31
0.0
0
LINE
8
1
62
1
10
4.92597960459244
20
12.185742413513568
30
0.0
11
5.014438625954757
21
12.297700819463946
31
0.0
0
LINE
8
1
62
1
10
5.014438625954757
20
12.297700819463946
30
0.0
11
5.119523504727716
21
12.420615623532989
31
0.0
0
LINE
8
1
62
1
10
5.119523504727716
20
12.420615623532989
30
0.0
11
5.242196772092872
21
12.553345603842956
31
0.0
0
LINE
8
1
62
1
10
5.242196772092872
20
12.553345603842956
30
0.0
11
5.383356694994298
21
12.694692168955115
31
0.0
0
LINE
8
1
62
1
10
5.383356694994298
20
12.694692168955115
30
0.0
11
5.543834306173389
21
12.843402654216057
31
0.0
0
LINE
8
1
62
1
10
5.543834306173389
20
12.843402654216057
30
0.0
11
5.7243905942802895
21
12.99817376090412
31
0.0
0
LINE
8
1
62
1
10
5.7243905942802895
20
12.99817376090412
30
0.0
11
5.925713860620477
21
13.157655130677961
31
0.0
0
LINE
8
1
62
1
10
5.925713860620477
20
13.157655130677961
30
0.0
11
6.148417248752931
21
13.32045304753787
31
0.0
0
LINE
8
1
62
1
10
6.148417248752931
20
13.32045304753787
30
0.0
11
6.393036452801244
21
13.485134259233337
31
0.0
0
LINE
8
1
62
1
10
6.393036452801244
20
13.485134259233337
30
0.0
11
6.6600276099720945
21
13.650229909790061
31
0.0
0
LINE
8
1
62
1
10
6.6600276099720945
20
13.650229909790061
30
0.0
11
6.9497653823971905
21
13.814239574584914
31
0.0
0
LINE
8
1
62
1
10
6.9497653823971905
20
13.814239574584914
30
0.0
11
7.262541233025905
21
13.975635389170053
31
0.0
0
LINE
8
1
62
1
10
7.262541233025905
20
13.975635389170053
30
0.0
11
8.471984664537136
21
13.27736289841742
31
0.0
0
LINE
8
1
62
1
10
8.471984664537136
20
13.27736289841742
30
0.0
11
8.48859971435628
21
12.925793158790098
31
0.0
0
LINE
8
1
62
1
10
8.48859971435628
20
12.925793158790098
30
0.0
11
8.491432064390313
21
12.592868055036623
31
0.0
0
LINE
8
1
62
1
10
8.491432064390313
20
12.592868055036623
30
0.0
11
8.481950615539297
21
12.279099105062501
31
0.0
0
LINE
8
1
62
1
10
8.481950615539297
20
12.279099105062501
30
0.0
11
8.461642104709174
21
11.984912054255398
31
0.0
0
LINE
8
1
62
1
10
8.461642104709174
20
11.984912054255398
30
0.0
11
8.432006667091537
21
11.710646304193872
31
0.0
0
LINE
8
1
62
1
10
8.432006667091537
20
11.710646304193872
30
0.0
11
8.394553382607143
21
11.45655455628349
31
0.0
0
LINE
8
1
62
1
10
8.394553382607143
20
11.45655455628349
30
0.0
11
8.3507958164969
21
11.222802670625862
31
0.0
0
LINE
8
1
62
1
10
8.3507958164969
20
11.222802670625862
30
0.0
11
8.302247564041359
21
11.009469739975655
31
0.0
0
LINE
8
1
62
1
10
8.302247564041359
20
11.009469739975655
30
0.0
11
8.25041780936727
21
10.816548378190689
31
0.0
0
LINE
8
1
62
1
10
8.25041780936727
20
10.816548378190689
30
0.0
11
8.196806908257606
21
10.643945222132238
31
0.0
0
LINE
8
1
62
1
10
8.196806908257606
20
10.643945222132238
30
0.0
11
8.142902004819112
21
10.491481645526726
31
0.0
0
LINE
8
1
62
1
10
8.142902004819112
20
10.491481645526726
30
0.0
11
8.09017269178003
21
10.35889468285786
31
0.0
0
LINE
8
1
62
1
10
8.09017269178003
20
10.35889468285786
30
0.0
11
8.040066724089325
21
10.245838160919853
31
0.0
0
LINE
8
1
62
1
10
8.040066724089325
20
10.245838160919853
30
0.0
11
7.994005795368371
21
10.151884035229406
31
0.0
0
LINE
8
1
62
1
10
7.994005795368371
20
10.151884035229406
30
0.0
11
7.953381386626713
21
10.076523928066678
31
0.0
0
LINE
8
1
62
1
10
7.953381386626713
20
10.076523928066678
30
0.0
11
7.91955069649536
21
10.01917086449498
31
0.0
0
LINE
8
1
62
1
10
7.91955069649536
20
10.01917086449498
30
0.0
11
7.893832662054506
21
9.979161202295728
31
0.0
0
LINE
8
1
62
1
10
7.893832662054506
20
9.979161202295728
30
0.0
11
7.877504079137964
21
9.955756751350354
31
0.0
0
LINE
8
1
62
1
10
7.877504079137964
20
9.955756751350354
30
0.0
11
7.87179583078433
21
9.948147077605123
31
0.0
0
LINE
8
1
62
1
10
7.87179583078433
20
9.948147077605123
30
0.0
11
6.701592122071393
21
8.46927759784686
31
0.0
0
LINE
8
1
62
1
10
6.701592122071393
20
8.46927759784686
30
0.0
11
8.469277597846856
21
6.701592122071396
31
0.0
0
LINE
8
1
62
1
10
8.469277597846856
20
6.701592122071396
30
0.0
11
9.94814707760512
21
7.871795830784334
31
0.0
0
LINE
8
1
62
1
10
9.94814707760512
20
7.871795830784334
30
0.0
11
9.955756751350348
21
7.877504079137968
31
0.0
0
LINE
8
1
62
1
10
9.955756751350348
20
7.877504079137968
30
0.0
11
9.979161202295725
21
7.8938326620545105
31
0.0
0
LINE
8
1
62
1
10
9.979161202295725
20
7.8938326620545105
30
0.0
11
10.019170864494974
21
7.919550696495365
31
0.0
0
LINE
8
1
62
1
10
10.019170864494974
20
7.919550696495365
30
0.0
11
10.076523928066672
21
7.953381386626718
31
0.0
0
LINE
8
1
62
1
10
10.076523928066672
20
7.953381386626718
30
0.0
11
10.151884035229402
21
7.994005795368376
31
0.0
0
LINE
8
1
62
1
10
10.151884035229402
20
7.994005795368376
30
0.0
11
10.245838160919849
21
8.040066724089328
31
0.0
0
LINE
8
1
62
1
10
10.245838160919849
20
8.040066724089328
30
0.0
11
10.358894682857855
21
8.090172691780035
31
0.0
0
LINE
8
1
62
1
10
10.358894682857855
20
8.090172691780035
30
0.0
11
10.49148164552672
21
8.142902004819115
31
0.0
0
LINE
8
1
62
1
10
10.49148164552672
20
8.142902004819115
30
0.0
11
10.643945222132233
21
8.196806908257612
31
0.0
0
LINE
8
1
62
1
10
10.643945222132233
20
8.196806908257612
30
0.0
11
10.816548378190683
21
8.250417809367276
31
0.0
0
LINE
8
1
62
1
10
10.816548378190683
20
8.250417809367276
30
0.0
11
11.00946973997565
21
8.302247564041362
31
0.0
0
LINE
8
1
62
1
10
11.00946973997565
20
8.302247564041362
30
0.0
11
11.222802670625857
21
8.350795816496904
31
0.0
0
LINE
8
1
62
1
10
11.222802670625857
20
8.350795816496904
30
0.0
11
11.456554556283486
21
8.394553382607148
31
0.0
0
LINE
8
1
62
1
10
11.456554556283486
20
8.394553382607148
30
0.0
11
11.710646304193867
21
8.432006667091542
31
0.0
0
LINE
8
1
62
1
10
11.710646304193867
20
8.432006667091542
30
0.0
11
11.984912054255393
21
8.461642104709181
31
0.0
0
LINE
8
1
62
1
10
11.984912054255393
20
8.461642104709181
30
0.0
11
12.279099105062496
21
8.481950615539303
31
0.0
0
LINE
8
1
62
1
10
12.279099105062496
20
8.481950615539303
30
0.0
11
12.592868055036618
21
8.49143206439032
31
0.0
0
LINE
8
1
62
1
10
12.592868055036618
20
8.49143206439032
30
0.0
11
12.925793158790093
21
8.488599714356285
31
0.0
0
LINE
8
1
62
1
10
12.925793158790093
20
8.488599714356285
30
0.0
11
13.277362898417415
21
8.47198466453714
31
0.0
0
LINE
8
1
62
1
10
13.277362898417415
20
8.47198466453714
30
0.0
11
13.97563538917005
21
7.26254123302591
31
0.0
0
LINE
8
1
62
1
10
13.97563538917005
20
7.26254123302591
30
0.0
11
13.81423957458491
21
6.949765382397197
31
0.0
0
LINE
8
1
62
1
10
13.81423957458491
20
6.949765382397197
30
0.0
11
13.650229909790056
21
6.6600276099721
31
0.0
0
LINE
8
1
62
1
10
13.650229909790056
20
6.6600276099721
30
0.0
11
13.485134259233334
21
6.39303645280125
31
0.0
0
LINE
8
1
62
1
10
13.485134259233334
20
6.39303645280125
30
0.0
11
13.320453047537864
21
6.148417248752937
31
0.0
0
LINE
8
1
62
1
10
13.320453047537864
20
6.148417248752937
30
0.0
11
13.15765513067796
21
5.9257138606204816
31
0.0
0
LINE
8
1
62
1
10
13.15765513067796
20
5.9257138606204816
30
0.0
11
12.998173760904116
21
5.724390594280296
31
0.0
0
LINE
8
1
62
1
10
12.998173760904116
20
5.724390594280296
30
0.0
11
12.843402654216053
21
5.5438343061733955
31
0.0
0
LINE
8
1
62
1
10
12.843402654216053
20
5.5438343061733955
30
0.0
11
12.694692168955113
21
5.383356694994303
31
0.0
0
LINE
8
1
62
1
10
12.694692168955113
20
5.383356694994303
30
0.0
11
12.553345603842955
21
5.2421967720928775
31
0.0
0
LINE
8
1
62
1
10
12.553345603842955
20
5.2421967720928775
30
0.0
11
12.420615623532985
21
5.119523504727721
31
0.0
0
LINE
8
1
62
1
10
12.420615623532985
20
5.119523504727721
30
0.0
11
12.297700819463945
21
5.014438625954762
31
0.0
0
LINE
8
1
62
1
10
12.297700819463945
20
5.014438625954762
30
0.0
11
12.185742413513566
21
4.925979604592445
31
0.0
0
LINE
8
1
62
1
10
12.185742413513566
20
4.925979604592445
30
0.0
11
12.085821111643208
21
4.853122768375971
31
0.0
0
LINE
8
1
62
1
10
12.085821111643208
20
4.853122768375971
30
0.0
11
11.998954114403734
21
4.794786573098164
31
0.0
0
LINE
8
1
62
1
10
11.998954114403734
20
4.794786573098164
30
0.0
11
11.926092290838373
21
4.749835010234151
31
0.0
0
LINE
8
1
62
1
10
11.926092290838373
20
4.749835010234151
30
0.0
11
11.868117521971211
21
4.717081145261874
31
0.0
0
LINE
8
1
62
1
10
11.868117521971211
20
4.717081145261874
30
0.0
11
11.825840219710404
21
4.695290778620916
31
0.0
0
LINE
8
1
62
1
10
11.825840219710404
20
4.695290778620916
30
0.0
11
11.79999702662419
21
4.6831862209988655
31
0.0
0
LINE
8
1
62
1
10
11.79999702662419
20
4.6831862209988655
30
0.0
11
11.791248701666218
21
4.679450174397802
31
0.0
0
LINE
8
1
62
1
10
11.791248701666218
20
4.679450174397802
30
0.0
11
10.038387822438917
21
3.983813490402137
31
0.0
0
LINE
8
1
62
1
10
10.038387822438917
20
3.983813490402137
30
0.0
11
10.685405612473524
21
1.5691102245920587
31
0.0
0
ENDSEC
0
EOF
